/* XPM */
static char *_9865079d9ae4897d6ac7dedc9be846eCrvmRgv3ii5FejBT[] = {
/* columns rows colors chars-per-pixel */
"32 32 92 1 ",
"  c #6DF7B1",
". c #3DDFA7",
"X c #30D9A4",
"o c #18CD9F",
"O c #15908D",
"+ c #766776",
"@ c #E97461",
"# c #D25969",
"$ c #515061",
"% c #00A894",
"& c #00C19A",
"* c #49E5A9",
"= c #00A092",
"- c #8D4577",
"; c #C64B6C",
": c #6C4D71",
"> c #00B096",
", c #65537B",
"< c #AB5A65",
"1 c #1B7A7F",
"2 c #61F1AE",
"3 c #4E757A",
"4 c #DD6665",
"5 c #5D5B71",
"6 c #0E9189",
"7 c #18BC9B",
"8 c #516280",
"9 c #018F8D",
"0 c #9E5971",
"q c #B94D64",
"w c #505C69",
"e c #49D4A5",
"r c #3D6180",
"t c #995373",
"y c #366570",
"u c #00B998",
"i c #9D5C5D",
"p c #199B92",
"a c #E36D63",
"s c #A96E67",
"d c #49DDA7",
"f c #49CCA3",
"g c #9C756E",
"h c #ED7B69",
"j c #F18371",
"k c #F38675",
"l c #FB9585",
"z c #F78E7D",
"x c #D0685D",
"c c #156F85",
"v c #0DA694",
"b c #24D3A2",
"n c #F99181",
"m c #DD6E5F",
"M c #92536F",
"N c #297987",
"B c #EB7865",
"V c #EF7F6D",
"C c #B57469",
"Z c #1A978B",
"A c #55EBAC",
"S c #784E65",
"D c #CA615F",
"F c #4A566B",
"G c #F58A79",
"H c #D86067",
"J c #CC526A",
"K c #B53772",
"L c #864673",
"P c #943A5E",
"I c #445667",
"U c #A8386A",
"Y c #8D3B5A",
"T c #A04060",
"R c #AC4E5C",
"E c #9E4F54",
"W c #B34666",
"Q c #9A3A62",
"! c #793D4E",
"~ c #0E7081",
"^ c #724867",
"/ c #6C4863",
"( c #794C79",
") c #5E4F69",
"_ c #864164",
"` c #A13966",
"' c #0CC79D",
"] c #296374",
"[ c #31C09E",
"{ c #19B499",
"} c #3DBE9E",
"| c #61E9AC",
/* pixels */
"  .XoO+@@@@@@@@@@@@@#@@@$%&     ",
"   *=-;@@@@@@@@@@@@@@@@@:%&     ",
"   o>,;@@@@@@@@@@@@@@@@@<1>.    ",
"2*o>&3@@@@@@@@@@@@@@@@@@45672   ",
"o&=890@@@@@@@@@@@@@@@@@@qw6e2   ",
"rrt;;@@@@@@@@@@@@@@@@@@@y>*.    ",
";;4@@@@@@@@@@@@@@@@@@@@@9&*     ",
"@@@@@@@@@@@@@@@@@@@@@@@@9&o     ",
"@@@@@@@@@@@@@@@@@@@@@@@@1u&*2   ",
"@@@@@@@@@@@@@@@@@@@@@@44i19>p   ",
"@@@@@@@@@@@@@@@@@@@@@@aas6%df   ",
"#@@@@@@@@@@@@@@@@@@@@@@@g%*     ",
"@@@@@@@@@@@@@@@@hh@@@@@@g%o  .  ",
"@@@@@hj@@@@@@@@@@@@klzh@x5cvb   ",
"@@@@@@@@@@@@@@@@@@@zlnj@mMN.    ",
"@@@@@@@@@@@@@@@@@@@BVh@@s6u     ",
"@@@@@@@@@@@@@h@@BVVVB@@@CZuA    ",
"@@@@@@@@@@@@@h@@zlllz@@@4S1vb   ",
"@@@@@@@@@@@@@@@@lllll@@@DF67*   ",
"@@@@@4@@@@@@@@@@hGGGh@@4$%&     ",
"@@@@@4@@@@@@@@@#@@@@@@@;$%&     ",
"@@@@@@@@@@@@@@@@@@@@@HJKL6uA    ",
"@@@HH4@@@@@@@@@@aHHHHKKKPI6b    ",
"##;UYT;;@@#;RER4WUQYYKKQ!I~vA   ",
"^^1991/L()_8991_89999/`/9>&'bA  ",
"OOu*ou66%%1>&&u1>&&>>6]6&&XA A  ",
"%%X AXuuX&9o**X9X&X[[u%u**2     ",
"22   A{f  b    }AA     b        ",
"22    || ..            A.       ",
"                                ",
"                                ",
"                                "
};
