/* XPM */
static char *e569e5db6c7b4611e1597e1493749a46qqZkwybq43JWQ4Fu[] = {
/* columns rows colors chars-per-pixel */
"32 32 92 1 ",
"  c #6DF7B1",
". c #3DDFA7",
"X c #55EBAC",
"o c #61E9AC",
"O c #61F1AE",
"+ c #24D3A2",
"@ c #3DBE9E",
"# c #49CCA3",
"$ c #19B499",
"% c #49E5A9",
"& c #00B998",
"* c #00A894",
"= c #31C09E",
"- c #30D9A4",
"; c #00C19A",
": c #018F8D",
"> c #18CD9F",
", c #0E9189",
"< c #296374",
"1 c #00B096",
"2 c #1B7A7F",
"3 c #15908D",
"4 c #0CC79D",
"5 c #6C4863",
"6 c #A13966",
"7 c #516280",
"8 c #864164",
"9 c #5E4F69",
"0 c #794C79",
"q c #864673",
"w c #724867",
"e c #0DA694",
"r c #0E7081",
"t c #445667",
"y c #793D4E",
"u c #9A3A62",
"i c #B53772",
"p c #8D3B5A",
"a c #A8386A",
"s c #B34666",
"d c #DD6665",
"f c #AC4E5C",
"g c #9E4F54",
"h c #C64B6C",
"j c #D25969",
"k c #E97461",
"l c #A04060",
"z c #943A5E",
"x c #D86067",
"c c #E36D63",
"v c #CC526A",
"b c #515061",
"n c #ED7B69",
"m c #F58A79",
"M c #18BC9B",
"N c #4A566B",
"B c #CA615F",
"V c #FB9585",
"C c #784E65",
"Z c #F78E7D",
"A c #1A978B",
"S c #B57469",
"D c #EB7865",
"F c #EF7F6D",
"G c #A96E67",
"H c #297987",
"J c #92536F",
"K c #DD6E5F",
"L c #F18371",
"P c #F99181",
"I c #156F85",
"U c #5D5B71",
"Y c #D0685D",
"T c #F38675",
"R c #9C756E",
"E c #49DDA7",
"W c #199B92",
"Q c #9D5C5D",
"! c #366570",
"~ c #995373",
"^ c #3D6180",
"/ c #49D4A5",
"( c #505C69",
") c #B94D64",
"_ c #9E5971",
"` c #00A092",
"' c #4E757A",
"] c #AB5A65",
"[ c #65537B",
"{ c #6C4D71",
"} c #8D4577",
"| c #766776",
/* pixels */
"                                ",
"                                ",
"                                ",
"       .X            .. oo    OO",
"        +     XX@    +  #$X   OO",
"     O%%&*&==-;-:-%%>:;-&&-X -**",
"  X X-;;,<,11;;12&;;12**,,&>%&33",
"  X+4;1:565::::782::7890q52::2ww",
"   Xertyuiippuasdfgfhjkkhhlpahjj",
"    +,tziiixxxxckkkkkkkkkkdxxkkk",
"    X&,qivxkkkkkkkkkkkkkkkkkkkkk",
"     ;*bhkkkkkkkjkkkkkkkkkdkkkkk",
"     ;*bdkknmmmnkkkkkkkkkkdkkkkk",
"   %M,NBkkkVVVVVkkkkkkkkkkkkkkkk",
"   +e2CdkkkZVVVZkknkkkkkkkkkkkkk",
"    X&ASkkkDFFFDkknkkkkkkkkkkkkk",
"     &,GkknFDkkkkkkkkkkkkkkkkkkk",
"    .HJKkLPVZkkkkkkkkkkkkkkkkkkk",
"   +eIUYknZVTkkkkkkkkkkkkLnkkkkk",
"  .  >*Rkkkkkknnkkkkkkkkkkkkkkkk",
"     %*Rkkkkkkkkkkkkkkkkkkkkkkkj",
"   #E*,Gcckkkkkkkkkkkkkkkkkkkkkk",
"   W1:2Qddkkkkkkkkkkkkkkkkkkkkkk",
"   O%;&2kkkkkkkkkkkkkkkkkkkkkkkk",
"     >;:kkkkkkkkkkkkkkkkkkkkkkkk",
"     %;:kkkkkkkkkkkkkkkkkkkkkdhh",
"    .%1!kkkkkkkkkkkkkkkkkkkhh~^^",
"   O/,()kkkkkkkkkkkkkkkkkk_:7`;>",
"   OM,Udkkkkkkkkkkkkkkkkkk';1>%O",
"    .12]kkkkkkkkkkkkkkkkkh[1>   ",
"     ;*{kkkkkkkkkkkkkkkkkh}`%   ",
"     ;*bkkkjkkkkkkkkkkkkk|3>-.  "
};
