/* XPM */
static char *_6a8ec2cbaa247a4dd37c497b42f83c1JtxPW8JcrXvvuPb1[] = {
/* columns rows colors chars-per-pixel */
"32 32 92 1 ",
"  c #6DF7B1",
". c #00C19A",
"X c #00A894",
"o c #515061",
"O c #E97461",
"+ c #D25969",
"@ c #766776",
"# c #15908D",
"$ c #18CD9F",
"% c #30D9A4",
"& c #3DDFA7",
"* c #6C4D71",
"= c #C64B6C",
"- c #8D4577",
"; c #00A092",
": c #49E5A9",
"> c #00B096",
", c #1B7A7F",
"< c #AB5A65",
"1 c #65537B",
"2 c #61F1AE",
"3 c #18BC9B",
"4 c #0E9189",
"5 c #5D5B71",
"6 c #DD6665",
"7 c #4E757A",
"8 c #49D4A5",
"9 c #505C69",
"0 c #B94D64",
"q c #9E5971",
"w c #018F8D",
"e c #516280",
"r c #366570",
"t c #995373",
"y c #3D6180",
"u c #00B998",
"i c #199B92",
"p c #9D5C5D",
"a c #49CCA3",
"s c #49DDA7",
"d c #A96E67",
"f c #E36D63",
"g c #9C756E",
"h c #ED7B69",
"j c #24D3A2",
"k c #0DA694",
"l c #156F85",
"z c #D0685D",
"x c #F78E7D",
"c c #FB9585",
"v c #F38675",
"b c #F18371",
"n c #297987",
"m c #92536F",
"M c #DD6E5F",
"N c #F99181",
"B c #EF7F6D",
"V c #EB7865",
"C c #55EBAC",
"Z c #1A978B",
"A c #B57469",
"S c #784E65",
"D c #4A566B",
"F c #CA615F",
"G c #F58A79",
"H c #864673",
"J c #B53772",
"K c #CC526A",
"L c #D86067",
"P c #445667",
"I c #943A5E",
"U c #0E7081",
"Y c #793D4E",
"T c #9A3A62",
"R c #8D3B5A",
"E c #A8386A",
"W c #B34666",
"Q c #AC4E5C",
"! c #9E4F54",
"~ c #A04060",
"^ c #0CC79D",
"/ c #6C4863",
"( c #A13966",
") c #864164",
"_ c #5E4F69",
"` c #794C79",
"' c #724867",
"] c #296374",
"[ c #31C09E",
"{ c #3DBE9E",
"} c #19B499",
"| c #61E9AC",
/* pixels */
"     .XoOOO+OOOOOOOOOOOOO@#$%&  ",
"     .X*OOOOOOOOOOOOOOOOO=-;:   ",
"    &>,<OOOOOOOOOOOOOOOOO=1>$   ",
"   23456OOOOOOOOOOOOOOOOOO7.>$:2",
"   28490OOOOOOOOOOOOOOOOOOqwe;.$",
"    &:>rOOOOOOOOOOOOOOOOOOO==tyy",
"     :.wOOOOOOOOOOOOOOOOOOOOO6==",
"     $.wOOOOOOOOOOOOOOOOOOOOOOOO",
"   2:.u,OOOOOOOOOOOOOOOOOOOOOOOO",
"   i>w,p66OOOOOOOOOOOOOOOOOOOOOO",
"   asX4dffOOOOOOOOOOOOOOOOOOOOOO",
"     :XgOOOOOOOOOOOOOOOOOOOOOOO+",
"  &  $XgOOOOOOhhOOOOOOOOOOOOOOOO",
"   jkl5zOhxcvOOOOOOOOOOOObhOOOOO",
"    &nmMObNcxOOOOOOOOOOOOOOOOOOO",
"     u4dOOhBVOOOOOOOOOOOOOOOOOOO",
"    CuZAOOOVBBBVOOhOOOOOOOOOOOOO",
"   jk,S6OOOxcccxOOhOOOOOOOOOOOOO",
"   :34DFOOOcccccOOOOOOOOOOOOOOOO",
"     .Xo6OOhGGGhOOOOOOOOOO6OOOOO",
"     .Xo=OOOOOOO+OOOOOOOOO6OOOOO",
"    Cu4HJKLOOOOOOOOOOOOOOOOOOOOO",
"    j4PIJJJLLLLfOOOOOOOOOO6LLOOO",
"   CkUPYTJJRRTEW6Q!Q=+OO==~RE=++",
"  Cj^.>w/(/wwwwe),wwe)_`H/,ww,''",
"  C C%..4]4>>..>,u..>,XX44u$:u##",
"     2::uXu[[%.%w%::$w.%uu%C %XX",
"        j     CC{    j  a}C   22",
"       &C            && ||    22",
"                                ",
"                                ",
"                                "
};
