/* XPM */
static char *ae31a29f2fcb4735936ac477bb1931aeMzMoFE2tj5SV1sUK[] = {
/* columns rows colors chars-per-pixel */
"32 32 92 1 ",
"  c #6DF7B1",
". c #61F1AE",
"X c #61E9AC",
"o c #3DDFA7",
"O c #55EBAC",
"+ c #19B499",
"@ c #49CCA3",
"# c #24D3A2",
"$ c #3DBE9E",
"% c #00A894",
"& c #30D9A4",
"* c #00B998",
"= c #00C19A",
"- c #018F8D",
"; c #18CD9F",
": c #49E5A9",
"> c #31C09E",
", c #15908D",
"< c #0E9189",
"1 c #1B7A7F",
"2 c #00B096",
"3 c #296374",
"4 c #724867",
"5 c #6C4863",
"6 c #864673",
"7 c #794C79",
"8 c #5E4F69",
"9 c #864164",
"0 c #516280",
"q c #A13966",
"w c #0CC79D",
"e c #D25969",
"r c #C64B6C",
"t c #A8386A",
"y c #8D3B5A",
"u c #A04060",
"i c #E97461",
"p c #AC4E5C",
"a c #9E4F54",
"s c #DD6665",
"d c #B34666",
"f c #9A3A62",
"g c #B53772",
"h c #793D4E",
"j c #445667",
"k c #0E7081",
"l c #0DA694",
"z c #D86067",
"x c #E36D63",
"c c #943A5E",
"v c #CC526A",
"b c #515061",
"n c #ED7B69",
"m c #F58A79",
"M c #FB9585",
"N c #CA615F",
"B c #4A566B",
"V c #18BC9B",
"C c #F78E7D",
"Z c #784E65",
"A c #EB7865",
"S c #EF7F6D",
"D c #B57469",
"F c #1A978B",
"G c #A96E67",
"H c #F99181",
"J c #F18371",
"K c #DD6E5F",
"L c #92536F",
"P c #297987",
"I c #F38675",
"U c #D0685D",
"Y c #5D5B71",
"T c #156F85",
"R c #9C756E",
"E c #49DDA7",
"W c #9D5C5D",
"Q c #199B92",
"! c #3D6180",
"~ c #995373",
"^ c #366570",
"/ c #00A092",
"( c #9E5971",
") c #B94D64",
"_ c #505C69",
"` c #49D4A5",
"' c #4E757A",
"] c #65537B",
"[ c #AB5A65",
"{ c #8D4577",
"} c #6C4D71",
"| c #766776",
/* pixels */
"                                ",
"                                ",
"                                ",
"..    XX oo            Oo       ",
"..   O+@  #    $OO     #        ",
"%%& O&**&=-;::&-&=&>>*%*::.     ",
",,*:;*<<%%12==*12==22<3<==&O O  ",
"441--1567890--190----5q5-2=w#O  ",
"eertyurriierpapsdtfyyggfhjklO   ",
"iiizzsiiiiiiiiiixzzzzgggcj<#    ",
"iiiiiiiiiiiiiiiiiiiiizvg6<*O    ",
"iiiiisiiiiiiiiieiiiiiiirb%=     ",
"iiiiisiiiiiiiiiinmmmniisb%=     ",
"iiiiiiiiiiiiiiiiMMMMMiiiNB<V:   ",
"iiiiiiiiiiiiiniiCMMMCiiisZ1l#   ",
"iiiiiiiiiiiiiniiASSSAiiiDF*O    ",
"iiiiiiiiiiiiiiiiiiiASniiG<*     ",
"iiiiiiiiiiiiiiiiiiiCMHJiKLPo    ",
"iiiiinJiiiiiiiiiiiiIMCniUYTl#   ",
"iiiiiiiiiiiiiiiinniiiiiiR%;  o  ",
"eiiiiiiiiiiiiiiiiiiiiiiiR%:     ",
"iiiiiiiiiiiiiiiiiiiiiixxG<%E@   ",
"iiiiiiiiiiiiiiiiiiiiiissW1-2Q   ",
"iiiiiiiiiiiiiiiiiiiiiiii1*=:.   ",
"iiiiiiiiiiiiiiiiiiiiiiii-=;     ",
"rrsiiiiiiiiiiiiiiiiiiiii-=:     ",
"!!~rriiiiiiiiiiiiiiiiiii^2:o    ",
";=/0-(iiiiiiiiiiiiiiiiii)_<`.   ",
".:;2='iiiiiiiiiiiiiiiiiisY<V.   ",
"   ;2]riiiiiiiiiiiiiiiii[12o    ",
"   :/{riiiiiiiiiiiiiiiii}%=     ",
"  o&;,|iiiiiiiiiiiiieiiib%=     "
};
