/* XPM */
static char *result[] = {
/* columns rows colors chars-per-pixel */
"32 32 84 1 ",
"  c #6DF7B1",
". c #24D3A2",
"X c #55EBAC",
"o c #18CD9F",
"O c #00A894",
"+ c #906771",
"@ c #E97461",
"# c #D25969",
"$ c #CA615F",
"% c #4A566B",
"& c #0E9189",
"* c #61F1AE",
"= c #794C79",
"- c #D86067",
"; c #A8386A",
": c #6C4863",
"> c #018F8D",
", c #18BC9B",
"< c #30D9A4",
"1 c #3DDFA7",
"2 c #297987",
"3 c #A13E74",
"4 c #E36D63",
"5 c #C1456E",
"6 c #585473",
"7 c #31D1A2",
"8 c #00B096",
"9 c #516280",
"0 c #C64B6C",
"q c #4E757A",
"w c #49E5A9",
"e c #00B998",
"r c #348683",
"t c #31C09E",
"y c #15908D",
"u c #B06E6B",
"i c #69696E",
"p c #00C19A",
"a c #01978F",
"s c #3D6180",
"d c #DD6665",
"f c #B94D64",
"g c #00A092",
"h c #3DBE9E",
"j c #D0685D",
"k c #426F78",
"l c #0CC79D",
"z c #ED7B69",
"x c #F58A79",
"c c #F18371",
"v c #9E4F54",
"b c #296374",
"n c #F78E7D",
"m c #FB9585",
"M c #F99181",
"N c #845C61",
"B c #EB7865",
"V c #EF7F6D",
"C c #827572",
"Z c #1A978B",
"A c #DD6E5F",
"S c #C4625B",
"D c #5E4A5B",
"F c #1B7A7F",
"G c #864673",
"H c #25C29D",
"J c #25A195",
"K c #AD4C71",
"L c #F38675",
"P c #9C756E",
"I c #0D9590",
"U c #55DAA8",
"Y c #AC4E5C",
"T c #B34666",
"R c #017E89",
"E c #A96E67",
"W c #D16063",
"Q c #36627C",
"! c #8D4577",
"~ c #B53772",
"^ c #BB3E70",
"/ c #A04060",
"( c #43687E",
") c #366570",
/* pixels */
"  .XoO+@@@@@@@@@@@@@#@@$%&o**X  ",
"    oO=@@@@@@@@@@@@@@@@-;:>,<X  ",
"   1>23@@@@@@@@@@@@@@@@456O7X   ",
"    o890@@@@@@@@@@@@@@@@qO.     ",
"    *<>0@@@@@@@@@@@@@@@@qO.     ",
"    wer@@@@@#@@@@@@@@@@@qOo*X   ",
"    tyu@@@@@@@@@@@@@@@@@i&p<1   ",
"   1as5@@@ddd#@@@@@@@@@@f:ggh   ",
"  XXw89@@@@@@@@@@@@@@@@@jklX    ",
"    w89@@@@@@@@@@@zxxc@@vb.     ",
"    *72#@@@@@@@@@@nmmMz@vblX1   ",
"    *<>0@@@@@@@@@@nmmMz@@N>8    ",
"  XXw890@@@@@@@@@@BVVz@@CZp<    ",
"   1>23#@@@@@@@@@@@@@@@AkO.     ",
"    o89@@@@@@@@@@@@@@@@SbO.     ",
"    *<>@@@@@@@@@@@@@@@@SDFlX    ",
"    *<>@@@@@@@@@@@@@@@@@fG>>    ",
"    wp>@@@@@@@@@@@@@@@@@i&p<    ",
" 1  o89@@@@@@@@@@@@@@@@@qOo*    ",
"  HJ82K@@@LmmmL@@@@@@@@@qO.     ",
"    <OP@@@mmmmm@@@@@@@@@qOIU    ",
"    <OP@@@zxxxz@@@@@@@@@i&.     ",
"   XOyu@zB@@@@@@@@@@@@@@Y%,*    ",
"   XOyu@zB@@@@@@@@#@@@@@dTR,1   ",
"     w>@@@@@z@@@@@@@@@@AEr.XX1  ",
"    Xo>@@@@@z@@@@@@@@@@SbO      ",
"    wp>@@@@@@@@@@@d0#@@WQO1     ",
"   UOy!@@@@@@@@@@@5~^#@d/%O7X   ",
"   HOy!@@@@@@@@@@@4-d@@@06OeX   ",
"  XXXo>@@@@@@@@@@@@@@@@@#(pw    ",
"    *<>@@@@@@@@@@@@@@@@@@i8< ** ",
"    wp>@@#@@@@@@@@@@@@@@@f)8.<* "
};
