/* XPM */
static char *result[] = {
/* columns rows colors chars-per-pixel */
"32 32 84 1 ",
"  c #6DF7B1",
". c #3DDFA7",
"X c #55EBAC",
"o c #25C29D",
"O c #24D3A2",
"+ c #55DAA8",
"@ c #25A195",
"# c #49E5A9",
"$ c #61F1AE",
"% c #00A894",
"& c #30D9A4",
"* c #00B096",
"= c #18CD9F",
"- c #018F8D",
"; c #01978F",
": c #31C09E",
"> c #00C19A",
", c #15908D",
"< c #297987",
"1 c #31D1A2",
"2 c #3D6180",
"3 c #00B998",
"4 c #8D4577",
"5 c #B06E6B",
"6 c #9C756E",
"7 c #AD4C71",
"8 c #516280",
"9 c #A13E74",
"0 c #C1456E",
"q c #348683",
"w c #794C79",
"e c #906771",
"r c #E97461",
"t c #D25969",
"y c #C64B6C",
"u c #ED7B69",
"i c #EB7865",
"p c #FB9585",
"a c #F38675",
"s c #DD6665",
"d c #F58A79",
"f c #E36D63",
"g c #F78E7D",
"h c #D86067",
"j c #B53772",
"k c #EF7F6D",
"l c #BB3E70",
"z c #F99181",
"x c #F18371",
"c c #D16063",
"v c #C4625B",
"b c #DD6E5F",
"n c #CA615F",
"m c #A04060",
"M c #36627C",
"N c #296374",
"B c #A96E67",
"V c #AC4E5C",
"C c #69696E",
"Z c #4E757A",
"A c #B94D64",
"S c #5E4A5B",
"D c #426F78",
"F c #827572",
"G c #9E4F54",
"H c #D0685D",
"J c #A8386A",
"K c #4A566B",
"L c #43687E",
"P c #585473",
"I c #B34666",
"U c #0E9189",
"Y c #864673",
"T c #1B7A7F",
"R c #1A978B",
"E c #845C61",
"W c #6C4863",
"Q c #366570",
"! c #017E89",
"~ c #18BC9B",
"^ c #0D9590",
"/ c #0CC79D",
"( c #00A092",
") c #3DBE9E",
/* pixels */
"                                ",
"                                ",
"             .                  ",
"  X         o      X   X       O",
"  Xo+   XX  @     .X   X.    . X",
"#$X%%#X %%&&*=#$$=-#$$##;:#$=-==",
">&=,,>=#,,%%<*>&&*<*&1**2,3&*<%%",
"---44---556678---898-<8805q-89we",
"rrrrrrrrrrrrrrrrrrtyytrrrrryyrrr",
"rrrrrrrruurrrrrrrrrrrrrrrrrrrrrr",
"trrrrrrriirrrrrrrrrrrrrrrrrrrrrr",
"rrrrrrrrrruparrrrrrrrrrrsrrrrrrr",
"rrrrrrrrrrdpprrrrrrrrrrrsrrrrrrr",
"rrrrrruurrdpprrrrrrrrrrrsrtrrrrr",
"rrrrrrrrrrdpprrrrrrrrrrrtrrrrrrr",
"rrrrrrrrrruparrrrrrrrrrrrrrrrrrr",
"rrrrrrrrrrrrrrrrrrrrrrrrrrrrrrrr",
"rrrrrrrrrrrrrrrrrrrrrrrrrrrrrrrr",
"rrrrrrrrrrrrrrrrrrrrrrrrrrrrrrrr",
"rrrf0srrtrrrrrrrrrriggurrrrrrrrr",
"rrrhjyrrrrrrrrrrrrrkppdrrrrrrrrr",
"rrrsltrrrrrrrrrrrrrkppdrrrrrrrrt",
"rrrrtrrrrrrrrrrrrrruzzxrrrrrrrrr",
"rrrrrrrrrrrrrrrrrrrruurrrrrrrrrr",
"rrrrscvbrrrrrrrrvvbrrrrrrrrrrfhn",
"rrtymMNBsVCZZZCASNDFrGGHACZZZ0JK",
"ACLPK%%qIKU%%%UYT%%RENNDWU%%%PWU",
"Q*>%%. O!~O^O=>-/OO>-/O/(>=OO%-=",
"*&#31  X~$ + $&-X  &*X X(&$  1~$",
"O  XX  X.            .  ).X  X&$",
"&$     .                      XX",
"$$                              "
};
