/* XPM */
static char *result[] = {
/* columns rows colors chars-per-pixel */
"32 32 84 1 ",
"  c #6DF7B1",
". c #55EBAC",
"X c #61F1AE",
"o c #18CD9F",
"O c #0E9189",
"+ c #4A566B",
"@ c #CA615F",
"# c #E97461",
"$ c #D25969",
"% c #906771",
"& c #00A894",
"* c #24D3A2",
"= c #30D9A4",
"- c #18BC9B",
"; c #018F8D",
": c #6C4863",
"> c #A8386A",
", c #D86067",
"< c #794C79",
"1 c #31D1A2",
"2 c #585473",
"3 c #C1456E",
"4 c #E36D63",
"5 c #A13E74",
"6 c #297987",
"7 c #3DDFA7",
"8 c #4E757A",
"9 c #C64B6C",
"0 c #516280",
"q c #00B096",
"w c #348683",
"e c #00B998",
"r c #49E5A9",
"t c #00C19A",
"y c #69696E",
"u c #B06E6B",
"i c #15908D",
"p c #31C09E",
"a c #3DBE9E",
"s c #00A092",
"d c #B94D64",
"f c #DD6665",
"g c #3D6180",
"h c #01978F",
"j c #0CC79D",
"k c #426F78",
"l c #D0685D",
"z c #296374",
"x c #9E4F54",
"c c #F18371",
"v c #F58A79",
"b c #ED7B69",
"n c #F99181",
"m c #FB9585",
"M c #F78E7D",
"N c #845C61",
"B c #1A978B",
"V c #827572",
"C c #EF7F6D",
"Z c #EB7865",
"A c #DD6E5F",
"S c #C4625B",
"D c #1B7A7F",
"F c #5E4A5B",
"G c #864673",
"H c #F38675",
"J c #AD4C71",
"K c #25A195",
"L c #25C29D",
"P c #55DAA8",
"I c #0D9590",
"U c #9C756E",
"Y c #AC4E5C",
"T c #017E89",
"R c #B34666",
"E c #A96E67",
"W c #36627C",
"Q c #D16063",
"! c #A04060",
"~ c #BB3E70",
"^ c #B53772",
"/ c #8D4577",
"( c #43687E",
") c #366570",
/* pixels */
"  .XXoO+@##$#############%&o.*  ",
"  .=-;:>,################<&o    ",
"   .1&234################56;7   ",
"     *&8################90qo    ",
"     *&8################9;=X    ",
"   .Xo&8###########$#####wer    ",
"   7=tOy#################uip    ",
"   ass:d##########$fff###3gh7   ",
"    .jkl#################0qr..  ",
"     *zx##cvvb###########0qr    ",
"   7.jzx#bnmmM##########$61X    ",
"    q;N##bnmmM##########9;=X    ",
"    =tBV##bCCZ##########90qr..  ",
"     *&kA###############$56;7   ",
"     *&zS################0qo    ",
"    .jDFS################;=X    ",
"    ;;Gd#################;=X    ",
"    =tOy#################;tr    ",
"    Xo&8#################0qo  7 ",
"     *&8#########HmmmH###J6qKL  ",
"    PI&8#########mmmmm###U&=    ",
"     *Oy#########bvvvb###U&=    ",
"    X-+Y##############Zb#ui&.   ",
"   7-TRf#####$########Zb#ui&.   ",
"  7..*wEA##########b#####;r     ",
"      &zS##########b#####;o.    ",
"     7&WQ##$9f###########;tr    ",
"   .1&+!f#$~^3###########/i&P   ",
"   .e&29###f,4###########/i&L   ",
"    rt($#################;o...  ",
" XX =qy##################;=X    ",
" X=*q)d###############$##;tr    "
};
