/* XPM */
static char *result[] = {
/* columns rows colors chars-per-pixel */
"32 32 84 1 ",
"  c #61F1AE",
". c #6DF7B1",
"X c #30D9A4",
"o c #3DDFA7",
"O c #55EBAC",
"+ c #24D3A2",
"@ c #3DBE9E",
"# c #00B096",
"$ c #49E5A9",
"% c #00B998",
"& c #31D1A2",
"* c #18BC9B",
"= c #55DAA8",
"- c #018F8D",
"; c #00A092",
": c #366570",
"> c #00C19A",
", c #00A894",
"< c #017E89",
"1 c #0D9590",
"2 c #18CD9F",
"3 c #0CC79D",
"4 c #B94D64",
"5 c #69696E",
"6 c #43687E",
"7 c #585473",
"8 c #4A566B",
"9 c #348683",
"0 c #B34666",
"q c #0E9189",
"w c #864673",
"e c #1B7A7F",
"r c #1A978B",
"t c #845C61",
"y c #296374",
"u c #426F78",
"i c #6C4863",
"p c #E97461",
"a c #D25969",
"s c #C64B6C",
"d c #A04060",
"f c #36627C",
"g c #A96E67",
"h c #DD6665",
"j c #AC4E5C",
"k c #4E757A",
"l c #5E4A5B",
"z c #827572",
"x c #9E4F54",
"c c #D0685D",
"v c #C1456E",
"b c #A8386A",
"n c #D16063",
"m c #C4625B",
"M c #DD6E5F",
"N c #E36D63",
"B c #D86067",
"V c #CA615F",
"C c #ED7B69",
"Z c #F99181",
"A c #F18371",
"S c #BB3E70",
"D c #EF7F6D",
"F c #FB9585",
"G c #F58A79",
"H c #B53772",
"J c #EB7865",
"K c #F78E7D",
"L c #F38675",
"P c #8D4577",
"I c #B06E6B",
"U c #9C756E",
"Y c #AD4C71",
"T c #516280",
"R c #A13E74",
"E c #297987",
"W c #794C79",
"Q c #906771",
"! c #15908D",
"~ c #3D6180",
"^ c #01978F",
"/ c #31C09E",
"( c #25C29D",
") c #25A195",
/* pixels */
"  ..............................",
"X .....o......................OO",
"+..OO..Oo............o..@oO..OX ",
"#X$%&..O* .=. X-O..X#O.O;X ..&* ",
":#>,,o.+<*+1+2>-3++>-3+3;>2++,-2",
"45678,,908q,,,qwe,,rtyyuiq,,,7iq",
"ppasdfyghj5kkk54lyuzpxxc45kkkvb8",
"pppphnmMppppppppmmMppppppppppNBV",
"ppppppppppppppppppppCCpppppppppp",
"ppppappppppppppppppCZZAppppppppp",
"ppphSapppppppppppppDFFGppppppppa",
"pppBHspppppppppppppDFFGppppppppp",
"pppNvhppappppppppppJKKCppppppppp",
"pppppppppppppppppppppppppppppppp",
"pppppppppppppppppppppppppppppppp",
"pppppppppppppppppppppppppppppppp",
"ppppppppppCFLppppppppppppppppppp",
"ppppppppppGFFpppppppppppappppppp",
"ppppppCCppGFFppppppppppphpappppp",
"ppppppppppGFFppppppppppphppppppp",
"ppppppppppCFLppppppppppphppppppp",
"apppppppJJpppppppppppppppppppppp",
"ppppppppCCpppppppppppppppppppppp",
"ppppppppppppppppppassapppppssppp",
"---PP---IIUUYT---TRT-ETTvI9-TRWQ",
">X2!!>2$!!,,E#>XX#E#X&##~!%X#E,,",
"$ O,,$O.,,XX#2$  2-$  $$^/$ 2-22",
"..O(=...OO..).....oO...Oo....o.O",
"..O.........(......O...O.......+",
".............o..................",
"................................",
"................................"
};
