/* XPM */
static char *result[] = {
/* columns rows colors chars-per-pixel */
"32 32 110 2 ",
"   c #74C857",
".  c #6CC25F",
"X  c #5BB76F",
"o  c #53B277",
"O  c #56A575",
"+  c #866E51",
"@  c #58A776",
"#  c #877052",
"$  c #619F71",
"%  c #5FBA6B",
"&  c #5E9C6E",
"*  c #64BD67",
"=  c #9E644C",
"-  c #8E7557",
";  c #A9694C",
":  c #AA7955",
">  c #946A4F",
",  c #857E5C",
"<  c #6F986B",
"1  c #A5674D",
"2  c #A0654D",
"3  c #90674D",
"4  c #66A166",
"5  c #838961",
"6  c #A7684C",
"7  c #AE6B4C",
"8  c #CA8054",
"9  c #C17850",
"0  c #BA724D",
"q  c #B56E4B",
"w  c #957857",
"e  c #94875D",
"r  c #B06C4B",
"t  c #708B5D",
"y  c #70C55B",
"u  c #57B573",
"i  c #977B59",
"p  c #C17A52",
"a  c #C87E53",
"s  c #C57C52",
"d  c #C37A51",
"f  c #AA875C",
"g  c #6C8861",
"h  c #BC7752",
"j  c #C57D53",
"k  c #A2664D",
"l  c #BC744E",
"z  c #B7704C",
"x  c #AC6A4C",
"c  c #7E7857",
"v  c #C17951",
"b  c #827B5A",
"n  c #6A966C",
"m  c #9B6149",
"M  c #9D624A",
"N  c #7B7554",
"B  c #659268",
"V  c #995F48",
"C  c #965C45",
"Z  c #75805C",
"A  c #4FAF7B",
"S  c #68C063",
"D  c #76C199",
"F  c #D8EDE1",
"G  c #62B889",
"H  c #79835F",
"J  c #826B4E",
"K  c #C4E4D3",
"L  c #ECF6F1",
"P  c white",
"I  c #9DD2B5",
"U  c #747F5B",
"Y  c #945B44",
"T  c #679369",
"R  c #A7A38D",
"E  c #D3D1C6",
"W  c #B69080",
"Q  c #DAC7C0",
"!  c #A96748",
"~  c #A46548",
"^  c #98B69A",
"/  c #CCDBCD",
"(  c #985E46",
")  c #8ACAA7",
"_  c #77825D",
"`  c #846D4F",
"'  c #818962",
"]  c #6F996C",
"[  c #7C9468",
"{  c #69A469",
"}  c #5DAA77",
"|  c #937858",
" . c #74A880",
".. c #EADDD7",
"X. c #9AA084",
"o. c #6AA572",
"O. c #CFAC9C",
"+. c #869A6A",
"@. c #8A9D66",
"#. c #8E845E",
"$. c #AEA992",
"%. c #738E67",
"&. c #D5BBB0",
"*. c #99876B",
"=. c #ADAC87",
"-. c #B8C8AD",
";. c #73AA6A",
":. c #DCAA8D",
">. c #D6D4C9",
",. c #C1B2A1",
/* pixels */
"                        .               .                       ",
"                  . X . o     . . . X . o                       ",
"                  O + @ # $ % & % @ # @ # & %                   ",
"              * X + = - ; : $ > , < 1 - 2 3 &                   ",
"              . 4 5 6 2 7 8 9 8 8 0 q 2 2 q w o *               ",
"            X o e r 6 2 7 9 8 8 8 0 q 2 2 q w t *               ",
"        y u # i p q 6 2 7 0 a 8 s q q 2 2 q d f $ & .           ",
"        u g h j 8 r k 2 7 q 0 l z q x 2 2 x d j : > o .         ",
"      * c > 9 8 9 7 2 2 1 x q q q 6 k 2 2 6 0 8 v 7 b 4         ",
"    . X n 2 r q r = + + m 2 ; 7 1 2 M 3 N M ; q q r , u *       ",
"      * n 2 k 6 k m B O B V 2 2 2 C Z & A C 2 6 6 k , u         ",
"    S & V 2 m m + g D F G & N N N A D G G & N m m = M Z X       ",
"    y 4 H C J B O K L P F A A A A D L F F I A B U Y # T .       ",
"    % & V C G F P P P P P P P P P P P P P P P F D N M Z u y     ",
"    S 4 2 M R P P P P P P P P P P P P P P P P P E 3 2 H S y     ",
"      * n 7 W P P P P P P P P P P P P P P P P P Q ! , u         ",
"      * # 7 W P P P P P P P P P P P P P P P P P Q ! > 4         ",
"    . X n ; W P P P P P P P P P P P P P P P P P Q ~ , u *       ",
"      * n V ^ P P P P P P P P P P P P P P P P P / + , u         ",
"    S & ( + ) P P P P P P P P P P P P P P P P P K g V Z X       ",
"    y 4 _ B F P P P P P P P P P P P P P P P P P L D ` T .       ",
"      * ' ] ) P P P P P P P P P P P P P P P P P K $ [ {         ",
"        } |  ...P P P P P P P P P P P P P P P ..X., o.S         ",
"          * o.: O.P P P P P P P P P P P P P ..: +.u             ",
"            o @.#.P P P P P P P P P P P P P $.@.u S             ",
"            . X %.&.P P P P P P P P P P P ..*.X y y             ",
"              * X =.K P P P P P P P P P F -.;.*                 ",
"                  % %.P P P &.:.:.&.P P $.u y                   ",
"                    * D >.%.u %.u $ ,.A u                       ",
"                      % $ S y % S % $ S y                       ",
"                        *                                       ",
"                                                                "
};
