/* XPM */
static char *result[] = {
/* columns rows colors chars-per-pixel */
"32 32 3 1 ",
"  c #F8C984",
". c #74C857",
"X c #F1B183",
/* pixels */
"   .  .       .. .       .  .   ",
" ...... .    .......  .. ...... ",
"................................",
"................................",
"X..............................X",
" .............................. ",
"................................",
"XX............................XX",
" .............................. ",
" .............................. ",
" X............................X ",
"  X..........................X  ",
" .............................. ",
" .............................. ",
"................................",
" .............................. ",
"................................",
"................................",
"XX............................XX",
" .............................. ",
" X............................X ",
"  X..........................X  ",
"  ............................  ",
" .............................. ",
" X............................X ",
"................................",
"................................",
" .............................. ",
"................................",
"................................",
" ......X.XXXX.......XX..X......X",
"  X.XX.      X.. .       .XX.   "
};
