/* XPM */
static char *result[] = {
/* columns rows colors chars-per-pixel */
"64 64 213 2 ",
"   c #7E3F5B",
".  c #375D6D",
"X  c #187B7F",
"o  c #1B6C7B",
"O  c #39656D",
"+  c #396B76",
"@  c #2D747C",
"#  c #247C7F",
"$  c #2B7C7D",
"%  c #287379",
"&  c #36757B",
"*  c #2D677F",
"=  c #564C5F",
"-  c #714B5B",
";  c #495C6D",
":  c #575769",
">  c #455F72",
",  c #5D5A7C",
"<  c #5A5A72",
"1  c #594C61",
"2  c #6B4E65",
"3  c #6D4D69",
"4  c #774A69",
"5  c #63516A",
"6  c #785766",
"7  c #665775",
"8  c #785676",
"9  c #7B4C71",
"0  c #55646D",
"q  c #446472",
"w  c #496375",
"e  c #496A78",
"r  c #5D637D",
"t  c #586777",
"y  c #4B7C7B",
"u  c #59717C",
"i  c #7C616C",
"p  c #686975",
"a  c #7B7C73",
"s  c #6C6B73",
"d  c #92395A",
"f  c #8A3F65",
"g  c #9C3A65",
"h  c #973F6E",
"j  c #AA386C",
"k  c #A73A68",
"l  c #B33C6B",
"z  c #AB3B71",
"x  c #B43672",
"c  c #BA3D71",
"v  c #B73872",
"b  c #A4425D",
"n  c #AD465F",
"m  c #B95659",
"M  c #B9615F",
"N  c #8A4767",
"B  c #94496A",
"V  c #885766",
"C  c #864B73",
"Z  c #825A79",
"A  c #9A5473",
"S  c #935471",
"D  c #994F6D",
"F  c #AA4867",
"G  c #BB456B",
"H  c #B24A6E",
"J  c #BA4967",
"K  c #A8556B",
"L  c #BC5269",
"P  c #B65968",
"I  c #A44E71",
"U  c #A45571",
"Y  c #99746D",
"T  c #876A71",
"R  c #916872",
"E  c #857A71",
"W  c #8D6768",
"Q  c #A3666C",
"!  c #BA6866",
"~  c #BC7166",
"^  c #B3756A",
"/  c #B17A6C",
"(  c #C5585F",
")  c #DB6A5E",
"_  c #E16F5E",
"`  c #C64B6C",
"'  c #CA5565",
"]  c #C75868",
"[  c #D55D66",
"{  c #D25569",
"}  c #D65B68",
"|  c #D85C67",
" . c #C66C62",
".. c #CD6B63",
"X. c #C76465",
"o. c #DC6565",
"O. c #D46C64",
"+. c #DD6B63",
"@. c #D36465",
"#. c #CA7166",
"$. c #DB7363",
"%. c #E36D63",
"&. c #E67162",
"*. c #E97461",
"=. c #EC7966",
"-. c #EE7C6A",
";. c #17807F",
":. c #36817D",
">. c #4B807C",
",. c #728278",
"<. c #F28472",
"1. c #F68C7B",
"2. c #F58A7A",
"3. c #F8907F",
"4. c #1B7D84",
"5. c #247B81",
"6. c #2B7C84",
"7. c #2C7B87",
"8. c #377884",
"9. c #3C6980",
"0. c #546881",
"q. c #487482",
"w. c #0A8E89",
"e. c #0C8888",
"r. c #138C86",
"t. c #1B8A85",
"y. c #108D88",
"u. c #1C8887",
"i. c #0C938C",
"p. c #039B8E",
"a. c #0B9C8E",
"s. c #04958D",
"d. c #13938B",
"f. c #1A938D",
"g. c #129C8D",
"h. c #129187",
"j. c #019C91",
"k. c #0D9E90",
"l. c #149F91",
"z. c #218B86",
"x. c #288687",
"c. c #388B83",
"v. c #388582",
"b. c #239A8A",
"n. c #0AA28F",
"m. c #03A392",
"M. c #0CA392",
"N. c #01AB94",
"B. c #0BAC95",
"V. c #12A492",
"C. c #11AB94",
"Z. c #1BAA95",
"A. c #01B296",
"S. c #0BB396",
"D. c #02B698",
"F. c #0BB598",
"G. c #02BB99",
"H. c #0BBA99",
"J. c #15BA9A",
"K. c #1BBD9B",
"L. c #17B498",
"P. c #27B89A",
"I. c #36BC9D",
"U. c #27A093",
"Y. c #448080",
"T. c #04C39B",
"R. c #0BC49C",
"E. c #0ECA9E",
"W. c #13C39C",
"Q. c #1BC59E",
"!. c #14CA9E",
"~. c #19CB9F",
"^. c #24C19D",
"/. c #27C79F",
"(. c #36C29E",
"). c #1ACFA0",
"_. c #1DD1A0",
"`. c #16D0A0",
"'. c #24CBA0",
"]. c #2ACDA1",
"[. c #35CDA2",
"{. c #3BCBA1",
"}. c #24D3A2",
"|. c #2CD5A3",
" X c #2CD8A4",
".X c #33D4A3",
"XX c #35DBA5",
"oX c #3ADDA6",
"OX c #3BD4A4",
"+X c #3DE0A7",
"@X c #3FE1A8",
"#X c #44CDA3",
"$X c #44DCA6",
"%X c #47D9A6",
"&X c #55DBA8",
"*X c #45E3A9",
"=X c #4BE5A9",
"-X c #4EE9AB",
";X c #41E1A7",
":X c #55E4AA",
">X c #5AE4AA",
",X c #53EAAC",
"<X c #5BEDAD",
"1X c #5EF0AE",
"2X c #63ECAD",
"3X c #68EFAF",
"4X c #63F2AF",
"5X c #68F0AE",
"6X c #67F4B0",
"7X c #6DF7B1",
"8X c #6EF8B1",
"9X c #71F9B2",
"0X c #FA9484",
/* pixels */
"7X7X8X4X=XXXXX X_.W.V.x.0.R O.=.*.*.*.*.*.*.*.*.*.*.*.*.*.*.*.*.*.*.*.*.*.*.*.$.[ [ %.*.*.*.*. .6 O h.A.G.).,X8X8X8X7X8X7X7X7X7X",
"7X7X7X4X-X*XoX XQ.L.x.q.0.^ O.=.*.*.*.*.*.*.*.*.*.*.*.*.*.*.*.*.*.*.*.*.*.*.*._ o.o.&.*.*.*.*. .6 ; h.N.G.).,X8X8X7X7X7X7X7X7X7X",
"7X7X7X7X6X<X=X.XJ.f.0.C I ] %.*.*.*.*.*.*.*.*.*.*.*.*.*.*.*.*.*.*.*.*.*.*.*.*.*.%.&.&.*.*.*.=...V w d.A.G._.,X8X8X7X7X7X7X7X8X7X",
"7X7X7X8X8X6X=X|.F.u.0.I H { %.*._ *.*.*.*.*.*.*.*.*.*.*.*.*.*.*.*.*.*.*.*.*.*.*.*.*.*.*.*.*.*.O.D t t.m.G.!.=X6X7X8X7X7X7X7X7X7X",
"7X7X8X8X9X1XXX).F.f.0.C H { %.=.*.*.*.*.*.*.*.*.*.*.*.*.*.*.*._ *.*.*.*.*.*.*.*.*.*.*.*.*.*.*.) P i & i.N.R.XX,X6X8X7X7X7X7X7X7X",
"7X7X4X4X1X=X'.R.G.l.q.8 H | %.*.*.*.*.*.*.*.*.*.*.*.*.*.*.*.*.*.*._ *.*.*.*.*.*.*.*.*.*.*.*.*._ X.W e 5.a.F./.$X<X7X7X7X8X7X7X7X",
"4X4X<X=XXX}.R.G.G.C.v.s X.%.*.*.*.*.*.*.*.*.*.*.*.*.*.*.*.*.*.*.*.*.*.*.*.*.*.*.*.*.*.*.*.*.*.*.+.P s + t.a.K.[.,X7X7X7X7X7X7X7X",
"-X=X+X X!.H.V.M.A.C.Y.T #.*.*.*.*.*.*.*.*.*.*.*.*.*.*.*.*.*.*.*.*.*.*.*.*.*.*.*.*.*.*.*.*.*.*.*.%.P 6 w u.g.L.[.:X4X7X7X7X7X7X8X",
" X}.`.R.D.l.v.7.i.f.0.Q +.*.=.*.*.*.*.*.*.*.*.*.*.*.*.*.*.*.*.*.*.*.*.*.*.*.*.*.*.*.*.*.*.*.*._ [ P 6 q 4.g.P.$X,X4X7X7X7X7X7X7X",
"L.L.B.V.f.8.0.0.8.q.R X.%.=.*.*.*.*._ *.*.*.*.*.*.*.*.*.*.*.*.*.*.*.*.*.*.*.*.*.*.*.*.*.*.*.*.$.K 6 0 :.b.P.{.&X<X4X7X7X7X7X7X7X",
"7.7.8.9.0.R I I A U X.%.&.*.*.*.*.*.*.*.*.*.*.*.*.*.*.*.*.*.*.*.*.*.*.*.*.*.*.*.*.*.*.*.*.*.*.#.i q ;.Z.(.OXoX=X4X7X7X7X7X7X7X7X",
"0.0.7 0.A L ' { { | &.=.*.*.*.*.*.*.*.*.*.*.*.*.*.*.*.*.*.*.*.*.*.*.*.*.*.*.*.*.*.*.*.*.*.*.*.#.y ;.m.W.XX-X=X-X4X8X7X7X7X7X7X7X",
"v I I H ] @.o.%.%.%.*.*.*.*.*.*.*.*.*.*.*.*.*.*.*.*.*.*.*.*.*.*.*.*.*.*.*.*.*.*.*.*.*.*.*.*.*.~ >.s.N.E.oX,X1X6X7X7X7X7X7X7X7X8X",
"{ { { | o.%.*.*.*.*.*.*.*.*.*.*.*.*.*.*.*.*.*.*.*.*.*.*.*.*.*.*.*.*.*.*.*.*.*.*.*.*.*._ *.*.*./ :.m.D.E. X=X6X8X8X7X8X7X7X7X7X7X",
"%.%.%.%.%.*.*.*.*.*.*.*.*.*.*.*.*.*.*.*.*.*.*.*.*.*.*.*.*.*.*.*.*.*.*.*.*.*.*.*.*.*.*.*.*.*.*./ :.p.D.T.).XX<X9X9X7X7X7X8X7X7X7X",
"*.*.*.*.*.*.*.*.*.*.*.*.*.*.*.*.*.*.*.*.*.*.*.*.*.*._ *.*._ *.*.*.*.*.*.*.*.*._ *.*.*.*.*.*.*.~ :.p.D.T.E.}.,X6X7X7X7X7X7X7X7X7X",
"*.*.*.*.*.*.*.*.*.*.*.*.*.*.*.*.*.*.*.*.*.*.*.&.*.*.*.*.*.*.*.*.*.*.*.*.*.*.*.*.*.*.*.*.*.*.*.~ >.h.A.T.T.`.+X<X4X4X7X7X7X7X7X7X",
"*.*.*.*.*.*.*.*.*.*.*.*.*.*.*.*.*.&.*.*.*.*.*.*.*.*.*.*.*.*.*.*.*.*.*.*.*.*.*.*.*.*.*.*.*.&.&.~ s ;.g.N.A.H.].oX%X>X5X7X7X7X7X7X",
"*.*.*.*.*.*.*.*.*.*.&.*.*.*.*.*.*.*.*.*.*.*.*.*.*.*.*.*.*.*.*.*.&.*.*.*.*.*.*.*.*.*.&.&.%.%.%.X.Y 0 :.w.p.m.S.J.P.I.>X9X9X7X7X7X",
"*.*.*.*.*.*.*.*.*.*.*.*.*.*.*.*.*.*.*.*.*.*.*.*.*.*.*.&.*.*.*.*.*.*.*.*.*.*.*.*.&.*.&.%.%.%.%.@.M i & ;.w.p.S.J.Z.I.>X9X7X7X7X7X",
"*.*.*.*.*.*.*.*.*.*.*.*.*.*.*.*._ *.*.*.*.*.*.*.*.*.*.*.*.*.*.*.*.*.*.*.*.*.*.*.*.*.*.&.%.%.%.O.M E :.p.p.S./.(.(.#X2X7X7X7X7X7X",
"%.%.*.*.&.*.*.*.*.*.*.*.*.*.*.*.*.*.*.*.*.*.&.*.*.*.*.*.*.*.*.*.*.*.*.*.*.&.*.*.*.*.*.*._ *.%.O.~ a :.n.S.^.$X:X&X&X5X8X8X7X7X7X",
"| o.%.*.*.*.*.*.*.*.*.*.*.*.*.*.*.*.*.*.*.*.*.*.*.*.*.*.*.*.*.*.*.*.*.*.*.*.*.*.*.*.*.*.*.*.*.$.~ a ;.S./.;X<X5X3X3X7X7X7X7X7X7X",
"} o.%.*.*.*.*.*.*.*.*.*.*.*.*.*.*.*.*.*.*.*.*.*.*.*.*.*.*.*.*.*.*.*.*.*.*.*.*.*.*.*.*.*.*.*.*.$.^ ,.b.R.|.-X4X9X9X7X4X4X7X7X7X7X",
"%.%.*.*.*.*.*.*.*.*.*.*.*.*.*.*.*.*.*.*.*.*.*.*.*.*.*.*.*.*.*.*.=.=.=.=.=.*.*.*.*.*.*.*.*.*.*.$.^ ,.b.D.).oX6X9X9X5X,X-X4X7X7X7X",
"=.*.*.*.*.*.*.*.*.*.*.*.=.*.*.*.*.*.*.*.*.*.*.*.*.*.*.*.*.*.*.*.=.=.=.=.*.*.=.=.=.<.*.=.=.*.*.$.~ E c.g.C.^.%X>X<X,X=X,X4X7X9X7X",
"*.*.*.*.*.*.*.*.*.*.=.=.<.=.=.*.*.*.*.*.*.*.*.*.*.*.*.*.*.*.*.*.=.*.*.*.*.=.-.<.1.1.2.<.<.=.*._ ..Q p & 4.f.Z.^..X;X,X4X7X7X7X7X",
"*.*.&.*.*.*.*.*.*.*.=.-.-.-.=.*.*.*.*.*.*.*.*.*.*.*.*.*.*.*.*.*.*.*.*.*.*.=.<.1.0X0X3.1.<.*.*.*.) ! Z > 9.4.V.Q.|.;X4X8X7X7X7X7X",
"*.*.*.*.*.*.*.*.*.*.*.*.=.=.*.*.*.*.*.*.*.*.*.*.*.*.*.*.*.*.*.*.*.*.*.*.*.=.<.3.3.0X0X1.<.=.*.*._ X.K 7 9.z.P.oX-X2X7X7X7X7X7X7X",
"*.*.&.*.*.*.*.*.*.*.*.*.*.*.*.*.*.*.*.*.*.*.*.*.*.*.*.*.*.*.*.*.*.*.*.*.&.=.<.1.1.1.3.2.<.<.=.&.$.! R t 6.U.#X,X6X9X7X7X7X7X7X7X",
"*.*.*.*.*.*.*.*.*.*.*.*.&.*.*.*.*.*.*.*.*.*.*._ *.*.*.*.*.*.*.*.*.*.*.*.*.*.-.-.<.<.<.<.=.*.*.&. .Y y z.M.P.=X4X8X8X7X9X7X7X7X7X",
"*.*.*.*.*.*.*.*.*.*.*.*.*.*.*.*.*.*.*.*.*.*.*.*.*.*.*.*.*.*.&.*.*.*.*.*.=.=.*.-.=.<.*.=.*.*.*.$.^ E :.n.A.Q.,X8X8X7X7X7X7X7X7X7X",
"*.*.*.*.*.*.*.*.*.*.*.*.*.*.*.*.*.*.*.*.*.*.*.*.*.=.=.=.*.*.*.*.*.=.=.-.-.-.-.-.=.*.*.*.*.*.*.$.#.E c.n.A.!.=X4X7X8X8X8X7X7X7X7X",
"*.*.*.*.*.*.*.*.*.*.*.*.*.*.*.*.*.*.*.&.*.*.*.*.*.*.=.=.*.*.*.*.=.<.<.<.<.<.<.<.<.=.=.*.*.*.*.&.#.Y >.z.n.L.(.=X,X1X6X8X7X7X7X8X",
"*.*.*.*.*.*.*.*.*.*.*.*.*.*.*.&.*.*.*.*.*.*.*.*.*.*.=.=.=.*.*.=.<.2.1.0X0X0X0X1.1.<.=.*.*.*.*.&.%.! W e $ h.Z.P.|.*X1X8X8X7X7X7X",
"*.*.&.*.*.*.*.*.*.*.*.*.*.*.*.*.*.*.*.*.*.*.*.*.*.=.=.=.*.*.*.=.2.0X0X0X0X0X0X0X3.2.=.*.*.*.*.*.%.] V : % r.n.L./.+X1X8X8X7X7X7X",
"*.*.*.*.*.*.*.*.*.*.*.*.*.*.*.*.*.*.*.*.*.*.*.*.*.*.*.*.*.&.*.=.1.0X0X0X0X0X0X0X0X1.-.*.*.*.*.&.) P 6 ; X h.C.Q.|.=X4X8X8X7X7X7X",
"*.*.*.*.*.*.*.*.*.*.*.%.*.*.*.*.*.*.*.*.*.*.*.*.*.*.*.*.*.*.*.=.2.0X0X0X0X0X0X0X3.<.-.*.*.*.&.+.m W 0 % d.B.^..X=X1X4X7X7X7X7X8X",
"*.*.*.*.*.*.*.*.*.*.+.%.*.*.*.*.*.*.*.*.*.*.*.*.*.*.*.*.*.*.*.=.-.<.1.1.1.1.0X2.<.<.*.*.*.*.%.X.V 0 :.a.N.W.$X2X4X4X7X7X7X7X7X7X",
"*.*.*.*.*.*.*.*.*.%.+.+.%.*.*.*.*.*.*.*.*.*.*.*.*.*.*.*.*.*.%.%.=.-.<.<.<.<.<.<.-.=.*.*.*.&.+.P - O a.A.T.).,X9X9X8X7X7X8X7X7X7X",
"*.*.*.*.*.*.*.*.*.%.%.+.%.*.*.*.*.*.*.*.*.*.*.*.*.*.*.*.*.*.o.o.%.=.=.=.=.=.=.=.*.*.*.*.*.%.} H - O h.A.G._.,X9X8X8X7X7X8X7X7X7X",
"*.*.*.*.*.*.*.*.*.&.%.%.&.*.*.*.*.*.*.*.*.*.*.*.*.*.*.*.*._ o.o.&.*.*.*.*.*.*.*.*.*.&.&.%.o.` F 4 q h.N.G.~.-X7X7X8X7X7X7X7X7X7X",
"*.*.*.*.*.*.*.*.*.*.%.*.*.*.*.*.*.*.*.*.*.*.*.*.*.*.*.*.*.*.*._ *.*.*.*.&.*.*.*.=.%.+.o.} { G z N , x.p.A.!.*X4X7X7X7X7X7X7X7X8X",
"_ *.*.*.*.*.*._ *.%.*.*.*.*.*.*.*.*.*.*.*.*.*.*.*.*.*.*.*.*.*.*.*.*.&.%.&.&.&.%.%.%.} ' ` ` v x h 7 & h.m.J.XX,X6X8X7X7X7X7X7X7X",
"*.*.*.*.*.%.%.| o.+.%.%.*.*.*.*.*.*.*.*.*.*.*.*.*.*.*.*.*.*.*.*.%.%.+.o.+.o.o.o.%.} ` c c c x j k 4 : % r.V./.+X1X8X8X7X7X7X7X7X",
"&.%.&.%.%.%.} ' ' ' ' @.o.%.%.%.*.*.*.*._ %.%.%.) ) ) ) ) %.%.%.+.[ [ ' ' ' ' ' ' ` c v x x x k d f = . 4.i.J..X,X7X7X7X8X7X7X7X",
"| o.@.} | ` ` k b b n J ' { { | %.*.*.*.o.[ { ' ( m m m m ( ) %.' J G l l n b b b b j v x x k g d - = . o e.M.P.=X4X7X8X7X7X7X7X",
"L L L L K D C 4 3 2 4 N F H H ` X.O. .X.] L H I W 6 6 6 6 K P P F D C 9 4 3 2 2 2 4 h j x j g   - = . % 4.w.m.K.XX:X1X6X7X7X7X8X",
"N B N 6 t & 8.5.4.% + > 3 N B B D S V S B B 8 r 8.5.x.$ & 0 V B 9 0.8.5.5.5.5.4.4.+ 5 f k g f 5 % ;.h.n.N.S.D.W.}.+X-X4X7X8X7X7X",
"< < < w 5.h.k.M.j.j.w.z.q < 7 7 0., > > 5 5 0.x.w.j.j.s.w.$ < 5 0.7.i.j.j.j.j.j.j.y.q 5 4 4 5 + ;.m.A.G.T.E.).}.XXXX=X<X4X8X7X7X",
"6.6.6.z.a.F.].].).H.N.a.u.5.7.x.f.f.d.t.@ @ f.M.A.G.A.A.N.a.6.@ y.M.N.G.A.A.N.N.N.j.t.@ > . @ t.N.G.G.T.). X+X=X,X,X,X<X4X8X7X7X",
"k.i.i.k.F.).;X=XXX'.!.F.M.a.p.k.B.D.A.m.e.w.N.H.R.!.!.E.R.B.y.e.B.T.T.T.R.R.H.F.F.B.n.w.X 4.h.B.J.E.!.). X*X,X1X7X7X4X1X7X7X8X7X",
"j.m.m.B.Q.XX,X1X-X+X XQ.D.A.N.H.).).G.N.s.s.F.). XoXoXXX}.Q.i.k.K.).R.T.).'.^.P.P.K.F.N.j.p.m.H.].+X+X+X=X1X4X7X7X7X7X4X7X7X7X7X",
"J.J.J.Q.XX=X6X7X4X,X*X|.W.D.H.Q.XXoX}.K.B.C.'.oX=X,X,X-X=X[.Z.Z.[.XX_._.XX$XOX#X#X[.'.Q.Q.J.H.~.;X-X,X<X4X4X7X8X7X8X7X7X7X7X7X7X",
"%X=X%X=X<X6X6X7X7X4X,XoXK.K.(.OX,X1X,X*X].].=X<X4X4X7X4X1X:XI.I.$X=X@X*X,X2X2X<X2X>X,X,X,X$X}.|.,X7X4X4X4X8X8X7X7X7X7X8X7X7X7X7X",
"6X6X6X6X7X7X7X7X8X4X4X,X(.(.#X&X3X7X7X,XXXoX<X9X8X8X7X8X8X2X&X%X,X<X<X6X7X7X9X9X7X7X7X9X9X1X@XoX,X4X8X8X8X8X7X7X7X7X7X7X7X7X7X7X",
"4X4X4X4X7X8X7X7X8X7X7X<X:X&X>X2X7X6X-X*XoX;X<X9X7X9X7X7X7X7X3X2X6X7X7X6X7X7X8X8X8X8X8X8X8X6X,X=X=X,X4X7X8X7X7X7X7X7X8X7X7X7X7X7X",
"4X4X4X4X7X7X7X7X7X8X8X7X5X2X2X2X7X2X-X*X*X,X4X7X7X7X7X7X7X7X7X8X7X7X7X7X7X7X7X7X7X7X7X7X7X7X4X,X=X-X4X7X7X7X8X7X7X7X7X7X7X7X7X8X",
"7X7X7X7X7X7X8X7X7X7X7X7X7X5X5X7X7X7X6X6X6X6X7X7X7X7X7X7X7X7X8X8X7X7X7X7X7X7X7X7X8X7X7X7X7X7X6X6X1X4X7X7X7X7X7X7X7X7X7X7X8X7X7X7X",
"7X7X7X7X7X7X7X7X8X7X7X7X7X7X7X7X7X7X7X7X7X7X7X7X7X7X7X7X7X7X7X8X7X7X7X7X7X7X7X7X7X7X7X7X7X7X7X7X8X8X7X8X7X7X7X7X7X8X7X7X7X7X7X7X",
"7X7X7X7X8X7X7X7X7X8X7X7X7X7X7X7X7X7X9X7X9X7X9X7X7X7X7X7X7X7X7X7X7X7X8X7X7X7X8X7X7X7X7X7X7X7X7X7X7X7X7X7X7X7X7X8X7X7X7X7X7X7X7X7X",
"7X7X7X7X7X7X7X7X7X7X7X7X8X7X7X7X7X7X7X7X7X7X7X7X7X9X7X7X7X8X7X7X7X7X7X7X7X7X7X7X7X7X8X7X8X7X7X7X8X7X7X7X7X7X7X7X7X7X8X7X7X7X7X8X",
"7X7X7X7X7X7X7X8X7X7X7X7X7X7X7X8X7X7X7X7X7X7X7X7X7X7X7X7X7X7X7X7X7X7X7X7X7X8X7X7X7X7X7X7X7X7X7X8X7X7X7X7X7X8X7X7X7X7X7X7X8X7X7X7X",
"7X7X7X7X7X7X7X7X7X7X8X7X7X7X7X7X7X7X7X7X7X7X7X7X7X7X7X7X7X7X7X7X8X7X7X7X7X7X7X7X7X8X7X7X7X7X7X7X7X7X7X8X7X7X7X7X8X7X7X7X7X7X7X7X"
};
