/* XPM */
static char *result[] = {
/* columns rows colors chars-per-pixel */
"64 64 220 2 ",
"   c #3D2719",
".  c #392D24",
"X  c #3D352A",
"o  c #383D39",
"O  c #481401",
"+  c #521600",
"@  c #511A00",
"#  c #4B210C",
"$  c #5B2509",
"%  c #492815",
"&  c #562C15",
"*  c #642403",
"=  c #6A2B0C",
"-  c #63270A",
";  c #742C04",
":  c #752D09",
">  c #7D320B",
",  c #71300E",
"<  c #6C2D11",
"1  c #6A3216",
"2  c #733113",
"3  c #722E11",
"4  c #44352B",
"5  c #583B2A",
"6  c #423B34",
"7  c #433A34",
"8  c #3D443B",
"9  c #45423A",
"0  c #764C36",
"q  c #1A4A49",
"w  c #3D4846",
"e  c #3A5352",
"r  c #375A59",
"t  c #2F5958",
"y  c #3A605E",
"u  c #2F6D6D",
"i  c #316A6A",
"p  c #3A6664",
"a  c #377676",
"s  c #444A48",
"d  c #574E45",
"f  c #475857",
"g  c #41534C",
"h  c #745343",
"j  c #6D5748",
"k  c #7C6A58",
"l  c #6A6158",
"z  c #495E63",
"x  c #4C676B",
"c  c #536569",
"v  c #4A7879",
"b  c #5A787C",
"n  c #506D72",
"m  c #696C6D",
"M  c #776D66",
"N  c #73786B",
"B  c #667778",
"V  c #7A7C7A",
"C  c #636F75",
"Z  c #48615E",
"A  c #83350D",
"S  c #89390E",
"D  c #873A14",
"F  c #903C14",
"G  c #8E421E",
"H  c #93441C",
"J  c #98451A",
"K  c #A44C1D",
"L  c #AA4D1D",
"P  c #B54F1C",
"I  c #8E4421",
"U  c #8C4C2B",
"Y  c #9B4921",
"T  c #944C2A",
"R  c #9C4E2A",
"E  c #974822",
"W  c #97512E",
"Q  c #8C4E31",
"!  c #895235",
"~  c #9A5635",
"^  c #A54D23",
"/  c #AA4F22",
"(  c #A44F28",
")  c #AD5225",
"_  c #A4522B",
"`  c #AB542B",
"'  c #AA552A",
"]  c #B35526",
"[  c #B35629",
"{  c #B45A2D",
"}  c #BA5B2C",
"|  c #B85729",
" . c #A35532",
".. c #AB5732",
"X. c #AD5A35",
"o. c #A35B3C",
"O. c #AD5D3B",
"+. c #A35937",
"@. c #B55C34",
"#. c #B95E34",
"$. c #B25D3A",
"%. c #BC5F39",
"&. c #AA603E",
"*. c #B3613E",
"=. c #BB633D",
"-. c #BB6133",
";. c #C15D2D",
":. c #C3612F",
">. c #C46232",
",. c #CC6533",
"<. c #C2643B",
"1. c #CA6738",
"2. c #CC6A3B",
"3. c #C6693A",
"4. c #D26D3C",
"5. c #D76D3B",
"6. c #DA703D",
"7. c #8B6F57",
"8. c #B56342",
"9. c #BA6644",
"0. c #BD6946",
"q. c #BB6A4A",
"w. c #B86A4B",
"e. c #BD714F",
"r. c #B67252",
"t. c #AF6A4B",
"y. c #97796A",
"u. c #8E7262",
"i. c #A77E6A",
"p. c #915841",
"a. c #C36A46",
"s. c #CB6D45",
"d. c #C56D49",
"f. c #CB6E49",
"g. c #C16640",
"h. c #D06E42",
"j. c #D26F48",
"k. c #CD7145",
"l. c #CC724A",
"z. c #C8734D",
"x. c #D37245",
"c. c #DB7444",
"v. c #D37249",
"b. c #D9774C",
"n. c #CA7853",
"m. c #C87A58",
"M. c #E37A4A",
"N. c #C77C60",
"B. c #728277",
"V. c #9B887E",
"C. c #8E837F",
"Z. c #AE816A",
"A. c #B1836A",
"S. c #A78D7D",
"D. c #B5917D",
"F. c #B9927E",
"G. c #B28F7C",
"H. c #EE814F",
"J. c #597D82",
"K. c #4E7D81",
"L. c #637B83",
"P. c #807F80",
"I. c #378D8F",
"U. c #478788",
"Y. c #568B8D",
"T. c #598688",
"R. c #548E92",
"E. c #489698",
"W. c #529394",
"Q. c #56989B",
"!. c #4A8F95",
"~. c #678588",
"^. c #73898E",
"/. c #658D93",
"(. c #6C8B93",
"). c #6B8C96",
"_. c #718C94",
"`. c #708591",
"'. c #6D939B",
"]. c #68959B",
"[. c #72929B",
"{. c #539DA1",
"}. c #699BA3",
"|. c #709AA2",
" X c #4CA2A4",
".X c #4BAAAC",
"XX c #5AA7AB",
"oX c #5CACB2",
"OX c #55ADB2",
"+X c #4CB3B6",
"@X c #57B6BA",
"#X c #67A6AA",
"$X c #65ABB2",
"%X c #68A9B1",
"&X c #65B6BB",
"*X c #64B4B9",
"=X c #70AAB1",
"-X c #57BDC1",
";X c #63BDC3",
":X c #5CCACD",
">X c #57C4C7",
",X c #5CCCD2",
"<X c #59D8DC",
"1X c #4AC9CA",
"2X c #63C5CA",
"3X c #62D5DA",
"4X c #62D8DC",
"5X c #66CCD2",
"6X c #5DDDE1",
"7X c #5CE2E4",
"8X c #5BE6E9",
"9X c #5AEBEC",
"0X c #54E6E8",
"qX c #57F6F8",
"wX c #58EFF0",
"eX c #67EAF0",
"rX c #819293",
"tX c #858281",
"yX c #A08980",
"uX c None",
/* pixels */
"uXuXuXuXuXuXuXuXuXuXuXuXuXuXuXuXuXuXuXuXuXuXuXuXuXuXuXuXuXuXB._.rXrX[.^.~.uXuXuXuXuXuXuXuXuXuXuXuXuXuXuXuXuXuXuXuXuXuXuXuXuXuXuX",
"uXuXuXuXuXuXuXuXuXuXuXuXuXuXuXuXuXuXuXuXuXuXuXuXuXuXuXT.W.Q.I.I.U.!.U.U.E.{.Q.Y.uXuXuXuXuXuXuXuXuXuXuXuXuXuXuXuXuXuXuXuXuXuXuXuX",
"uXuXuXuXuXuXuXuXuXuXuXuXuXuXuXuXuXuXuXuXuXuXuXuXuX~.Y.W. X.X>X-XoXoXoX-X>X+X XE.Y.T.uXuXuXuXuXuXuXuXuXuXuXuXuXuXuXuXuXuXuXuXuXuX",
"uXuXuXuXuXuXuXuXuXuXuXuXuXuXuXuXuXuXuXuXuXuXuX~.W. X.XoXoX*X2X2X$X'.}.;X:X&X$XoXOX XW.T.uXuXuXuXuXuXuXuXuXuXuXuXuXuXuXuXuXuXuXuX",
"uXuXuXuXuXuXuXuXuXuXuXuXuXuXuXuXuXuXuXuXuXuXY.W.XX@X:X&X#X].Q.!.v x n U.{.].].%X:X>X.XW.Y./.uXuXuXuXuXuXuXuXuXuXuXuXuXuXuXuXuXuX",
"uXuXuXuXuXuXuXuXuXuXuXuXuXuXuXuXuXuXuXuXuX{.+XOX$X*X&XoXK.z g 8 .   . X g x n {.@X&X%XoX+X X].uXuXuXuXuXuXuXuXuXuXuXuXuXuXuXuXuX",
"uXuXuXuXuXuXuXuXuXuXuXuXuXuXuXuXuXuXuXuXR.OX>X2X#X/.T.p 8   % $ * * * $ % % X y K.Y.}.&X:X@XQ./.uXuXuXuXuXuXuXuXuXuXuXuXuXuXuXuX",
"uXuXuXuXuXuXuXuXuXuXuXuXuXuXuXuXuXuXuXY.{.%X*X&XW.f 6 % $ - > J Y J H G > * - % X e B.oX&X$XXXQ./.uXuXuXuXuXuXuXuXuXuXuXuXuXuXuX",
"uXuXuXuXuXuXuXuXuXuXuXuXuXuXuXuXuXuXU.OX$X'.|.Y.e % $ , D J L >.g.8.8.$.Y K J A $ # 8 v ].|.#XoXQ.T.uXuXuXuXuXuXuXuXuXuXuXuXuXuX",
"uXuXuXuXuXuXuXuXuXuXuXuXuXuXuXuXuXJ.I.,X*X|.B 9 & ; D R *.@.] 1.l.q.d.*.) :.5.@.F > - 4 c (.%X:X XU.uXuXuXuXuXuXuXuXuXuXuXuXuXuX",
"uXuXuXuXuXuXuXuXuXuXuXuXuXuXuXuXuXv +X2X&XY.9 $ S ] -.9.a.-.[ 1.a.9.q.$.( :.c.s.=.[ H $ 4 n XX2X+X!.B.uXuXuXuXuXuXuXuXuXuXuXuXuX",
"uXuXuXuXuXuXuXuXuXuXuXuXuXuXuXuXT.a 2X|.].r # > L 6.v.a.a.$.[ 1.k.9.q.8.' :.x.l.j.4.) A $ 9 T.}.&XE.T.uXuXuXuXuXuXuXuXuXuXuXuXuX",
"uXuXuXuXuXuXuXuXuXuXuXuXuXuXuXuXp +X=X[.n 4 * J ] 6.v.s.a.#.) 1.z.a.d.$._ >.k.f.j.s.[ / S & f (.#XOXW.uXuXuXuXuXuXuXuXuXuXuXuXuX",
"uXuXuXuXuXuXuXuXuXuXuXuXuXuXuXn I.3X&XQ.s # D _ ] 4.v.d.d.@.) 1.x.s.f.*.( >.x.a.s.s.[ | ) 1 6 J.$X5X XU.uXuXuXuXuXuXuXuXuXuXuXuX",
"uXuXuXuXuXuXuXuXuXuXuXuXuXuXuXt <X;X-XK.% =  .X.) 4.l.s.s.@.) 1.x.s.f.*.( >.j.a.f.a.' } >.D % x XX;X>XK.uXuXuXuXuXuXuXuXuXuXuXuX",
"uXuXuXuXuXuXuXuXuXuXuXuXuXuXuXq eX'.}.e O I *.X.] 4.j.f.a.$.` 1.v.s.f.8.( >.x.a.a.a.' #.s.( - o T.#X5Xa uXuXuXuXuXuXuXuXuXuXuXuX",
"uXuXuXuXuXuXuXuXuXuXuXuXuXuXuXq eX[.~.o + _ q.X.) 4.f.a.a.O./ 1.v.s.f.8.( >.x.0.a.a.[ } h.$.3 4 n (.;Xa uXuXuXuXuXuXuXuXuXuXuXuX",
"uXuXuXuXuXuXuXuXuXuXuXuXuXuXuXI.5X}.x   : X.q...) 4.f.a.q.X.` 1.x.s.f.$.' >.k.q.d.a.{ ;.h.8.D % f /.;X.Xv uXuXuXuXuXuXuXuXuXuXuX",
"uXuXuXuXuXuXuXuXuXuXuXuXuXuXuX0X,X-Xp O / g.9...) 4.d.a.0.X.` 1.c.f.f.=.( >.k.a.d.s.` } h.0.R - w {.:X0Xa uXuXuXuXuXuXuXuXuXuXuX",
"uXuXuXuXuXuXuXuXuXuXuXuXuXuXuX9X*XoXe + ,.b.w.X.[ h.d.q.0.X.[ 4.v.d.f.9.) >.b.q.f.a.{ ;.h.d.X.= o R.&X8Xi uXuXuXuXuXuXuXuXuXuXuX",
"uXuXuXuXuXuXuXuXuXuXuXuXuXuXuX7X[.].d @ [ <. .T J } $.+. .R J | %...$.' J / %.....X.E / #.O.R = 7 L.].4Xu uXuXuXuXuXuXuXuXuXuXuX",
"uXuXuXuXuXuXuXuXuXuXuXuXuXuXuX7X`.~.0 S ] ] ) ^ K ] ] ) ) ) / ) ] ) ] / L / ] ) / ) K / ) [ L J Q N ^.3Xi uXuXuXuXuXuXuXuXuXuXuX",
"uXuXuXuXuXuXuXuXuXuXuXuXuXuXuX9X$XB.) 6.2.4.l.2.,.2.2.k.k.2.2.2.2.k.k.2.1.4.2.s.l.2.1.1.2.l.s.4.' 7.}.0Xi uXuXuXuXuXuXuXuXuXuXuX",
"uXuXuXuXuXuXuXuXuXuXuXuXuXuXuXwX@XN P H.z.v.A.m.z.f.n.m.m.f.f.z.z.m.N.z.f.k.f.m.N.n.l.f.l.m.m.l.[ k #XwXu uXuXuXuXuXuXuXuXuXuXuX",
"uXuXuXuXuXuXuXuXuXuXuXuXuXuXuX8X].B.( } _  .~ _ _ R _  . ._ _ _  .~ +. ._ _ R +.~ _ _ _ ~ +. . .~ k [.6Xi uXuXuXuXuXuXuXuXuXuXuX",
"uXuXuXuXuXuXuXuXuXuXuXuXuXuXuX6X(.(.d * ; ; ; ; : ; ; ; ; ; ; ; : ; = , : ; ; ; ; ; : ; , : > = 0 B (.3Xi uXuXuXuXuXuXuXuXuXuXuX",
"uXuXuXuXuXuXuXuXuXuXuXuXuXuXuX6X`./.s O / { T I J ) ' R R E H ) [ _ T T G ) [ _ R R E J T W U $ o b [.5Xi uXuXuXuXuXuXuXuXuXuXuX",
"uXuXuXuXuXuXuXuXuXuXuXuXuXuXuXqX7X<Xi + ,.b.8.X.) 6.b.d.0.+.T 1.c.s.d.&.U ' c.v.a.8.W  .X.~ Q & 8 E.:X1Xi uXuXuXuXuXuXuXuXuXuXuX",
"uXuXuXuXuXuXuXuXuXuXuXuXuXuXuX8X#XXXr + ,.b.8...] 5.v.d.0.+.W 2.b.a.e.*._ } c.l.a.9.T X.0.a.8.1 8 Y.Q.,Xi uXuXuXuXuXuXuXuXuXuXuX",
"uXuXuXuXuXuXuXuXuXuXuXuXuXuXuX6X`./.w @ ,.z.p.W ] 4.l.a.0.o.R -.x.s.a.*.R -.c.k.d.8.T ' 3.q.%.2 o b J. Xi uXuXuXuXuXuXuXuXuXuXuX",
"uXuXuXuXuXuXuXuXuXuXuXuXuXuXuX7X`.(.w @ -.u.n h J 6.v.s.a.$.@.4.x.k.s.*.R -.x.l.l.8.U ' =.9.%.1 7 L.L.-Xi uXuXuXuXuXuXuXuXuXuXuX",
"uXuXuXuXuXuXuXuXuXuXuXuXuXuXuX6X)./.w @ -.u.C j H 4.z.a.a.~ U #.x.d.s.*.R { x.s.d.9.T -.a.o.~ 1 . n L. Xi uXuXuXuXuXuXuXuXuXuXuX",
"uXuXuXuXuXuXuXuXuXuXuXuXuXuXuXqXqX0Xa @ ,.e.h ! ] 4.f.d.f.$...1.f.a.j.g._ ,.x.a.f.d.[ #.M.v.%.2 g -XqXqXi uXuXuXuXuXuXuXuXuXuXuX",
"uXuXuXuXuXuXuXuXuXuXuXuXuXuXuX6X)./.w @ ,.z.h Q ] 4.f.q.a.$.) 1.s.a.v.=.( >.j.d.s.8._ } c.c.<.< 4 J.].<Xi uXuXuXuXuXuXuXuXuXuXuX",
"uXuXuXuXuXuXuXuXuXuXuXuXuXuXuX6X)./.w @ 1.e.h Q ] 4.d.q.a.@.' 1.s.d.j.=.( >.h.a.d.9._ } 6.v.%.< X b [.3Xi uXuXuXuXuXuXuXuXuXuXuX",
"uXuXuXuXuXuXuXuXuXuXuXuXuXuXuX6X)./.w @ ,.e.h W ] 4.d.g.d.#.[ 1.f.a.v.=.( :.x.d.d.9._ } h.j.#.< 7 b |.4Xi uXuXuXuXuXuXuXuXuXuXuX",
"uXuXuXuXuXuXuXuXuXuXuXuXuXuXuX9X&X@Xr @ ,.e.j Q ] 4.d.0.d.%.[ 1.s.a.j.9.( :.k.f.j.g._ | h.j.%.3 o Q.&X9Xi uXuXuXuXuXuXuXuXuXuXuX",
"uXuXuXuXuXuXuXuXuXuXuXuXuXuXuXqX,X>Xp + -.r.l 0 / 4.d.q.9.@.[ 1.s.d.v.<.) :.x.j.j.a.' | 4.v.<.3 w  X,XqXi uXuXuXuXuXuXuXuXuXuXuX",
"uXuXuXuXuXuXuXuXuXuXuXuXuXuXuX7X(.).w + -.u.C j Y 4.d.9.9.%.] 1.f.a.l.=.( >.x.x.j.a.' } h.v.-.2 4 b ).3Xi uXuXuXuXuXuXuXuXuXuXuX",
"uXuXuXuXuXuXuXuXuXuXuXuXuXuXuX7X_./.w + >.r.l ! / 4.d.q.a.@.[ 2.f.0.a.*.( >.c.s.f.a.' | s.f.$.< 6 b [.3Xi uXuXuXuXuXuXuXuXuXuXuX",
"uXuXuXuXuXuXuXuXuXuXuXuXuXuXuX8X#X}.e @ ,.b.o.+.] 4.d.q.0.#.] 2.f.8.q.$._ >.c.s.d.g.' } k.z.@.= 6 Y.=X7Xi uXuXuXuXuXuXuXuXuXuXuX",
"uXuXuXuXuXuXuXuXuXuXuXuXuXuXuXwX:X-Xr + ,.b.8.X.) 2.d.q.a.@.] 1.s.q.q.*.( >.M.d.d.3.' } 2.z.O.< w  X2XwXu uXuXuXuXuXuXuXuXuXuXuX",
"uXuXuXuXuXuXuXuXuXuXuXuXuXuXuX8X$XoXe + >.v.8. .) 3.a.8.9.@.) <.a.8.q.O.^ :.c.a.g.g.` } 2.0.X.= 6 W.*X8Xu uXuXuXuXuXuXuXuXuXuXuX",
"uXuXuXuXuXuXuXuXuXuXuXuXuXuXuX6X`.~.d * | <..._ ^ } -.&.@.( ^ } %.X.@. .Y { >.-.$.@./ ) } *._ > 5 C _.3Xi uXuXuXuXuXuXuXuXuXuXuX",
"uXuXuXuXuXuXuXuXuXuXuXuXuXuXuX8X].B.! L | } #.{ ] } } } } { ] | { { #.{ ] { } } @.{ ] | } #.} ) W M ].<Xi uXuXuXuXuXuXuXuXuXuXuX",
"uXuXuXuXuXuXuXuXuXuXuXuXuXuXuXwX$XB.P H.k.l.n.l.2.k.k.z.z.k.4.k.s.l.n.x.4.4.2.z.n.s.h.h.k.n.l.x.} 7.}.8Xi uXuXuXuXuXuXuXuXuXuXuX",
"uXuXuXuXuXuXuXuXuXuXuXuXuXuXuXwX@XB.L c.=.w.r.0.=.=.9.r.w.=.=.=.0.r.w.9.8.9.8.q.r.q.9.8.9.r.w.9.) k #X9Xi uXuXuXuXuXuXuXuXuXuXuX",
"uXuXuXuXuXuXuXuXuXuXuXuXuXuXuX7X_.B.! H G G G G G G G I I G G G H I I I H H H I I H F G G G I G 0 M [.4Xi uXuXuXuXuXuXuXuXuXuXuX",
"uXuXuXuXuXuXuXuXuXuXuXuXuXuXuX8X).).d + S F A > A A D A A > > S A D S > > A S A D A > A A D A * 9 B.Q.<Xi uXuXuXuXuXuXuXuXuXuXuX",
"uXuXuXuXuXuXuXuXuXuXuXuXuXuXuX8X$X$Xe O ] #.' Y J ] .. ._ E J ' ` ....( H ^ { ..' _ J K [ ' Y - 9 B.$X7Xi uXuXuXuXuXuXuXuXuXuXuX",
"uXuXuXuXuXuXuXuXuXuXuXuXuXuXuXwX;X-Xy + ,.M.a.@./ h.f.a.a.X.) 1.v.f.k.=.( :.v.s.f.g._ } 2.d.O.< 8 Q.2XwXu uXuXuXuXuXuXuXuXuXuXuX",
"uXuXuXuXuXuXuXuXuXuXuXuXuXuXuX8X%X{.e @ ,.M.g.@.] 4.f.d.g.O.' 1.x.f.l.=.( >.v.d.f.g.' } k.d.$.< 8 Y.%X7Xi uXuXuXuXuXuXuXuXuXuXuX",
"uXuXuXuXuXuXuXuXuXuXuXuXuXuXuX8X_.'.w + ,.M.a.%.[ 5.l.d.q.X.` 4.c.f.f.g.) >.v.d.d.0.( } k.d.$.< o b |.4Xi uXuXuXuXuXuXuXuXuXuXuX",
"uXuXuXuXuXuXuXuXuXuXuXuXuXuXuX,XL.J.o O ;.h.$...K ,.2.*.$._ ^ :.h.%.g.#.K | 1.%.8.$.Y ) >.=._ - . n ~.-Xa uXuXuXuXuXuXuXuXuXuXuX",
"uXuXuXuXuXuXuXuXuXuXuXuXuXuXuX!.c c w % +.8.o.! U O.*.&.o.Q Q o.8.&.&.+.Q ~ O.t.o.o.Q W $.8.~ 5 X f c U.b uXuXuXuXuXuXuXuXuXuXuX",
"uXuXuXuXuXuXuXuXuXuXuXuXuXuXuXB m m m M i.A.A.Z.y.i.Z.Z.Z.i.y.i.A.A.i.i.y.y.i.Z.A.i.y.y.i.A.y.u.m m N V uXuXuXuXuXuXuXuXuXuXuXuX",
"uXuXuXuXuXuXuXuXuXuXuXuXuXuXuXy.V y.L.tXyXyXF.yXV.G.D.F.F.S.V.yXD.D.D.G.V.S.G.D.F.yXyXyXF.F.G.tXtXV V tXuXuXuXuXuXuXuXuXuXuXuXuX",
"uXuXuXuXuXuXuXuXuXuXuXuXuXuXuXuXuXuXuXuXuXuXuXuXuXuXuXuXuXuXuXuXuXuXuXuXuXuXuXuXuXuXuXuXuXuXuXuXuXuXuXuXuXuXuXuXuXuXuXuXuXuXuXuX",
"uXuXuXuXuXuXuXuXuXuXuXuXuXuXuXuXuXuXuXuXuXuXuXuXuXuXuXuXuXuXuXuXuXuXuXuXuXuXuXuXuXuXuXuXuXuXuXuXuXuXuXuXuXuXuXuXuXuXuXuXuXuXuXuX",
"uXuXuXuXuXuXuXuXuXuXuXuXuXuXuXuXuXuXuXuXuXuXuXuXuXuXuXuXuXuXuXuXuXuXuXuXuXuXuXuXuXuXuXuXuXuXuXuXuXuXuXuXuXuXuXuXuXuXuXuXuXuXuXuX",
"uXuXuXuXuXuXuXuXuXuXuXuXuXuXuXuXuXuXuXuXuXuXuXuXuXuXuXuXuXuXuXuXuXuXuXuXuXuXuXuXuXuXuXuXuXuXuXuXuXuXuXuXuXuXuXuXuXuXuXuXuXuXuXuX",
"uXuXuXuXuXuXuXuXuXuXuXuXuXuXuXuXuXuXuXuXuXuXuXuXuXuXuXuXuXuXuXuXuXuXuXuXuXuXuXuXuXuXuXuXuXuXuXuXuXuXuXuXuXuXuXuXuXuXuXuXuXuXuXuX",
"uXuXuXuXuXuXuXuXuXuXuXuXuXuXuXuXuXuXuXuXuXuXuXuXuXuXuXuXuXuXuXuXuXuXuXuXuXuXuXuXuXuXuXuXuXuXuXuXuXuXuXuXuXuXuXuXuXuXuXuXuXuXuXuX",
"uXuXuXuXuXuXuXuXuXuXuXuXuXuXuXuXuXuXuXuXuXuXuXuXuXuXuXuXuXuXuXuXuXuXuXuXuXuXuXuXuXuXuXuXuXuXuXuXuXuXuXuXuXuXuXuXuXuXuXuXuXuXuXuX"
};
