/* XPM */
static char *result[] = {
/* columns rows colors chars-per-pixel */
"32 32 56 1 ",
"  c #2D607E",
". c #2F627E",
"X c #37697A",
"o c #3C6E78",
"O c #447574",
"+ c #497972",
"@ c #4A7A72",
"# c #417279",
"$ c #42717F",
"% c #47767F",
"& c #76A25E",
"* c #7AA55C",
"= c #58876F",
"- c #5D8A71",
"; c #56827C",
": c #659269",
"> c #6C966E",
", c #719D64",
"< c #BFD83F",
"1 c #C6DA3D",
"2 c #84AE58",
"3 c #90B952",
"4 c #91BA52",
"5 c #96BE53",
"6 c #97BE53",
"7 c #81AA61",
"8 c #98C04E",
"9 c #AAD046",
"0 c #ABD146",
"q c #ACD245",
"w c #B1D344",
"e c #B8D542",
"r c #1B5086",
"t c #255982",
"y c #275A83",
"u c #2B5D83",
"i c #2A5D84",
"p c #396981",
"a c #497591",
"s c #4A7591",
"d c #58818F",
"f c #588195",
"g c #598295",
"h c #658B97",
"j c #688D9F",
"k c #6C9292",
"l c #779A9D",
"z c #7D9F9C",
"x c #678AAA",
"c c #7597A7",
"v c #7899A9",
"b c #97B2B0",
"n c #98B1BD",
"m c #B8CAD0",
"M c #CCD8DD",
"N c None",
/* pixels */
"NNNNNNNNbrp=@piprnNNNNNNNNNNNNNN",
"NNNNNNNr3999999907ifNNNNNNNNNNNN",
"NNNNNNt9999999999995ilNNNNNNNNNN",
"NNNNNt999999999999990-dNNNNNNNNN",
"NNNNi999999999999qio997fNNNNNNNN",
"NNNm+999999999990prr99qiNNNNNNNN",
"NNNa999qpt99999996ro9997lNNNNNNN",
"NNN.9997rr&999999999999qkNNNNNNN",
"NNN@9996rr99999999999996#pirifNN",
"NNN@9999999999999999999999999qrN",
"NNNO99111<999999999999999999997N",
"NNN&91111199999999999999999990iN",
"NNi9911111e99999999990ppppirruNN",
"Nv299w11119999999999999999990-$N",
"Nr9999999999999999999999999999>N",
"m&9990-39999999999999999999999qa",
"x99997X99q 9999999999999999999>f",
"i9990p999qt99999999999qiprpprrlN",
"t9990p990%8999999999996;NNNNNNNN",
".9990p89>o9999999999997NNNNNNNNN",
"r9999qrpt9999999999990pNNNNNNNNN",
"a99999999999999999999qiNNNNNNNNN",
"z299999999999999999997lNNNNNNNNN",
"Nr999999999999999999qiNNNNNNNNNN",
"Nht999999999999999997gNNNNNNNNNN",
"c25r*999999999999996sNNNNNNNNNNN",
"r990-r:49999999990p$NNNNNNNNNNNN",
"i9990yNlxpir#,7@ipuNNNNNNNNNNNNN",
"N 07iNNNNNNNNMt490jNNNNNNNNNNNNN",
"NN;nNNNNNNNNNn&999bNNNNNNNNNNNNN",
"NNNNNNNNNNNNNNt999aNNNNNNNNNNNNN",
"NNNNNNNNNNNNNNNr#rNNNNNNNNNNNNNN"
};
