/* XPM */
static char *result[] = {
/* columns rows colors chars-per-pixel */
"64 64 71 1 ",
"  c #567E3E",
". c #1E3C5F",
"X c #203F5E",
"o c #163362",
"O c #193661",
"+ c #1B3960",
"@ c #375A4F",
"# c #395D4F",
"$ c #2C4D57",
"% c #24435C",
"& c #2A4A5A",
"* c #2F5056",
"= c #325555",
"- c #365953",
"; c #3A5D51",
": c #3E624F",
"> c #3D6050",
", c #466B47",
"< c #41664C",
"1 c #456B4A",
"2 c #496F4A",
"3 c #4D7445",
"4 c #4C7349",
"5 c #527A44",
"6 c #64860F",
"7 c #66890F",
"8 c #6A8D0F",
"9 c #6B8F10",
"0 c #6D9210",
"q c #719710",
"w c #729911",
"e c #7AA412",
"r c #7EAA13",
"t c #5B853E",
"y c #5F893C",
"u c #709E2F",
"i c #638E37",
"p c #628D3B",
"a c #669234",
"s c #699536",
"d c #6D9A34",
"f c #669238",
"g c #689438",
"h c #719E33",
"j c #7DAD26",
"k c #76A52D",
"l c #78A72F",
"z c #7CAC2B",
"x c #75A332",
"c c #598240",
"v c #82AE13",
"b c #85B214",
"n c #88B714",
"m c #8CBC15",
"M c #8BBE1F",
"N c #84B525",
"B c #87B825",
"V c #8ABD23",
"C c #82B229",
"Z c #8FC015",
"A c #8EC11E",
"S c #93C616",
"D c #96C916",
"F c #9ACF17",
"G c #92C61E",
"H c #96CB1B",
"J c #99CE19",
"K c #9AD017",
"L c #8EC121",
"P c #91C320",
"I c None",
/* pixels */
"IIIIIIIIIIIIIIIIIIIIIIIIIIIIIIIIIIIIIIIIIIIIIIIIIIIIIIIIIIIIIIII",
"IIIIIIIIIIIIIIIIIIIIIIIooooooOooooooooooooIIIIIIIIIIIIIIIIIIIIII",
"IIIIIIIIIIIIIIIIIIIIoOoX=4cpppccptpppy5:&oooIIIIIIIIIIIIIIIIIIII",
"IIIIIIIIIIIIIIIIIIoo+=sHFFFFKKKFFFFFFFFFKz3%ooIIIIIIIIIIIIIIIIII",
"IIIIIIIIIIIIIIIIIo+2zHFFFFFFFFFFFFFFFFFFFFFBf*ooIIIIIIIIIIIIIIII",
"IIIIIIIIIIIIIIIIo%pHFFFFFFFFFFFFFFFFFFFFFFFFKC>ooIIIIIIIIIIIIIII",
"IIIIIIIIIIIIIIoo=VFFFFFFFFFFFFFFFFFFFFFFFFFFFFFpOoIIIIIIIIIIIIII",
"IIIIIIIIIIIIIIo%CFFFFFFFKFFFFFFFFFFFFFFFFFFFFFFH5ooIIIIIIIIIIIII",
"IIIIIIIIIIIIIoXlFFFFFFFFFFFFFFFFFFFFFFFFFFFFFFFFH>ooIIIIIIIIIIII",
"IIIIIIIIIIIIoopKFFFFFFFFFFFFFFFFFFFFFFFFFFFFFFFFFV&oIIIIIIIIIIII",
"IIIIIIIIIIIIo-KFFFFFFFFFFKFFFFFFFFFFFFFFFFKFFFFFFFhOoIIIIIIIIIII",
"IIIIIIIIIIIoXdFFFFFFFFFFFFFFFFFFFFFFFFFFFFFFFFFFFFF=oIIIIIIIIIII",
"IIIIIIIIIIIo<HFFFFFFFFFFFFFFFFFFFFFFFFFFFFFFFFFFFFFfooIIIIIIIIII",
"IIIIIIIIIIoOdFFFFFFFFFFFFFFFFFFFFFFFFFFFFFFFFFFFFFKP+oIIIIIIIIII",
"IIIIIIIIIIo%BFFFFFFFFFFFFFFFFFFFFFFFFFFFFFFFFFFFFFKF4oIIIIIIIIII",
"IIIIIIIIIIo=HFFFFFFFFFFFFFFFFFFFFFFFFFFFFFFFFFFFKFFFxOoIIIIIIIII",
"IIIIIIIIIIocKKFFFFFFFFFFFFFFFFFFFFFFFFFFFFFFFFFFFFFFV%oIIIIIIIII",
"IIIIIIIIIooxFFFFFFFFFFFFFFFFFFFFFFFFFFFFFFFFFFFFFFFFG=oIIIIIIIII",
"IIIIIIIIIooLFFFFFFFFFFFFFFFFFFFFFFFFFFFFKFFFFFFFFFFFH;oIIIIIIIII",
"IIIIIIIIIo+FFFFFFFFFKFFFFFFFFFFFFFFFFFFFFFFFFFFFFFFFF4oIIIIIIIII",
"IIIIIIIIIo&FFFFFFFFFFFFFFFFFFFFFFFFFFFFFFFFFFFFFFFFFFcoIIIIIIIII",
"IIIIIIIIIo$FFFFFFFFFFFFFFFFFFFFFFFFFFFFFFFFFFFFFFFFFKsoIIIIIIIII",
"IIIIIIIIIo=FFFFFFFFFFFFFFFFFFFFFFFFFFFFFFFFFFFFFFFFFKdoIIIIIIIII",
"IIIIIIIIIO=FFFFFFFFFFFFFFFFFFFFFFFFFFFFFFFFFFFFFFFFFKhoIIIIIIIII",
"IIIIIIIIIo=FFFFFFFFFFFFFFFFFFFFFFFFFFFFFFFFFFFFFFFFKFdoIIIIIIIII",
"IIIIIIIIIo;FFFFFFFFFFFFFFFFFFFFFFFFFFFFFFFFFFFFFFFFFFloIIIIIIIII",
"IIIIIIIIIo3FFFFFFFFFFFFFFFFFFFFFFFFFFFFFFFFFFFFFFFFFFPOoIIIIIIII",
"IIIIIIIIIXdFFFFFFFFFFFFFFFFFFFFFFFFFFFFFFFFFFFFFFFFFKK=oIIIIIIII",
"IIIIIIIIo;PKKKFFFFFFFFFFFFFFFFFFFFFFFFFFFFFFFFFFFFFFFFpoIIIIIIII",
"IIIIIIIIopFFFKFFFFFFFFFFFFFFFFFFFFFFFFFFFFFFFFFFFFFFFFVOoIIIIIII",
"IIIIIIIo%NFFFFFFFFFFFFFFFFFFFFFFFFFKFFFFFFFFFFFFFFFFFFF2oIIIIIII",
"IIIIIIoo1FFFFFFFFFFFFFFFFFFFFKFFFFFFFFFFFFFFFFFFFFFFFFFzXooIIIII",
"IIIIo+.olFFFFFFFFFFFFFFFFFFFFFFFFFFFFFFFFFFFFFFFFFFFFFFG=oOoIIII",
"IIIo+c&&FFFFFFFFFFFFFFFFFFFFFFFFFFFFFFFFFFFFFFFFFFFFFFFFpo1XoIII",
"IIo.dNX,FFFFFFFFFFFFFFFFFFFFFFFFFFFFFFFFFFFFFFFFFFFFFFFFVo1l&oII",
"IIo-JzXiFFFFFFFFFFFFFFFFFFFFFFFFFFFFFFFFFFFFFFFFFFFFFFFFF&-JtoII",
"Io%dFd%lFFFFFFFFFFFFFFFFFFFFFFFFFFFFFFFFFFFFFFFFFFFFFFFFF#$MNXoI",
"Io$VF *VFFFFFFFFFFFFFFFFFFFFFJFFFFFFFFFFFFFFFFFFFFFFFFFFF &NG=oI",
"Io=PF<-HFFFFFFFFFFFFFFFFFFFDSJFFFFFFFFFFFFFFFFFFFFFFFFFFFt%kH=oI",
"IO$NF$<FFFFFFFFFFFFFFFFFFFFmweSFFJvSFFFFFFFFFFFFFFFFFFFFFa.sG$oI",
"Io+gK.,KFFFFFFFFFFFFFFFFFFFFnw7nS90SFFFFFFFFFFFFFFFFFFFFFdXaC+oI",
"IIO;G+1KFFFFFFFFFFFFFFFFFFFFFJb8qqDFFFFFFFFFFFFFFFFFFFFFFh%icoII",
"IIoo;X<FFFFFFFFFFFFFFFFFFFFFFFJw6mFFFFFFFFFFFFFFFFFFFFFFFa+=.oII",
"IIIoOO=PFFFFFFFFFFFFFFFFFFFFFFJw0DFFFFFFFFFFFFFFKFFFFFFFFtOooIII",
"IIIIIo&zFFFFFFFFFFFFFFFFFFFFFFD9rFFFFFFFFFFFFFFFFFFFFFFFF1oIIIII",
"IIIIII+yFFFFFFFFFFFFFFFFFFFFFJS7mFFFFFFFFFFFFFFFFFFFFFFFF%oIIIII",
"IIIIIIo-FFFFFFFFFFFFFFFFFFFFFFm6JFFFFFFFFFFFFFFFFFFFFFFFxooIIIII",
"IIIIIIooNFFFFFFFFFFFFFFFFFFFFFn7FFFFFFFFFFFFFFFFFFFFFFFH-oIIIIII",
"IIIIIIIo;GFFFFFFFFFFFFFFFFFFFFm7FFFFKFFFFFFFFFFFFFFFKKKs+OIIIIII",
"IIIIIIIo+dFFFFFFFFFFFFFFFFFFFFm7FFFFFFFFFFFFFFFFFFFFKKP&oIIIIIII",
"IIIIIIIIo%fKFFFFFFFFFFFFFFFFFFm7SFFFFFFFFFFFFFFFFFFFKP-oIIIIIIII",
"IIIIIIIIIo%gGFFFFFFFFFFFFFFFFFJ9vFFFFFFFFFFFFFFFFFFFz<ooIIIIIIII",
"IIIIIIIIIIoO<CFFFFFFFFFFFFKFFFFv7mKFFFFFFFFFFFFFFFHc%ooIIIIIIIII",
"IIIIIIIIIIIoo+;pVFFFFFFFFFKKFFFFw9JFFKFFFFFFFFFFl2%ooIIIIIIIIIII",
"IIIIIIIIIIIIIoooO2lGFFFFFFFKFKKFDnmFHKFFFFFFHBp&ooooIIIIIIIIIIII",
"IIIIIIIIIIIIIIIooo+$<cpfhxzCVHFFPFFPBClxgfc5=%ooooIIIIIIIIIIIIII",
"IIIIIIIIIIIIIIIIIoooooooooooo+%=*&Xooooooooo.&+oIIIIIIIIIIIIIIII",
"IIIIIIIIIIIIIIIIIIIo5Nzkdit 3&ooooO-5tiauzjMDN%oIIIIIIIIIIIIIIII",
"IIIIIIIIIIIIIIIIIIIotFFFFFFFF5oIIIopFFDFFFFFFh+IIIIIIIIIIIIIIIII",
"IIIIIIIIIIIIIIIIIIIo-FFFFFFFFpoIIIo-NFFFFFFFV-oIIIIIIIIIIIIIIIII",
"IIIIIIIIIIIIIIIIIIIoopFFFKFFF>oIIIoO<GFFFFFP-OIIIIIIIIIIIIIIIIII",
"IIIIIIIIIIIIIIIIIIIIo+1lBjkp=ooIIIIoO%3fhf4XoIIIIIIIIIIIIIIIIIII",
"IIIIIIIIIIIIIIIIIIIIIooooooooIIIIIIIooooooooIIIIIIIIIIIIIIIIIIII",
"IIIIIIIIIIIIIIIIIIIIIIIIIIIIIIIIIIIIIIIIIIIIIIIIIIIIIIIIIIIIIIII"
};
