/* XPM */
static char *result[] = {
/* columns rows colors chars-per-pixel */
"32 32 233 2 ",
"   c #547D3F",
".  c #557D3F",
"X  c #557E3F",
"o  c #567E3E",
"O  c #567F3E",
"+  c #163362",
"@  c #173461",
"#  c #1A3764",
"$  c #1C3B61",
"%  c #1D3B63",
"&  c #1E3D61",
"*  c #1F3E61",
"=  c #1F3E63",
"-  c #1A3865",
";  c #1A3965",
":  c #1B3966",
">  c #1C3A64",
",  c #1C3A67",
"<  c #1E3C67",
"1  c #203E63",
"2  c #37594F",
"3  c #375A4F",
"4  c #3B5F4D",
"5  c #385C4E",
"6  c #395C4E",
"7  c #2B4C57",
"8  c #2B4D57",
"9  c #2B4E56",
"0  c #2D4F56",
"q  c #274758",
"w  c #25455B",
"e  c #21415C",
"r  c #21405E",
"t  c #23435E",
"y  c #25455C",
"u  c #24445D",
"i  c #25455D",
"p  c #24445E",
"a  c #26465E",
"s  c #274859",
"d  c #27485D",
"f  c #27485E",
"g  c #284958",
"h  c #294A59",
"j  c #28495B",
"k  c #2A4B5A",
"l  c #2B4C5B",
"z  c #2C4D58",
"x  c #2C4D59",
"c  c #2D4F58",
"v  c #2D4F5A",
"b  c #2A4A5C",
"n  c #28485E",
"m  c #2F5154",
"M  c #2E5056",
"N  c #2F5156",
"B  c #2E5058",
"V  c #305253",
"C  c #335651",
"Z  c #325452",
"A  c #345751",
"S  c #355751",
"D  c #305255",
"F  c #315255",
"G  c #315356",
"H  c #305257",
"J  c #315455",
"K  c #325455",
"L  c #345654",
"P  c #345754",
"I  c #355850",
"U  c #365950",
"Y  c #355855",
"T  c #395D51",
"R  c #3A5D50",
"E  c #3A5D51",
"W  c #395C52",
"Q  c #395D52",
"!  c #335558",
"~  c #3E634B",
"^  c #3F634B",
"/  c #3C604C",
"(  c #3C604E",
")  c #3D624E",
"_  c #3D624F",
"`  c #3F634E",
"'  c #3F634F",
"]  c #3C6051",
"[  c #3F6250",
"{  c #214060",
"}  c #214160",
"|  c #224160",
" . c #244560",
".. c #244462",
"X. c #294960",
"o. c #456B47",
"O. c #486E46",
"+. c #416649",
"@. c #40654A",
"#. c #40664A",
"$. c #41664A",
"%. c #41654E",
"&. c #43694A",
"*. c #456A48",
"=. c #456B48",
"-. c #456C49",
";. c #476D48",
":. c #466C49",
">. c #4D7443",
",. c #4D7543",
"<. c #4E7542",
"1. c #4A7045",
"2. c #4A7145",
"3. c #4B7245",
"4. c #4C7344",
"5. c #4D7444",
"6. c #537A40",
"7. c #537B40",
"8. c #57803E",
"9. c #57803F",
"0. c #5B843B",
"q. c #5B863B",
"w. c #59823C",
"e. c #59823D",
"r. c #5A833C",
"t. c #5E8839",
"y. c #5F8A39",
"u. c #5D883A",
"i. c #5E883A",
"p. c #709F2F",
"a. c #618C37",
"s. c #638E37",
"d. c #608B38",
"f. c #608B39",
"g. c #659035",
"h. c #669135",
"j. c #669234",
"k. c #669235",
"l. c #649036",
"z. c #659136",
"x. c #699533",
"c. c #6A9732",
"v. c #6A9633",
"b. c #6C9831",
"n. c #6C9931",
"m. c #6D9A31",
"M. c #6E9B30",
"N. c #6F9C30",
"B. c #6F9D30",
"V. c #7EAE27",
"C. c #7FAE27",
"Z. c #7FAF27",
"A. c #77A62B",
"S. c #73A22D",
"D. c #73A12E",
"F. c #74A22D",
"G. c #75A32D",
"H. c #75A42C",
"J. c #7AAA29",
"K. c #7BAA29",
"L. c #7BAB29",
"P. c #79A82A",
"I. c #7AA92A",
"U. c #7BAA2A",
"Y. c #7CAB29",
"T. c #7CAC28",
"R. c #7CAC29",
"E. c #7EAD28",
"W. c #7EAE28",
"Q. c #8CBE1F",
"!. c #8CBF1F",
"~. c #8DBF1F",
"^. c #84B523",
"/. c #84B623",
"(. c #85B623",
"). c #86B723",
"_. c #81B225",
"`. c #82B325",
"'. c #83B325",
"]. c #80B026",
"[. c #80B126",
"{. c #81B126",
"}. c #81B226",
"|. c #83B424",
" X c #85B624",
".X c #88BA21",
"XX c #89BB21",
"oX c #8ABC20",
"OX c #8BBE20",
"+X c #8CBE20",
"@X c #8FC21D",
"#X c #8DC01E",
"$X c #8EC11E",
"%X c #9ACE17",
"&X c #9ACF17",
"*X c #92C61B",
"=X c #93C71B",
"-X c #90C31D",
";X c #91C51C",
":X c #91C41D",
">X c #92C51C",
",X c #92C61C",
"<X c #96CB19",
"1X c #97CB19",
"2X c #95C91A",
"3X c #94C81B",
"4X c #95CA1A",
"5X c #96CA1A",
"6X c #97CC19",
"7X c #98CD18",
"8X c #99CD18",
"9X c #98CD19",
"0X c #99CE18",
"qX c #9ACE18",
"wX c #9ACF18",
"eX c #9FD116",
"rX c #9FD216",
"tX c #A1D315",
"yX c #A3D315",
"uX c #A3D415",
"iX c #A5D414",
"pX c #A6D514",
"aX c #B5DC11",
"sX c #B6DC10",
"dX c #B7DD10",
"fX c #BDE00F",
"gX c #BEE00E",
"hX c #C1E20D",
"jX c #C2E20D",
"kX c #C4E30D",
"lX c #C7E50C",
"zX c #CAE60B",
"xX c None",
/* pixels */
"xXxXxXxXxXxXxXxX: i W ` [ ] Q F { # xXxXxXxXxXxXxXxXxXxXxXxXxXxX",
"xXxXxXxXxXxXxX_ i.E..X!.Q.oX.X^.R.x.;.H xXxXxXxXxXxXxXxXxXxXxXxX",
"xXxXxXxXxX> f.,X&X&X&X&X&X&X&X&X&X&X0XOX8.i xXxXxXxXxXxXxXxXxXxX",
"xXxXxXxXa u.&X&X&X&X&X&X&X&X&X&X&X5XJ.-X&XV.8 xXxXxXxXxXxXxXxXxX",
"xXxXxX< 3.;X&X&X&X&X&X&X&X&X&X&X&Xt.q 4 <X8XK.u xXxXxXxXxXxXxXxX",
"xXxXxXh V.&X&X&X&X&X&X&X&X&X&X&X&X$.+ @ ,X&X&X. = xXxXxXxXxXxXxX",
"xXxXxXo <X&X&X@X|.&X&X&X&X&X&X&X&X).X G.&X&X&XM.d xXxXxXxXxXxXxX",
"xXxX: I.&X&X-Xm +   0X&X&X&X&X&X&X&X&X&X&X&X&XXX*.U 2 3 5 Z n xX",
"xXxX- $X&X&X/.e + S 1X&X&X&X&X&X&X&X&X&X&X&X&X&X6X9X0X0XwX2XF.! ",
"xXxX& 0X&X&X<X0.@.L.&X&X&X&X&X&X&X&X&X&X&X&X&X&X&X&X&X&X&X&X3X5.",
"xXxXj &X&X&X&XrXuXrX&X&X&X&X&X&X&X&X&X&X&X&X&X&X&X&X0X>XXXG.4.* ",
"xXxXk &X&X&XiXhXlXjXpX&X&X&X&X&X&X&X&X&X&X&X&Xw.,.e.>.o.4 $ xXxX",
"xXxXc &X&X&XdXzXzXzXsX&X&X&X&X&X&X&X&X&X&X&X&XN.m.H.W. X`./ 1 xX",
"xXxX&.&X&X&XdXzXzXzXaX&X&X&X&X&X&X&X&X&X&X&X&X&X&X&X&X&X&XE.G xX",
"xXl B.&X&X&XtXfXkXgXyX&X&X&X&X&X&X&X&X&X&X&X&X=X#X$XXX_.D.:.xXxX",
"xX) ,X&X&X&X&XrXpXeX&X&X&X&X&X&X&X&X&X&X&X&X&Xn.+.#.T x % xXxXxX",
"- s.&X&X&X0Xr.T.&X&X*X&X&X&X&X&X&X&X&X&X&X&X&X`.P xXxXxXxXxXxXxX",
"| P.&X&X&X XI Q.&X1Xd.5X&X&X&X&X&X&X&X&X&X&X&XZ.D xXxXxXxXxXxXxX",
"Y (.&X&X&Xx.q.&X&X!.<.6X&X&X&X&X&X&X&X&X&X&X&XL.M xXxXxXxXxXxXxX",
"' OX&X&X&Xh.v.&X&Xy.d.&X&X&X&X&X&X&X&X&X&X&X&XA.B xXxXxXxXxXxXxX",
"%.~.&X&X&X'.*.$X|.A {.&X&X&X&X&X&X&X&X&X&X&X&Xn.b xXxXxXxXxXxXxX",
"E XX&X&X&X&Xd.V C L.0X&X&X&X&X&X&X&X&X&X&X&X&X. xXxXxXxXxXxXxXxX",
"p K.&X&X&X&X%X5X9X&X&X&X&X&X&X&X&X&X&X&X&X&X&XJ xXxXxXxXxXxXxXxX",
"xX9.qX&X&X&X&X&X&X&X&X&X&X&X&X&X&X&X&X&X&X%Xb., xXxXxXxXxXxXxXxX",
"xXK C.&X&X&X&X&X&X&X&X&X&X&X&X&X&X&X&X&X&XoX7 xXxXxXxXxXxXxXxXxX",
"xXxXN XX&X&X&X&X&X&X&X&X&X&X&X&X&X&X&X&X+X=.xXxXxXxXxXxXxXxXxXxX",
"xXxXxXr 6.Z.4X&X&X&X&X&X&X&X&X&X&X&X7X`.0 ; xXxXxXxXxXxXxXxXxXxX",
"xXxXxXxXxXt R o g.c.N.S.Y.[.`.].U.j.2.@.z xXxXxXxXxXxXxXxXxXxXxX",
"xXxXxXxXxXxXxXw O.*.~ 6 I g 9 s U 1.m.:X0.xXxXxXxXxXxXxXxXxXxXxX",
"xXxXxXxXxXxXxX-.7X&X&X&X=XV xXa |.&X&X&Xa. .xXxXxXxXxXxXxXxXxXxX",
"xXxXxXxXxXxXxXv z.5X&X1Xp.f xX..k.OX#X}.L xXxXxXxXxXxXxXxXxXxXxX",
"xXxXxXxXxXxXxXxXX.7.l.O y xXxXxX} ( ^ x xXxXxXxXxXxXxXxXxXxXxXxX"
};
