/* XPM */
static char *result[] = {
/* columns rows colors chars-per-pixel */
"64 64 63 1 ",
"  c #557D3F",
". c #17355D",
"X c #18365F",
"o c #1C3B5E",
"O c #213F5C",
"+ c #163362",
"@ c #183661",
"# c #1A3860",
"$ c #375B4F",
"% c #395D4E",
"& c #274857",
"* c #2B4C56",
"= c #23435A",
"- c #274858",
"; c #284858",
": c #2F5054",
"> c #325452",
", c #355850",
"< c #3E624C",
"1 c #466C47",
"2 c #486F46",
"3 c #41654A",
"4 c #456A48",
"5 c #4D7443",
"6 c #507741",
"7 c #527A41",
"8 c #57813E",
"9 c #5B853B",
"0 c #5E893A",
"q c #719F2F",
"w c #638E37",
"e c #618B39",
"r c #669135",
"t c #6A9633",
"y c #6D9A32",
"u c #719E30",
"i c #7FAF26",
"p c #75A32D",
"a c #78A72B",
"s c #7CAC29",
"d c #7FB027",
"f c #8CBF1F",
"g c #83B425",
"h c #87B823",
"j c #8ABC21",
"k c #8FC21E",
"l c #9ACF17",
"z c #92C51C",
"x c #96CA1A",
"c c #99CE19",
"v c #9CD017",
"b c #BBDF0F",
"n c #A4D415",
"m c #ACD713",
"M c #ADD913",
"N c #B1DB11",
"B c #B9DE10",
"V c #BEE10E",
"C c #8EC121",
"Z c #98CC20",
"A c #C2E30E",
"S c #CAE60B",
"D c None",
/* pixels */
"DDDDDDDDDDDDDDDDDDDDDDDDDDDDDD++++++++++++++++DDDDDDDDDDDDDDDDDD",
"DDDDDDDDDDDDDDDDDDDDDDDDDDD++++++ooO====&&=o#+++DDDDDDDDDDDDDDDD",
"DDDDDDDDDDDDDDDDDDDDDDDDD+++#:7yhxxxllvvlllxkp<@+++DDDDDDDDDDDDD",
"DDDDDDDDDDDDDDDDDDDDDDD+++>rkvvlllllllllllllxvvk8o++DDDDDDDDDDDD",
"DDDDDDDDDDDDDDDDDDDDD+++3glllllllllllllllllllllllc6#+DDDDDDDDDDD",
"DDDDDDDDDDDDDDDDDDD++#$gcvllllllllllllllllllllllllcgo++DDDDDDDDD",
"DDDDDDDDDDDDDDDDDD++#0xllllvllllllllllllllllllllllllpo+DDDDDDDDD",
"DDDDDDDDDDDDDDDDD++osvlllzpukcllllllllllllllllllllllvu#+DDDDDDDD",
"DDDDDDDDDDDDDDDD++=glllla&++=ylllllllllllllllllllllllc0++DDDDDDD",
"DDDDDDDDDDDDDDDD++0cllll1++++$llllllllllllllllllllllllc-+DDDDDDD",
"DDDDDDDDDDDDDDD++1llllll,++++=llllllllllllllllllllllllcp#+DDDDDD",
"DDDDDDDDDDDDDDD++gllllll X++#2llllllllllllllllllllllllvx%+DDDDDD",
"DDDDDDDDDDDDDDD+ozllllllx8&=5zvlllllllllllllllvclllllllly++DDDDD",
"DDDDDDDDDDDDDD++oxlllllllxkfxlvvlllllllllllllxd9wgllllllkO+DDDDD",
"DDD+++++++++++++>cllllllllvllllllllllllllllllp-+.*hvllllv<+DDDDD",
"DD+#%9trrwwe99  jlllllllllllllllllllllllllllC:++++$xlllvva++DDDD",
"D+=tclllllllllllllllllllllllllllllllllllllllg&++++*zlllllz++DDDD",
"+ohvccllllllllllllllllllllllllllllllllllllllz$++++3xllllcvo+DDDD",
"+*ccllllllllllllllllllllllllllllllllllllllllls,+o$zvllllvc=+DDDD",
"+#gcllllllllllllllllllllllllllllllllllllllllllvgjclvllllcv*.DDDD",
"++o6pjxlllllllllllllllllllllllllllllllllllllllvvvlllllllll,+DDDD",
"D++++=% ugxllllclllllllllllllllllllllllllllllnBBNncvllllll%+DDDD",
"DDD+++++#+o-3w5>$7zvllllllllllllllllllllllllbSSSSSNvllllll<#DDDD",
"DDDD+++ooX#++++++#tllllllllllllllllllllllllmSSSSSSSMllllll%+DDDD",
"DDD++owxcxCjiy0 45jllllllllllllllllllllllllbSSSSSSSAllllll<+DDDD",
"DDD+ogllllllllvvllllllllllllllllllllllllllnASSSSSSSSvlllll +DDDD",
"DDD+5cllllllllllllllllllllllllllllllllllllnASSSSSSSSvlllllao+DDD",
"DDD+3clllllllllllllllllllllllllllllllllllllNSSSSSSSNllllllc$+DDD",
"DDD+#4pxllllllllllllllllllllllllllllllllllllASSSSSBvlllllllw++DD",
"DDDD+++#,9ahCCkkfxlllllllllllllllllllllllllllNAAAMlllllllllj=+DD",
"DDDDDD++++++##+##wllllllllllllllllllllllllllllnvvlllllllllll9++D",
"DDDDDDDDDD++++++ogllllllllllllllllllllllllllllllllllllllllllx#+D",
"DDDDDDDDDDDDDDD+<llllllllllllllllllllllllllllllllg,ecllllllll-+D",
"DDDDDDDDDDDDDDD+%lllllllllllllllllllllllllzqcllllg&oqllllllll2+D",
"DDDDDDDDDDDDDDD+%llllllllllllllllllllllllluXzlllllsO,llllllllu#+",
"DDDDDDDDDDDDDDD+>lllllllllllllllllllllllll9+fllllll5oxlllllllj=+",
"DDDDDDDDDDDDDDD+>lllllllllllllllllllllllllq+qlllllcp+alllllllc&#",
"DDDDDDDDDDDDDDD+&lllllllllllllllllllllllllh,%jllllvC+0llllllll$+",
"DDDDDDDDDDDDDDD+;cllllllllllllllllllllllllx oylllllxXrvlllllll4+",
"DDDDDDDDDDDDDDD+=clllllllllllllllllllllllllg+,jllllqXgvlllllll5+",
"DDDDDDDDDDDDDDD+#zlllllllllllllllllllllllllx$O cllk%%cllllllll6+",
"DDDDDDDDDDDDDDD++gllllllllllllllllllllllllllg>X5Cl1+plllllllll5+",
"DDDDDDDDDDDDDDDD+0lllllllllllllllllllllllllllg2##oo cvlllllllc%+",
"DDDDDDDDDDDDDDDD+>cllllllllllllllllllllllllllczy8 rzlllllllllc*+",
"DDDDDDDDDDDDDDDD++slllllllllllllllllllllllllllllllllllllllllls#+",
"DDDDDDDDDDDDDDDD++1llllllllllllllllllllllllllllllllllllllllll6#+",
"DDDDDDDDDDDDDDDDD+osllllllllllllllllllllllllllllllllllllllllc=+D",
"DDDDDDDDDDDDDDDDD++:xllllllllllllllllllllllllllllllllllllllcy++D",
"DDDDDDDDDDDDDDDDDD++rclllllllllllllllllllllllllllllllllllllg-+DD",
"DDDDDDDDDDDDDDDDDDD+#yclllllllllllllllllllllllllllllllllllx>+DDD",
"DDDDDDDDDDDDDDDDDDDD+#rclllllllllllllllllllllllllllllllclj*++DDD",
"DDDDDDDDDDDDDDDDDDDD++#9lllllllllllllllllllllllllllllllxto++DDDD",
"DDDDDDDDDDDDDDDDDDDDD+++4jllllllllllllllllllllllllccxs2=++DDDDDD",
"DDDDDDDDDDDDDDDDDDDDDD+++owzllllllllcclllllllvllllxy>#+++DDDDDDD",
"DDDDDDDDDDDDDDDDDDDDDD++X++o,9sjzzxxxxkfipqtr9874*o++++DDDDDDDDD",
"DDDDDDDDDDDDDDDDDDDDDD+>s5=#++#O->,,>>&oo##++++++++++DDDDDDDDDDD",
"DDDDDDDDDDDDDDDDDDDDD++tllxg9>o++++++++++##O=>,<o+DDDDDDDDDDDDDD",
"DDDDDDDDDDDDDDDDDDDDD++sllvlcczj++DD++wgjzzxcclv5+DDDDDDDDDDDDDD",
"DDDDDDDDDDDDDDDDDDDDD++qllllllll++DD++jcllllcllv9+DDDDDDDDDDDDDD",
"DDDDDDDDDDDDDDDDDDDDDD+$llllllll++DD++ulllllcvlx*+DDDDDDDDDDDDDD",
"DDDDDDDDDDDDDDDDDDDDDD++8xllllct++DDD+=svllllvl7++DDDDDDDDDDDDDD",
"DDDDDDDDDDDDDDDDDDDDDDD+#&9re8*++DDDD++=yllllj1++DDDDDDDDDDDDDDD",
"DDDDDDDDDDDDDDDDDDDDDDDD++++++++DDDDDD+++#*>=#++DDDDDDDDDDDDDDDD",
"DDDDDDDDDDDDDDDDDDDDDDDDDD+++DDDDDDDDDD++++++#DDDDDDDDDDDDDDDDDD"
};
