/* XPM */
static char *_589204d67804676ff5f8a8fdc0574d2qNgnm7nC88AgM2Oc[] = {
/* columns rows colors chars-per-pixel */
"64 64 131 2 ",
"   c None",
".  c #1C1A1A",
"X  c #211F1F",
"o  c #22201F",
"O  c #262323",
"+  c #292626",
"@  c #2C2929",
"#  c #322F2E",
"$  c #353231",
"%  c #3A3635",
"&  c #3C3837",
"*  c #3E3A39",
"=  c #423D3D",
"-  c #45403F",
";  c #454040",
":  c #4A4544",
">  c #4E4847",
",  c #4F4A49",
"<  c #524C4B",
"1  c #56504F",
"2  c #575150",
"3  c #5A5453",
"4  c #5F5857",
"5  c #5F5958",
"6  c #635C5B",
"7  c #6B6463",
"8  c #706867",
"9  c #746C6B",
"0  c #79716F",
"q  c #7D7473",
"w  c #807775",
"e  c #817876",
"r  c #877E7C",
"t  c #887E7D",
"y  c #89807E",
"u  c #8D8482",
"i  c #908684",
"p  c #928886",
"a  c #958B89",
"s  c #998E8C",
"d  c #9B918F",
"f  c #9E9391",
"g  c #A19693",
"h  c #A49997",
"j  c #A69A98",
"k  c #A99E9C",
"l  c #ACA09E",
"z  c #AFA3A0",
"x  c #B2A6A3",
"c  c #B5A9A7",
"v  c #B7AAA8",
"b  c #BAADAB",
"n  c #BEB1AE",
"m  c #C2B5B2",
"M  c #C7B9B6",
"N  c #C8BAB7",
"B  c #CBBDBB",
"V  c #CFC1BE",
"C  c #D0C2BF",
"Z  c #D3C5C2",
"A  c #D7C9C6",
"S  c #D9CAC7",
"D  c #DBCDC9",
"F  c #DCCDC9",
"G  c #DDCECA",
"H  c #DCCECB",
"J  c #DDCECB",
"K  c #DECFCB",
"L  c #DECFCC",
"P  c #DDCFCB",
"I  c #DFD0CC",
"U  c #DFD0CD",
"Y  c #DFD0CD",
"T  c #E0D0CD",
"R  c #E0D1CE",
"E  c #E1D2CF",
"W  c #E2D2CF",
"Q  c #E2D2CF",
"!  c #E3D3D0",
"~  c #E4D4D1",
"^  c #E4D5D1",
"/  c #E4D5D2",
"(  c #E5D5D2",
")  c #E5D6D2",
"_  c #E5D6D3",
"`  c #E6D6D3",
"'  c #E7D7D4",
"]  c #E3D4D1",
"[  c #E7D8D4",
"{  c #E8D8D5",
"}  c #E8D9D5",
"|  c #E9D9D5",
" . c #E9D9D6",
".. c #E9DAD6",
"X. c #EADAD6",
"o. c #EADAD7",
"O. c #E9DAD6",
"+. c #EBDBD8",
"@. c #ECDCD9",
"#. c #ECDDD9",
"$. c #EEDEDA",
"%. c #EFDFDB",
"&. c #EFDFDC",
"*. c #ECDCD8",
"=. c #F0E0DC",
"-. c #F1E1DE",
";. c #F2E2DE",
":. c #F3E2DF",
">. c #F3E3DF",
",. c #F3E3DF",
"<. c #F4E3E0",
"1. c #F4E4E0",
"2. c #F5E4E0",
"3. c #F5E4E1",
"4. c #F5E5E1",
"5. c #F6E6E2",
"6. c #F7E6E2",
"7. c #F7E6E3",
"8. c #F5E5E1",
"9. c #F8E7E3",
"0. c #F8E8E4",
"q. c #F9E8E4",
"w. c #F9E9E5",
"e. c #FAEAE6",
"r. c #FBEBE7",
"t. c #FCEBE7",
"y. c #FBEBE7",
"u. c #FDECE8",
"i. c #FEEDE9",
"p. c #FFEEEA",
"a. c #FFEEEA",
/* pixels */
"                                                                                                                                ",
"                                                                                                                                ",
"                                                                                                                                ",
"                                                                                                                                ",
"                                                                                                                                ",
"                                                                                                                                ",
"                                                          % # . . . . . . . . .                                                 ",
"                                                          = $ O o X X X X O . .                                                 ",
"                                                        3 r q 9 8 7 6 6 6 < @ @                                                 ",
"                                                    . . 7 p.p.p.y.o.P I H j > = . .                                             ",
"                                                    2 7 f i.p.p.e.A B A P c 0 7 @ +                                             ",
"                                                . . f o.&.p.p.p.8.n j B H A V b ; * O . . .                                     ",
"                                                . . j i.p.p.p.p.<.b f n B B N b 9 7 3 > # O O                                   ",
"                                                . . j i.p.p.p.p.8.b f j k j s j H A Z m 7 = @ .                                 ",
"                                                . . j i.p.p.i.i.<.b g g g a t d i.i.i.@.e : @ . .                               ",
"                                    . . . . . . n H <.i.p.p.9./ W A Z x g d s d d z o.@.e : : - $ . .                           ",
"                                    . . . . . . D i.i.i.p.p.8.! P P H v f f f s r g / @.w : : : % . .                           ",
"                          : : : < 9 j j j j j j -.p.i.i.o.N m c b Z H l p a f d r p l k 7 : : : $ . .                           ",
"                          : : > < u i.i.t.t.i.i.i.i.i.i.H f g g j B P j y p f s t r r e 4 : : : % . .                           ",
"                          : : 9 u v i.8.T H H H e.p.p.i./ c c c b Z P j r u a p i u t w 3 : : : * @ @                           ",
"                      : : ; : b i.i.i.T k d g d =.i.i.i.:.H I I P P P j y r r u f s y e 4 : : : : : = . .                       ",
"                      : : q e V p.t.8.H j j v n <.i.i.i.@.B Z / o.T P j y r t y a a p y 7 4 < : : : ; . .                       ",
"                      : : Z #.0.i.8.T B j x W ,.t.i.i.t.T j b :.e.` P j y r r t t u a s y e 4 > : : = . .                       ",
"                      8 8 o.i.e.8.o.V m g c *.i.e.9.9.8.A g b $.8.` P j y t u u u u p p y r 5 : : : = . .                       ",
"                  : 8 m F w.i.&./ C l j f v +.i.+./ / / B f c H / T P j u u s s s p w q e r 5 : : : = . .                       ",
"                  : 9 F p.p.i.#.H N f f f x +.i.^ P P H N d x Z I P P j r u f f f p q 8 w r 6 : : > = . .                       ",
"                  : 9 F p.p.i.#.H l 2 r I <.u.p.k a g k b Z A H P I P j u t u u u r 0 8 w r w q 7 : = . .                       ",
"                  : 9 F p.i.i.#.D k : e @.p.i.i.d t a g c I K H P P P j r r r r t e 9 9 w t r t 7 : = . .                       ",
"                  : 9 F i.i.p.Z v s 6 q b Z <.i.N b m m b k k k z Z L N n j r p b k e 8 9 q t a q : ; $ $ O .                   ",
"                  : 9 F a.a.i.m f u 8 q a c +.p./ P H D m t t t u M L Y P b u a P N u 8 8 8 u d q : : : = O .                   ",
"                  : 9 F a.8.,.B x s 8 q p k +.i./ P B m l i i u a N I P P N h z P Z j a t w u a q : : : = O .                   ",
"                  : 9 F a.^ I I H v 8 0 r g ` i.~ H k t i d d g h B P P I P P P P P P A x f p t 7 : : : = O .                   ",
"                6 0 u Z E I L L P v 8 9 r g P <.B M g t u s s f j B H V M N B B B C D A x f g g q : : : = O .                   ",
"              : 0 n m z k Z L Y L v 7 0 e s Z I f p y t t t i f j B Y l i s j j j x Z A x f n Z g : : : = O .                   ",
"              : 0 M B z k A L A Z z 8 q r s M Z a t t y t r u s j B H k u i s f f k N Z j a b Z g < < : = O .                   ",
"              : 7 j n S E Y Y b f u 7 0 e u f g s s a a p t i s j B H z a a u i f g l j 8 2 t g p 9 7 : = O .                   ",
"              : 6 a c #.p.^ Y k r q 8 0 r r r r s f f f a r u f h V H v f a r u f f f p 3 % 7 r r t q > = O .                   ",
"          : : : 9 n M n n l h p r 9 > 5 w a c n M N z f k m x p a M Y l i p a a p u u u 9 7 5 2 7 r q : ; & % + .               ",
"        : : : : 0 B Z k f u y y r 7 % < w s B D J J c g c D m p i M H j r i f s r r r r r r 2 * 2 r q : : : = @ .               ",
"        : : 5 r j E A j p y r r r 7 % 5 f c Z P P P b f k M x i u l b r 7 q f f p u y r u p 7 3 7 r e 6 5 < ; + .               ",
"        : , e E [ y.^ f y r r y r 7 & 7 V L L L P P b f f f a t r r r 2 & 6 f f f s y y s f i t r y r r q 2 ; + .               ",
"        = ; q P ^ ..Z f u y y q 0 6 & 7 V F Z V Z Z x s s s a u y r r 5 , 7 f f f d i u a f p y r q q r q 2 ; @ .               ",
"        . X 6 E m i u d f y r 2 % % & 7 V B a r s f p r r r u f d u r s f f f f f f f f f f f f q : < y q 2 ; @ .               ",
"        . X 5 B x u u p a u r 2 % = : 9 n n s u a s u r t u p s d i u u r i s s s s f f d s d f r 3 6 u q 2 ; # O O             ",
"        . X > d a y y u u r r 2 * , 9 e a d a d u u t r u s s f f s d 7 < 7 u y y i s f p y a f a y u d y 3 : = = @ .           ",
"        . . = w e r r r r r q 1 * 2 y r r u f h p p u r u f f f f f f 6 ; 5 i u y i g g i r a f f f f p r 3 : : : @ . .         ",
"        . . $ 4 7 e y r r 6 4 : & 2 r r r p n B M m f r p f f f f f f q 8 i M b a h m m f r a f f f p 3 1 > : : : @ . .         ",
"        . . @ : 5 q r r y < > * * 2 y r r f B P P P k t u f f f f f f u r l L Z f k B A g r a f f f u % * : : : > @ . .         ",
"        . . * 8 7 6 7 q r 9 8 , & 2 r s b M A P x j d a a u p i i i i y t k H Z f k V F B n e 6 9 u r - ; : : : : @ . .         ",
"        . X ; r 8 < 2 q r r r 2 * 2 r g Z F P P a u a f a t r t t t t t t k H Z f l C H H H 9 = 3 r q : : : : : : @ . .         ",
"        . . % 7 6 , < 7 8 r r 3 * 2 t s n m n n q 8 r p p r e 8 8 w r r r d n v a f x m Z H q = < 8 7 : : : : * % + .           ",
"        . . + = = : : : : q r 2 * 2 t u f a u r < > 7 r r r 9 < < 9 r t r t r r r r t p m H w , : : : : : : ; + .               ",
"        . . + % * = = = = 7 0 , $ < q t f s u t 4 < 9 r e q 8 2 2 0 t i a p a p r r e r x N 9 , : : : : : - = + .               ",
"              . . . . . . . . . X @ > 6 a f f f u t r r 8 > 4 q t t r m H I H V t 0 1 : : : : : : : : : = O .                   ",
"              . . . . . . . . . . @ : 5 r u u u r r r r 0 2 6 e t p a N H P I V q 8 < : : : : : ; = = = % O .                   ",
"                              . . @ : , 3 4 4 4 e r r t e q q r u v B A P I H N 2 1 > : : : : : & O O O O                       ",
"                              . . @ ; ; ; ; ; ; 9 0 q q q q q q r x B B B B B x ; ; ; ; ; ; ; ; $ . . . .                       ",
"                                  O @ @ @ + + @ % = * * * * * * = < 3 3 3 2 3 < + @ + @ @ + + @ +                               ",
"                                    . . . . . . . . . . . . . . . . . . . . . . . . . . . . . . .                               ",
"                                                                                                                                ",
"                                                                                                                                ",
"                                                                                                                                ",
"                                                                                                                                ",
"                                                                                                                                "
};
