/* XPM */
static char *result[] = {
/* columns rows colors chars-per-pixel */
"64 64 213 2 ",
"   c #7E3F5B",
".  c #375D6D",
"X  c #187B7F",
"o  c #1B6C7B",
"O  c #39656D",
"+  c #396B76",
"@  c #2D747C",
"#  c #247C7F",
"$  c #2B7C7D",
"%  c #287379",
"&  c #36757B",
"*  c #2D677F",
"=  c #564C5F",
"-  c #714B5B",
";  c #495C6D",
":  c #575769",
">  c #455F72",
",  c #5D5A7C",
"<  c #5A5A72",
"1  c #594C61",
"2  c #6B4E65",
"3  c #6D4D69",
"4  c #774A69",
"5  c #63516A",
"6  c #785766",
"7  c #665775",
"8  c #785676",
"9  c #7B4C71",
"0  c #55646D",
"q  c #446472",
"w  c #496375",
"e  c #496A78",
"r  c #5D637D",
"t  c #586777",
"y  c #4B7C7B",
"u  c #59717C",
"i  c #7C616C",
"p  c #686975",
"a  c #7B7C73",
"s  c #6C6B73",
"d  c #92395A",
"f  c #8A3F65",
"g  c #9C3A65",
"h  c #973F6E",
"j  c #AA386C",
"k  c #A73A68",
"l  c #B33C6B",
"z  c #AB3B71",
"x  c #B43672",
"c  c #BA3D71",
"v  c #B73872",
"b  c #A4425D",
"n  c #AD465F",
"m  c #B95659",
"M  c #B9615F",
"N  c #8A4767",
"B  c #94496A",
"V  c #885766",
"C  c #864B73",
"Z  c #825A79",
"A  c #9A5473",
"S  c #935471",
"D  c #994F6D",
"F  c #AA4867",
"G  c #BB456B",
"H  c #B24A6E",
"J  c #BA4967",
"K  c #A8556B",
"L  c #BC5269",
"P  c #B65968",
"I  c #A44E71",
"U  c #A45571",
"Y  c #99746D",
"T  c #876A71",
"R  c #916872",
"E  c #857A71",
"W  c #8D6768",
"Q  c #A3666C",
"!  c #BA6866",
"~  c #BC7166",
"^  c #B3756A",
"/  c #B17A6C",
"(  c #C5585F",
")  c #DB6A5E",
"_  c #E16F5E",
"`  c #C64B6C",
"'  c #CA5565",
"]  c #C75868",
"[  c #D55D66",
"{  c #D25569",
"}  c #D65B68",
"|  c #D85C67",
" . c #C66C62",
".. c #CD6B63",
"X. c #C76465",
"o. c #DC6565",
"O. c #D46C64",
"+. c #DD6B63",
"@. c #D36465",
"#. c #CA7166",
"$. c #DB7363",
"%. c #E36D63",
"&. c #E67162",
"*. c #E97461",
"=. c #EC7966",
"-. c #EE7C6A",
";. c #17807F",
":. c #36817D",
">. c #4B807C",
",. c #728278",
"<. c #F28472",
"1. c #F68C7B",
"2. c #F58A7A",
"3. c #F8907F",
"4. c #1B7D84",
"5. c #247B81",
"6. c #2B7C84",
"7. c #2C7B87",
"8. c #377884",
"9. c #3C6980",
"0. c #546881",
"q. c #487482",
"w. c #0A8E89",
"e. c #0C8888",
"r. c #138C86",
"t. c #1B8A85",
"y. c #108D88",
"u. c #1C8887",
"i. c #0C938C",
"p. c #039B8E",
"a. c #0B9C8E",
"s. c #04958D",
"d. c #13938B",
"f. c #1A938D",
"g. c #129C8D",
"h. c #129187",
"j. c #019C91",
"k. c #0D9E90",
"l. c #149F91",
"z. c #218B86",
"x. c #288687",
"c. c #388B83",
"v. c #388582",
"b. c #239A8A",
"n. c #0AA28F",
"m. c #03A392",
"M. c #0CA392",
"N. c #01AB94",
"B. c #0BAC95",
"V. c #12A492",
"C. c #11AB94",
"Z. c #1BAA95",
"A. c #01B296",
"S. c #0BB396",
"D. c #02B698",
"F. c #0BB598",
"G. c #02BB99",
"H. c #0BBA99",
"J. c #15BA9A",
"K. c #1BBD9B",
"L. c #17B498",
"P. c #27B89A",
"I. c #36BC9D",
"U. c #27A093",
"Y. c #448080",
"T. c #04C39B",
"R. c #0BC49C",
"E. c #0ECA9E",
"W. c #13C39C",
"Q. c #1BC59E",
"!. c #14CA9E",
"~. c #19CB9F",
"^. c #24C19D",
"/. c #27C79F",
"(. c #36C29E",
"). c #1ACFA0",
"_. c #1DD1A0",
"`. c #16D0A0",
"'. c #24CBA0",
"]. c #2ACDA1",
"[. c #35CDA2",
"{. c #3BCBA1",
"}. c #24D3A2",
"|. c #2CD5A3",
" X c #2CD8A4",
".X c #33D4A3",
"XX c #35DBA5",
"oX c #3ADDA6",
"OX c #3BD4A4",
"+X c #3DE0A7",
"@X c #3FE1A8",
"#X c #44CDA3",
"$X c #44DCA6",
"%X c #47D9A6",
"&X c #55DBA8",
"*X c #45E3A9",
"=X c #4BE5A9",
"-X c #4EE9AB",
";X c #41E1A7",
":X c #55E4AA",
">X c #5AE4AA",
",X c #53EAAC",
"<X c #5BEDAD",
"1X c #5EF0AE",
"2X c #63ECAD",
"3X c #68EFAF",
"4X c #63F2AF",
"5X c #68F0AE",
"6X c #67F4B0",
"7X c #6DF7B1",
"8X c #6EF8B1",
"9X c #71F9B2",
"0X c #FA9484",
/* pixels */
"7X7X7X7X7X7X8X7X7X7X7X7X7X7X8X7X7X7X7X7X7X8X7X7X7X7X7X7X7X7X7X7X7X7X7X7X7X7X7X7X8X7X7X7X7X7X7X7X7X7X7X8X7X7X7X7X7X7X7X7X7X7X7X7X",
"7X7X7X7X8X7X7X7X7X8X7X7X7X7X7X7X7X8X7X7X7X7X7X7X7X7X9X7X9X7X7X7X7X7X9X7X7X7X7X7X7X7X7X7X8X7X7X8X7X7X7X7X7X7X7X7X8X7X7X9X7X7X7X7X",
"7X7X8X7X7X7X7X7X7X7X7X8X7X8X7X7X7X7X7X7X7X7X7X7X7X7X7X7X7X7X7X7X7X7X7X7X7X7X7X7X7X7X7X8X7X7X7X7X8X7X7X7X7X7X7X7X7X7X7X7X7X7X7X7X",
"7X7X7X7X7X7X7X7X7X7X7X7X7X7X7X7X7X7X7X7X9X7X7X7X7X7X7X7X7X7X7X7X7X7X7X7X7X7X7X7X7X7X7X7X7X7X7X7X7X7X7X7X7X7X7X7X7X7X7X7X7X8X7X7X",
"7X8X7X7X7X7X7X7X7X7X7X7X7X7X7X7X7X7X9X7X7X7X7X7X7X7X7X7X7X7X7X7X7X7X7X7X7X7X7X7X7X7X7X7X7X7X8X8X8X7X7X7X7X7X7X7X7X7X7X7X7X7X7X8X",
"7X7X7X7X7X7X7X7X7X7X7X7X7X6X6X7X7X6X4X2X1X6X7X7X7X7X7X7X9X7X7X7X7X7X7X7X9X7X7X7X7X8X7X7X7X7X7X4X6X6X7X7X7X7X7X7X7X7X8X7X7X7X7X7X",
"4X4X4X4X7X7X7X7X7X7X7X7X6X2X2X5X7X6X,X*X=X,X6X7X9X7X7X7X7X7X7X7X7X7X7X7X7X7X7X7X7X7X7X7X7X4X4X,X=X-X6X7X7X7X7X7X7X7X7X7X8X7X7X7X",
"4X1X4X4X7X7X7X7X7X7X7X2X&X&X&X2X6X6X,X;XoX;X1X8X7X9X7X7X7X7X3X2X6X7X7X7X7X8X8X8X8X8X8X8X9X6X,X=X*X,X4X7X7X7X7X7X7X7X7X7X7X7X7X7X",
"4X4X6X6X7X8X7X7X8X7X4X-X(.(.#X&X3X7X6X,XoX+X1X8X8X7X7X8X8X2X&X%X:X<X<X6X6X7X9X7X7X9X9X9X9X1X+XoX,X4X8X8X8X7X7X7X8X7X7X7X7X7X7X7X",
"=X=X$X=X<X4X7X7X7X4X,XOXQ.K./.#X:X1X<X$X'.'.=X1X6X6X6X6X6X&XI.I.$X=X;X;X<X2X2X<X2X>X,X,X,X$X}.|.,X7X4X4X6X7X7X7X7X7X7X7X7X7X7X7X",
"J.J.J.^..X=X4X7X4X,X*X|.W.D.H.^.OXXX}.W.B.C.'.oX=X,X,X-X*X[.Z.Z.].XX_._.XXoX#XOX#X[.'.).Q.J.R.~.;X,X,X<X4X6X7X7X7X7X8X7X7X7X7X7X",
"m.j.m.N.Q.XX,X4X-XoX X~.F.A.A.H.).).T.A.s.s.F.). XXXXXXX|.W.i.a.K._.T.R.).'.'.P.P.J.B.m.p.p.m.H.|.oXXX+X-X<X6X6X7X7X7X6X7X7X7X8X",
"i.i.i.M.F.).*X=XXX}.E.H.n.a.a.n.F.D.A.j.e.e.B.T.E.`.E.E.R.S.r.y.B.T.G.T.T.R.F.F.F.B.m.w.4.X y.M.R.E.!.`. X*X,X6X7X7X1X1X7X7X7X7X",
"x.6.7.z.a.F.].].Q.H.N.a.t.# # x.z.r.f.u.@ 6.f.M.A.D.A.A.A.i.$ @ f.M.A.A.D.D.N.N.N.m.u.% > . @ u.M.D.G.T._. X@X=X,X<X,X<X6X7X7X7X",
"< < < w 5.i.k.M.m.j.w.5.. < 7 7 0., w ; 5 5 e 7.i.j.j.j.w.# : 5 0.x.s.j.j.j.j.s.j.y.+ 5 4 4 5 + y.m.A.G.T.E.`.'. XoX=X<X7X7X7X7X",
"N N N 9 t + 7.5.5.% & w 4 N B D A S V V B B 8 r 8.5.5.$ & 0 V B 8 , 8.5.5.5.5.4.4.+ 3 h k g f 5 + ;.h.n.M.A.D.`.}.oX,X1X6X7X7X7X",
"] L L P K S C 9 3 2 4 N F H H L ] O.@.X.] L H U V V i 6 6 W L ] K B N 9 4 3 2 5 2 4 h j j j g f 2 = O % X e.m.K.XX,X1X6X7X7X7X7X",
"o.o.| | { { G l b b n J ' { { [ &.*.*.*.o.[ { ' ( m m m ( ( ) ) ' J G l F k b b b b x v x j k g d - = . o e.k.P.$X6X7X7X8X7X7X8X",
"_ %.%.&.%.o.[ ' ' ' ' | o.%.%.%.*.*.*.*.&.%.%.%.+.) ) ) ) _ _ &.+.[ { ' { ' ' ' ' ` c v x x x k d d = . X g.J..X,X7X7X7X8X7X7X7X",
"*.*.*.*.*.&.o.o.o.%.%.%.*.*.*.*.*.*.*.*.*.*.*.*.*.*.*.*.*.*.*.*.*.%.o.o.o.%.o.%.o.[ ` c v v x z g - ; % r.C./.;X6X7X7X7X7X7X7X7X",
"*.*.*.*.*.*.&.&.&.&.&.*.*.*.*.*.*.*.*.*.*.*.*.*.*.*.*.*.*.*.*.*.*.&.%.&.*.%.*.%.&.%.} ' ` ` v z h 7 & r.m.J.XX,X6X8X7X7X7X7X7X7X",
"*.*.*.*.*.*.*.*.*.*.&.&.*.*.*.*.*.*.*.*.*.*.*.*.*.*.*.*.*.&.&.%.*.*.*.*.*.*.*.*.*.&.%.| } { ` z N 7 x.m.A.!.*X4X7X7X7X7X7X7X8X7X",
"*.*.*.*.*.*.*.*.*.&.%.) &.*.*.*.*.*.*.*.*.*.*.*.*.*.*.*.*.&.o.o.*.*.*.*.*.*.*.*.*.*.&.%.%.o.` F 4 > r.N.D.~.,X7X7X7X7X7X7X7X7X7X",
"*.*.*.*.*.*.*.*.*.%.%.%.&.*.*.*.*.*.*.*.*.*.*.*.*.*.*.*.*.%.o.o.%.*.=.*.=.=.=.=.*.*.*.*.*.%.} P 2 O h.A.G.`.,X8X8X7X7X8X7X7X7X7X",
"*.*.*.*.*.*.*.*.*.&.) %._ *.*.*.*.*.*.*.*.*.*.*.*.*.*.*.*.*._ &.=.-.<.<.<.<.<.<.-.*.*.*.*.*.o.P 2 O i.A.G.~.,X9X8X8X7X7X7X7X7X7X",
"*.*.*.*.*.*.*.*.*.&.%.%.&.*.*.*.*.*.*.*.*.*.*.*.*.*._ *.*.*.*.*.-.<.2.3.3.1.1.2.<.<.*.*.*.*.%.X.V 0 :.a.N.Q.*X1X6X6X7X7X7X7X7X7X",
"*.*.*.*.*.*.*.*.*.*.%.&.&.*.*.*.*.*.*.*.*.*.*.*.*.*.*.*.*.*.*.-.2.0X0X0X0X0X0X0X3.<.-.*.*.*.*.O.M W 0 % h.C.P..X*X<X6X7X7X7X7X7X",
"*.*.*.*._ *.*.*.*.*.*.*.*.*.*.*.*.*.*.*.&.*.*.*.*.*.*.*.*.*._ -.1.0X0X0X0X0X0X0X0X2.-.*.*.*.*.&.) m 6 > # d.B.K..X=X6X7X8X7X7X7X",
"*.*.*.*.*.*.*.*.*.*.&.*.*.*.*.*.*.&.*.*.*.*.*.*.*.*.*.=.*.*.*.=.2.0X0X0X0X0X0X0X3.2.-.*.*.*.*.&.) X.V : @ r.a.J.'.oX1X8X7X7X7X7X",
"*.*.*.*.*.*.*.*.*.*.*.*.*.*.*.*.*.*.*.*.*.*.*.*.*.*.-.-.*.*.*.-.<.2.1.0X0X0X0X0X2.<.*.*.*.*.*.*.+.! V w # d.Z.P.|.*X1X7X7X7X7X8X",
"*.*.*.&.*.*.*.*.*.*.*.*.*.*.*.*.*.*.*.*.*.*.*.*.*.=.-.-.*.*.*.=.=.-.<.<.<.<.<.<.<.=.=.*.*.*.*.&.O.Y >.b.k.L.[.$X,X6X7X7X7X7X7X7X",
"*.*.*.*.*.*.*.*.*.*.*.*.*.*.*.*.*.*.*.*.*.*.*.*.*.*.=.*.*.*.*.*.*.=.-.-.-.-.-.=.=.-.*.*.*.*.*.$.#.E c.n.A.`.*X6X7X7X7X7X8X7X7X7X",
"*.*.*.*.*.*.*.*.*.*.*.*.*.*.*.*.*.*.*.*.*.*.*._ *.*.*.*.*.*.*.*.*.*.*.=.*.=.=.=.=.-.=.=.*.*.*.$. .a c.p.D.).-X7X8X7X7X7X7X7X7X7X",
"*.*.*.*.*.*.*.*.*.*.*.*.*.*.*.*.*.*.*.*.*.*.*.*.*.*.*.*.*.*.*.*.*.*.*.*.*.*.=.<.<.<.<.-.=.=.*._  .Y y t.k.P.&X6X7X8X7X7X7X7X7X7X",
"*.*.*.*.*.*.*.*.*.*.*.*.*.*.*.*.*.*.*.*.*.*.*.*.*.*.*.*.*.*.*.*.*.*.*.*.&.=.<.2.3.3.1.2.<.-.=.*.$.! R t x.U.OX,X6X9X7X7X8X7X7X7X",
"*.*.*.*.*.*.*.*.*.*.*.*.-.*.*.*.*.*.*.*.*.*.*.*.*.*.*.*.*.*.*.*.*.*.*.*.*.=.<.0X0X0X0X1.<.-.=.*.)  .U 8 9.x.P.OX-X1X7X7X7X7X7X7X",
"*.*.*.*.*.*.*.*.*.*.=.-.-.-.*.*.*.*.*.*.*.*.*.*.*.*.*.*.*.*.*.*.*.*.*.*.*.=.<.1.0X0X0X2.<.-.*.&.) M V t * u.l.P.}.=X1X7X7X7X8X7X",
"*.*.*.*.*.*.*.*.*.*.=.-.<.-.*.*.*.*.*.*.*.*.*.*.*.*.*.*.*.*.*.*.*.=.*.*.*.*.-.<.2.1.2.<.-.=.*.&.$.Q p & 4.y.Z.'..XoX<X6X7X8X7X7X",
"*.*.*.*.*.*.*.*.*.*.*.=.*.*.*.*.*.*.*.*.*.*.*.*.*.*.*.*.*.*.*.*.=.-.-.*.*.*.=.-.=.-.-.=.*.*.*.$.~ a :.g.C.'.%X>X<X,X=X,X6X7X8X7X",
"%._ &.*.*.*.*.*.*.*.*.*.*.*.*.*.*.*.*.*.*.*.*.*.*.*.*.*.*.*.*.*.=.=.=.=.*.*.*.*.*.*.*.*.*.*.=.$./ ,.b.G.).XX<X9X9X4X-X,X1X7X8X7X",
"[ o.%.*.*.*.*.*.*.*.*.*.*.*.*.*.*.*.*.*.*.*.*.*.*.*.*.*.*.*.*.*.*.*.*.*.*.*.*.*.*.*.*.*.*.*.*.$.^ ,.b.F.|.-X6X9X9X7X4X4X7X7X7X7X",
"| o.%.*.*.*.*.*.*.*.*.*.*.*.*.*.*.*.*.*.*.*.*.*.*.*.*.*.*._ *.*.*.*.*.*.*.*.*.*.*.*.*.*.*.*.*.O.^ a b.S.'.$X<X4X3X4X7X7X7X7X7X7X",
"%._ *.*.*.*.*.*.*.*.*.*._ *.*.*.*.*.*.*.*.*.*.*.*.*.*.*.*.*.*.*.*.*.*.*.*.*.*.*.*.*.&.*.%.&.&.O.~ a x.k.B.'.$X&X&X>X3X7X7X7X7X7X",
"*.*.*.*.*.*.*.*.*.*.*.*.*.*.*.*.*._ *.*.*.*.*.*.*.*.*.*.*.*.*.*.*.*.*.*.*.*.*.*.*.*.*.&.%.%.%.@.! T v.w.j.M.'.[.I.#X2X7X7X7X7X7X",
"*.*.*.*.*.*.*.*.*.*.*.*.*.*.*.*.*.*.*.*.*.*.*.*.*.*.*.*.*.*.*.*.*.*.*.*.*.*.*.*.*.*.*.&.+.o.%.@.M i & ;.s.j.F.L.Z.I.&X9X9X7X7X7X",
"*.*.*.*.*.*.*.*.*.*.*.*.*.*.*.*._ *.*.*.*.*.*.*.*.*.*.*.*.*._ *.*.*.*.*.*.*.*.*.*.*.*.&.%.%.%.X.W s ;.;.s.m.F.L.Z.I.2X9X7X7X7X7X",
"*.*.*.*.*.*.*.*.*.*.*.*.*.*.*.*.*.*.*.*.*.*.*.*.*.*.*.*.*.*.*.*.*.*.*.*.*.*.*.*.*.*.*.&.&.&.*.~ s ;.g.S.D.H.].oX&X&X4X7X7X7X7X7X",
"*.*.*.*.*.*.*.*.*.*.*.*.*.*.*.*.*.*.*.*.*.*.*.*.*.*.*.*.*.*.*.*.*.*.*.*.*.*.*.*.*.*.*.*.*.*.*.~ >.;.A.T.T.).;X,X6X7X7X7X7X7X7X9X",
"*.*.*.*.&.=.*.*.*.*.*.*.*.*.*.*.*.*.*._ *.*.*.*.*.*.*.*.*.*.*.*.*.*.*.*.*.*.*.*.*.*.*.*.*.*.*./ :.m.A.T.E.}.-X6X8X8X8X6X8X7X8X7X",
"%.%.%.%.%.=.*.*.*.*.*.*.*.*.*.*.*.*.*.*.*.*.*.*.*.*.*.*.*.*.*.*.*.*.*.*.*.*.*.*.*.*.*.*.*.*.*./ :.N.G.T.`.XX4X8X8X8X8X8X8X8X7X7X",
"{ ' { } o.%.%.=.*.*.*.*.*.*.*.*.*.*.*.*.*.*.*.*.*.*.*.*.*.*.*.*.*.*.*.*.*.*.*.*.*.*.*.*.*.*.*./ :.p.A.E. X-X5X8X8X8X8X8X7X7X7X7X",
"I I I H ] @.o.%.%.%.*.*.*.*.*.*.*.*.*.*.*.*.*.*.*.*.*.*.*.*.*.*.*.*.*.*.*.*.*.*.*.*.*.*.*.*.*.^ >.s.A.!.oX-X1X5X6X8X6X8X7X8X7X7X",
"7 , , 8 A H { { { o.%.=.*.*.*.*.*.*.*.*.*.*.*.*.*.*.*.*.*.*.*.*.*.*.*.*.*.*.*.*.*.*.*.*.*.*.*.~ y X n.E.XX-X-X-X4X7X7X7X7X7X7X8X",
"7.7.7.8.0.T U I A U X.O.*.*.*.*.*.*.*.*.*.*.*.*.*.*.*.*.*.*.*.*.*.*.*.*.*.*.*.*.*.*.*.*.*.*.*.O.i q t.C.(.OXOX*X1X7X7X7X7X7X7X7X",
"L.L.C.M.f.8.0.0.8.q.R X.%.*.*.*.*.*.*.*.*.*.*._ *.*.*._ *.*.*.*.*.*.*.*.*.*.*.*.*.*.*.*.*.*.*.O.M V 0 :.f.P.(.:X<X5X7X7X8X7X7X7X",
" X}._.R.D.l.v.7.a.z.p Q O.*.*.*.*.*.*.*.*.*.*.*.*.*.*.*.*.*.*.*.*.*.*.*.*.*.*.*.*.*.*.*.*.*.*.%.' K 6 O ;.l.(.%X,X4X7X7X7X7X7X7X",
"-X=X@X|.).F.M.M.A.V.Y.E #.=.=.&.*.*.*.*.*.*.*.*.*.*.*.*.*.*.*.*.*.*.*.*.*.*.*.*.*.*.*.*.*.*.*._ %.P 6 q ;.g.K.(.:X4X6X8X8X8X6X8X",
"6X4X,X=XXX}.W.G.G.C.q.s ! %.&.*.*.*.*.*.*.*.*.*.*.*.*.*.*.*.*.*.*.*.*.*.*.*.*.*.*.*.*.*.*.*.*.&.o.! s e t.M.J.|.,X6X8X8X8X8X8X8X",
"7X6X6X4X<X=X'.T.G.l.q.8 L | %.*.*.*.*.*.*.*.*.*.*.*.*.*.*.*.*.*.*.*.*.*.*.*.*.*.*.*.*.*.*.*.*.&.X.S e ;.a.F./.;X2X8X8X6X7X7X8X7X",
"7X9X7X9X9X1XXX).D.f.0.C H { %.*.*.*.*.*.*.*.*.*.*.*.*.*.*.*.*.*.*.*.*.*.*.*.*.*.*.*.*.*.&.*.*.+.! i & w.N.W.oX,X4X8X8X8X7X7X7X7X",
"7X7X7X9X9X4X=X|.B.f.0.A G { o.=.*.*.*.*.*.*.*.*.*._ *.*.*.*.*.*.*.*.*.*.*.*.*.*.*.*.*.*.*.*.&.) S < u.N.A.~.=X4X7X7X7X7X7X7X7X7X",
"7X7X9X6X4X<X=XXXJ.x.0.Z I ] +.=.*.*.*.*.*.*.*.*.*.*.*.*.*.*.*.*.*.*.*.*.*.*.*.*.%.%.*.*.*.*.*...V w d.A.G._.,X9X7X7X7X7X8X7X7X7X",
"7X7X7X4X,X*XoX X).Z.x.q.s Q O.*.*.*.*.*.*.*.*.*.*.*.*.*.*.*.*.*.*.*.*.*.*.*.*._ o.o.&.*.*.*.*...6 O d.N.G.`.,X8X8X7X7X7X7X7X7X7X",
"7X9X9X1X=XXXXX|._.Q.Z.x.0.R #.*.*.*.*.*.*.*.*.*.*.*.*.*.*.*.*.*.*.*.*.*.*.*.*.%.@.| %.*.*.*.*. .6 O d.N.G._.,X8X8X7X7X7X7X7X7X8X"
};
