/* XPM */
static char *result[] = {
/* columns rows colors chars-per-pixel */
"64 64 213 2 ",
"   c #7E3F5B",
".  c #375D6D",
"X  c #187B7F",
"o  c #1B6C7B",
"O  c #39656D",
"+  c #396B76",
"@  c #2D747C",
"#  c #247C7F",
"$  c #2B7C7D",
"%  c #287379",
"&  c #36757B",
"*  c #2D677F",
"=  c #564C5F",
"-  c #714B5B",
";  c #495C6D",
":  c #575769",
">  c #455F72",
",  c #5D5A7C",
"<  c #5A5A72",
"1  c #594C61",
"2  c #6B4E65",
"3  c #6D4D69",
"4  c #774A69",
"5  c #63516A",
"6  c #785766",
"7  c #665775",
"8  c #785676",
"9  c #7B4C71",
"0  c #55646D",
"q  c #446472",
"w  c #496375",
"e  c #496A78",
"r  c #5D637D",
"t  c #586777",
"y  c #4B7C7B",
"u  c #59717C",
"i  c #7C616C",
"p  c #686975",
"a  c #7B7C73",
"s  c #6C6B73",
"d  c #92395A",
"f  c #8A3F65",
"g  c #9C3A65",
"h  c #973F6E",
"j  c #AA386C",
"k  c #A73A68",
"l  c #B33C6B",
"z  c #AB3B71",
"x  c #B43672",
"c  c #BA3D71",
"v  c #B73872",
"b  c #A4425D",
"n  c #AD465F",
"m  c #B95659",
"M  c #B9615F",
"N  c #8A4767",
"B  c #94496A",
"V  c #885766",
"C  c #864B73",
"Z  c #825A79",
"A  c #9A5473",
"S  c #935471",
"D  c #994F6D",
"F  c #AA4867",
"G  c #BB456B",
"H  c #B24A6E",
"J  c #BA4967",
"K  c #A8556B",
"L  c #BC5269",
"P  c #B65968",
"I  c #A44E71",
"U  c #A45571",
"Y  c #99746D",
"T  c #876A71",
"R  c #916872",
"E  c #857A71",
"W  c #8D6768",
"Q  c #A3666C",
"!  c #BA6866",
"~  c #BC7166",
"^  c #B3756A",
"/  c #B17A6C",
"(  c #C5585F",
")  c #DB6A5E",
"_  c #E16F5E",
"`  c #C64B6C",
"'  c #CA5565",
"]  c #C75868",
"[  c #D55D66",
"{  c #D25569",
"}  c #D65B68",
"|  c #D85C67",
" . c #C66C62",
".. c #CD6B63",
"X. c #C76465",
"o. c #DC6565",
"O. c #D46C64",
"+. c #DD6B63",
"@. c #D36465",
"#. c #CA7166",
"$. c #DB7363",
"%. c #E36D63",
"&. c #E67162",
"*. c #E97461",
"=. c #EC7966",
"-. c #EE7C6A",
";. c #17807F",
":. c #36817D",
">. c #4B807C",
",. c #728278",
"<. c #F28472",
"1. c #F68C7B",
"2. c #F58A7A",
"3. c #F8907F",
"4. c #1B7D84",
"5. c #247B81",
"6. c #2B7C84",
"7. c #2C7B87",
"8. c #377884",
"9. c #3C6980",
"0. c #546881",
"q. c #487482",
"w. c #0A8E89",
"e. c #0C8888",
"r. c #138C86",
"t. c #1B8A85",
"y. c #108D88",
"u. c #1C8887",
"i. c #0C938C",
"p. c #039B8E",
"a. c #0B9C8E",
"s. c #04958D",
"d. c #13938B",
"f. c #1A938D",
"g. c #129C8D",
"h. c #129187",
"j. c #019C91",
"k. c #0D9E90",
"l. c #149F91",
"z. c #218B86",
"x. c #288687",
"c. c #388B83",
"v. c #388582",
"b. c #239A8A",
"n. c #0AA28F",
"m. c #03A392",
"M. c #0CA392",
"N. c #01AB94",
"B. c #0BAC95",
"V. c #12A492",
"C. c #11AB94",
"Z. c #1BAA95",
"A. c #01B296",
"S. c #0BB396",
"D. c #02B698",
"F. c #0BB598",
"G. c #02BB99",
"H. c #0BBA99",
"J. c #15BA9A",
"K. c #1BBD9B",
"L. c #17B498",
"P. c #27B89A",
"I. c #36BC9D",
"U. c #27A093",
"Y. c #448080",
"T. c #04C39B",
"R. c #0BC49C",
"E. c #0ECA9E",
"W. c #13C39C",
"Q. c #1BC59E",
"!. c #14CA9E",
"~. c #19CB9F",
"^. c #24C19D",
"/. c #27C79F",
"(. c #36C29E",
"). c #1ACFA0",
"_. c #1DD1A0",
"`. c #16D0A0",
"'. c #24CBA0",
"]. c #2ACDA1",
"[. c #35CDA2",
"{. c #3BCBA1",
"}. c #24D3A2",
"|. c #2CD5A3",
" X c #2CD8A4",
".X c #33D4A3",
"XX c #35DBA5",
"oX c #3ADDA6",
"OX c #3BD4A4",
"+X c #3DE0A7",
"@X c #3FE1A8",
"#X c #44CDA3",
"$X c #44DCA6",
"%X c #47D9A6",
"&X c #55DBA8",
"*X c #45E3A9",
"=X c #4BE5A9",
"-X c #4EE9AB",
";X c #41E1A7",
":X c #55E4AA",
">X c #5AE4AA",
",X c #53EAAC",
"<X c #5BEDAD",
"1X c #5EF0AE",
"2X c #63ECAD",
"3X c #68EFAF",
"4X c #63F2AF",
"5X c #68F0AE",
"6X c #67F4B0",
"7X c #6DF7B1",
"8X c #6EF8B1",
"9X c #71F9B2",
"0X c #FA9484",
/* pixels */
"7X7X7X7X7X7X7X9X9X,X).G.N.i.O 6  .*.*.*.*.&.[ [ %.*.*.*.*.*.*.*.*.*.*.*.*.*.*.*.*.*.*.*.*.*.*.*.*.#.Y u x.B.W.'.|. XXX=X1X7X7X7X",
"7X7X7X7X7X7X7X8X8X,X).G.A.d.q 6 ..*.*.*.*.&.| o.&.*.*.*.*.*.*.*.*.*.*.*.*.*.*.*.*.*.*.*.*.*.*.*.*.O.U s q.x.L.). XoX*X,X6X7X7X7X",
"7X7X8X7X8X7X8X8X9X,X_.G.N.f.w V ..*.*.*.*.*.&.&.*.*.*.*.*.*.*.*.*.*.*.*.*.*.*.*.*.*.*.*.*.*.*.*.*.+.] U Z 0.f.J..X-X<X6X7X7X7X7X",
"7X7X7X7X8X8X6X7X6X=X`.A.m.z.0 D O.*.*.*.*.*.*.*.*.*.*.*.&.*.*.*.*.*.&.*.*.*.*.*.*._ *.*.*.*.*.*.*.%.{ H z 0.u.F.|.-X6X7X9X7X7X7X",
"7X8X7X7X7X7X8X6X,XoXR.m.i.& i ! O.*.*.*.*.*.*.*.*.*.*.*.*.*.*.*.*.*.*.*.*.*.*.*.*.*.*.*.*.*.*.*.*.%.{ H C 0.f.G.).XX1X9X7X7X7X7X",
"7X7X7X7X7X8X8X<X$X'.F.a.u.w V X._ *.*.*.*.*.*.*.*.*.*.*.*.&.*.*.*.*.*.*.*.*.*.*.*.*.*.*.*.*.*.*.*.%.} P 8 q.l.G.R.}.*X1X6X6X6X7X",
"7X7X7X7X7X7X6X,X].K.k.t.+ s ! o.&.*.*.*.*.*.*.*.*.*.*.*.*.*.*.*.*.*.*.*.*.*.*.*.*.*.*.*.*.*.*.*.*.*.%.X.s v.C.G.D.R.'.XX=X<X4X6X",
"7X7X8X7X7X7X4X:X[.L.g.z.w 6 P o.&.*.*.*.*.*.*.*.*.*.*.*.*.*.*.*.*.*.*.*.*.*.*.*.*.*.*.*.*.*.*.*.*.*.*.#.T q.Z.A.M.M.H.). XoX=X-X",
"7X7X7X7X7X7X4X<X%XI.g.;.q 6 K @._ *.*.*.*.*.*.*.*.*.*.*.*.*.*.&.*.*.*.*._ *.*.*.*.*.*.*.*.*.*.*.*.*.=.O.Q p f.i.7.x.M.D.R.`.}. X",
"8X7X7X7X7X7X4X<X%X{.P.f.& 0 V K _ *.*.*.*.*.*.*.*.*.*.*.*.*.*.*.*.*.*.*.*.*.*.*.*.*.*.*.*.*.*.*.*.*.*.+.X.R q.8.0.0.8.U.V.B.L.K.",
"7X7X7X7X7X7X8X1X=XoXOX(.L.;.O i  .*.*.*.*.*.*.*.*.*.*.*.*.*.*.*.*.*._ *.*.*.*.*.*.*.*.*.*.*.*.*.*.*.*.&.+.X.U U H I Z 0.9.9.7.7.",
"7X7X7X7X7X7X8X4X,X=X-XoX!.n.;.u #.*.*.*.*.*.*.*.*.*.*.*.*.*.*.*.*.*.*.*.*.*.*.*.*.*.*.*.*.*.*.*.*.*.*.*.-.%.| { { { L A 0.0.7 0.",
"7X8X7X7X7X7X7X6X4X1X-X+X!.A.;.:.~ *.*.*.*.*.*.*.*.*.*.*.*.*.*.*.*.*.*.*.*.*.*.*.*.*.*.*.*.*.*.*.*.*.*.*.*.*.%.%.%.o.| { G I I I ",
"7X7X7X7X8X7X7X8X8X4X=X XE.A.N.:.^ *.*.*.*.*.*.*.*.*.*.*.*.*.*.*.*.*.*.*.*.*.*.*.*.*.*.*.*.*.*._ *.*.*.*.*.*.*.*.*.*.%.o.| { { { ",
"7X7X7X7X7X7X8X8X9X1XXX_.T.D.m.:./ *.*.*.*.*.*.*.*.*.*.*.*.*.*.*.*.*.*.*.*.*.*.*.*.*.*.*.*.*.*.*.*.*.*.*.*.*.*.*.*.*.&.&.%.%.%.%.",
"7X8X7X7X7X8X7X8X4X,X}.E.T.G.m.:.^ *.*.*.*.*.*.*.*.*.*.*.*.*.&.*.*.*.*.*.*.*.*.*.*.*.*.*.*.*.*.*.*.*.*.*.*.*.*.*.*.*.*.*.&.*.*.&.",
"7X7X7X7X7X7X6X4X<X;X~.T.G.A.;.:./ *.*.*.*.*.*.*.*.*.*.*.*.*.*.*.*.*.*.*.*.*._ *.*.*.*.*.*.*.*.&.*.*.*.*.*.*.*.*.*.*.*.*.*.*.*.*.",
"7X7X7X7X9X4X>X%XoX].H.D.N.g.:.s ~ *.&.%.&.*.*.*.*.*.*.*.*.*.*.*.*.*.*.*.*.*.*.*.*.*.*.*.*.*.*.*.*.*.*.*.*.*.*.*.*.*.*.*.*.*.*.*.",
"8X7X7X7X7X2XI.P.J.S.m.s.y.$ s W ..) %.%.&.*.*.*.*.*.*.*.*.*.*.*.*.*.*.*.*.*.*.*.*.*.*.*.*.*.*.*.*.*.*.*.*.*.*.*.*.*.*.*.*.*.*.*.",
"7X7X7X9X8X&XI.Z.F.S.p.w.e.& i M ) ) o.%.&.*.*.*.*.*.*.*.*.*.*.*.*.*.*.*.*.*.*.*.*.*.*.*.*.*.*.*.*.*.*.*.*.*.*.*.*.*.*.&.*.*.*.*.",
"7X7X7X7X8X2X#XI.(./.S.p.s.:.T ! ) o.%.%.&.*.*.*.*.*.*.*.*.*.*.*.*.*.*.*.*.*.*.*.*.*.*.*.*.*.*.*.*.*.*.*.*.*.*.*.*.*.*.*.*.*.*.*.",
"8X7X7X7X8X3X&X&X:X$X^.S.m.:.a ^ +.&.&.&.*.*.*.*.*.*.*.*.*.*.*.*.*.*.*.*.*.*.*.*.*.*.*.*.*.*.*.*.*.*.*.*.*.*.*.*.*.*.*.*.*.*.&.+.",
"7X7X7X7X8X7X3X3X5X<X*X/.S.b.a ^ O.*.*.*.*.*.*.*.*.*.*.*.*.*.*.*.*.*.*.*.*.*.*.*.*.*.*.*.*.*.&.*.*.*.*.*.*.*.*.*.*.*.*.*.*.%.o.[ ",
"7X7X7X7X4X4X7X9X9X4X-X|.H.b.,.^ $.*.*.*.&.*.*.*.*.*.*.*.*.*.=.*.*.*.*.*.*.*.*.*.*.*.*.*.*.*.*.*.*.*.*.*.&.*.*.*.*.*.*.*.*.%.o.@.",
"7X8X8X2X-X,X6X8X9X1X+X!.D.b.,.^ $.*.*.*.*.*.*.*.*.*.*.*.=.=.=.=.*.*.*.*.*.*.*.*.*.*.*.*.&.*.*.*.*.*.*.*.*.*.*.*.*.*.*.*.*.&.&.%.",
"7X8X8X4X-X=X,X<X>X$X^.C.n.c.E ~ $.*.*.=.=.-.=.-.=.*.*.*.=.=.=.=.&.*.*.*.*.*.*.*.*.*.*.*.*.*.*.*.*.*.*.*.=.*.*.*.*.*.&.*.*.*.*.*.",
"7X7X7X7X6X,X$X|.'.Z.f.4.& p Q ..*.*.=.-.<.2.1.2.<.-.=.*.*.=.*.*.*.*.*.*.*.*.*.*.*.*.*.*.*.*.*.*.*.=.-.<.-.=.*.*.*.*.*.*.*.*.*.*.",
"7X7X7X7X7X6X;X|.K.M.4.9.< W M ) *.*.=.<.1.3.0X0X1.<.=.*.*.*.*.*.*.*.*.*.*.*.*.*.*.*.*.*.*.*.*.*.*.*.=.<.=.=.*.*.*.*.*.*.*.*.*.*.",
"7X7X7X7X8X7X2X,XOXP.x.9.7 U X._ &.*.<.<.1.0X0X0X3.2.=.*.*.*.*.*.*.*.*.*.*.*.*.*.*.*.*.*.*.*.*.*.*.*.=.=.*.*.*.*.*.*.*.*.*.*.*.*.",
"7X8X7X7X7X7X8X6X,XOXU.7.r R ! $.&.=.-.<.2.1.3.3.2.<.=.*.*.*.*.*.*.*.*.*.*.*.*._ *.*.&.*.*.*.*.&.*.*.*.*.*.*.*.*.*.*.*.*.*.*.*.*.",
"7X7X7X7X7X7X8X7X7X=XK.l.u.y Y  ._ *.=.=.-.<.<.<.-.-.*.*.*.*.*.*.*.*.*.*.*.*.*.*.*.*.*.*.*.*.*.*.*.*.*.*.*.*.*.*.*.&.*.*.*.*.*.*.",
"7X7X7X8X7X7X8X8X7X-X).N.m.c.E ~ $.*.*.*.=.=.=.-.=.=.=.*.*.=.*.*.*.*.*.*.*.*.*.*.*.*.*.*.*.*.*.*.*.*.*.*.*.*.*.*.*.*.*.*.*.*.*.*.",
"7X7X7X7X7X8X8X8X4X=X!.A.B.Y.E  .$.*.*.*.*.=.=.=.-.-.-.-.-.-.*.*.*.*.*.*.=.*.*.*.*.&.*.*.*.*.*.*.*.*.*.*.*.*.*.*.*.*.*.*.*.*.*.*.",
"7X7X7X7X7X6X4X,X=X/.L.a.b.>.Y #.&.*.*.*.*.*.=.-.<.<.<.<.<.<.-.-.*.*.*.*.=.<.*.*.*.*.*.*.*.*.&.*.*.*.*.*.*.*.*.*.*.*.*.*.*.*.&.*.",
"7X7X7X7X8X4X+X|.^.Z.f.# 0 i ! O.&.*.*.*.*.=.<.2.0X0X0X0X0X1.2.<.<.*.*.*.=.=.*.*.*.*.*.*.*.*.*.*.*.*.*.*.*.*.*.*.*.*.*.*.*.*.*.*.",
"8X7X7X7X8X1X+X/.L.n.t.@ : V ] %.&.*.*.*.*.-.<.0X0X0X0X0X0X0X0X2.*.*.*.*.=.=.*.*.*.*.*.*.*.*.*.*.*.*.*.*.*.*.*.*.&.*.*.*.*.*.*.*.",
"7X7X7X7X8X4X*X.XK.B.d.# > 6 m O.&.*.*.*.*.-.1.0X0X0X0X0X0X0X0X1.<.*.&.*.*.*.*.*.*.*.*.*.*.*.&.*.*.*.*.*.*.*.*.*.*.*.*.*.*.*.*.*.",
"7X7X8X7X9X6X1X=XOX^.B.r.# 0 W m O.*.*.*.*.=.2.0X0X0X0X0X0X0X0X<.*.*.*.*.*.*.*.*.*.&.*.*.*.*.*.*.*.*.*.*.&.&.*.*.*.*.*.*.*.*.*.*.",
"7X7X7X7X7X6X4X4X1X$XQ.N.a.:.0 V ] %.*.*.*.=.-.<.2.0X0X2.0X2.<.-.*.*.*.*.*.*.*.*.*.*.*.*.*.*.*.*.*.*.*.&._ %.%.*.*.*.*.*.*.*.*.*.",
"7X7X7X7X7X8X9X9X9X,X).G.A.h.O 2 P %.&.*.*.*.=.-.-.<.<.<.<.<.-.*.&.$.*.*.*.*.*.*.*.*.*.*.*.*.*.*.*.*.*._ %.o.&.*.*.*.*.*.*.*.*.*.",
"8X7X7X7X7X7X7X9X9X,X_.G.A.h.O 2 F o.%.*.*.*.*.=.*.-.=.*.-.-.*.*.o.o.&.*.*.*.*.*.*.*.*.*.*.*.*.*.*.*.*.&.%.+.&.*.*.*.*.*.*.*.*.&.",
"7X7X7X7X7X8X7X7X7X-X~.G.N.r.q 4 F ' o.%.&.&.*.*.*.*.*.*.*.*.*.%.@.o.%.*.*.*.*.*.*.*.*.*.*.*.*.*.*.*.*.%.%.%.&.*.*.*.*.*.*.*.*.*.",
"7X7X7X7X7X7X7X6X4X*X!.A.m.z.< f z ` ` } o.%.&.*.*.*.*.*.*.*.*.*.&.&.&.*.*.*.*.*.*.*.*.*.*.*.*.*.*.*.*.*.%.&.*.*.*.*.*.*.*.*.*.*.",
"7X7X8X7X7X7X9X6X,XXXJ.n.r.& 8 h z v ` ` { { %.&.*.%.*.%.%.%.*.*.*.*.*.*.*.*.*.*.*.*.*.*.*.*.*.*.*.*.*.*.*.&.*.%._ &.*.*.*.*.*.*.",
"7X7X8X7X8X8X9X1X;X/.C.r.% ; 4 g j x c c c ` } o.o.%.o.o.o.+.%.*.*.*.*.*.*.*.*.*.*.*.*.*.*.*.*.*.*.*.*.*.&._ o.o.%.o.&.*.*.*.*.*.",
"7X7X7X7X7X7X7X,X|.J.g.X . =   d k x x x x c ` ] ' ( ' ' ' { [ o.%.&._ ) ) _ ) ) _ &.%.%.*.*.*.*.%.%.%.o.| ' ' ' ' [ o.%.&.&.%.&.",
"7X7X7X7X9X6X4X%XP.M.X o . = - d g k x x v j k b g b n F l G J ] o.) ( m m m m ( ' { [ o.*.*.*.%.} { { ' m F b b l l ` | [ o.| o.",
"8X7X7X7X6X1X,XoXJ.m.w.X % . = - f g j x j B 4 2 2 2 4 4 9 C B F P P K 6 6 6 6 W K H L ] X...O.@.L H H F B 4 2 3 9 N S I P L L L ",
"7X7X7X6X4X,XoX}.W.D.A.N.n.h.;.+ 5 f g k f 3 + 4.5.5.5.5.5.8.0.8 B V 0 & % x.5.8.r 8 B B V C S A B B N 9 w + # 5.5.7.& t 4 B N N ",
"7X7X9X6X<X*X+X X}._.E.R.D.A.m.h.+ 5 4 4 5 + r.j.j.j.j.j.j.i.7.0.5 < $ w.p.j.j.i.7.e 7 5 ; > t r 7 7 < O # i.p.m.M.a.d.5.w < < < ",
"9X7X7X6X<X,X<X,X*X+X X!.R.G.G.N.t.@ > . @ t.j.N.N.N.N.A.D.A.M.f.@ # a.N.A.D.D.A.M.f.@ @ u.d.f.u.5.6.6.u.n.N.H.Q.]./.S.a.z.6.:.5.",
"7X7X7X6X4X4X6X7X4X,X*XXX`.!.E.J.B.w.4.4.y.a.S.S.F.H.R.T.T.T.H.B.y.y.S.R.E.!.!.E.H.N.w.e.m.D.D.B.m.a.a.m.F.!._.XX=X*X).F.M.i.i.a.",
"7X7X9X7X6X6X7X7X6X5X<X-X+X+XXX|.H.m.j.j.m.S.K.^.^.^.'.`.T.T.).K.a.s.K. XXXXXXX X~.F.a.s.A.T.~.Q.F.N.N.H.~.|.+X-X4X,X.X).B.j.m.m.",
"7X7X7X7X7X7X7X7X8X7X6X4X,X,X,X+X).R.J.K.).'.{.{.#X#X$XXX_._.XX].Z.Z..X*X,X,X,X-X+X~.C.B.W.}.oXXX~.H.F.R.|.;X,X6X6X6X-X.X).L.J.J.",
"7X7X7X7X7X7X7X7X8X8X7X6X6X6X6X,X X}.$X:X:X,X<X2X2X2X<X,X=X@X=X$XI.I.&X6X4X5X6X6X<X=X'.'.*X1X1X>X#X(.J.K.oX,X4X6X7X7X6X,X=X$X%X=X",
"7X7X7X7X7X7X9X7X7X7X7X8X8X7X6X,XoXoX6X9X7X7X8X8X7X7X7X7X6X1X1X,X%X&X2X7X7X7X7X9X9X<XoXoX,X4X8X5X>X#X(.[.:X4X6X7X7X7X7X7X6X6X6X6X",
"7X7X7X7X7X7X7X7X7X7X7X7X8X4X,X*X*X,X6X8X8X8X8X8X8X8X8X7X6X7X6X6X2X2X7X7X8X8X8X8X9X4X;XoX*X,X4X6X2X>X&X:X2X7X7X7X7X7X7X7X6X4X4X4X",
"7X7X7X8X8X7X7X7X7X8X7X7X7X5X-X=X>X2X7X7X7X8X7X7X7X7X7X7X7X8X8X7X7X7X7X7X7X7X7X8X9X4X,X*X*X,X5X7X2X2X2X3X7X7X7X7X7X7X7X7X6X4X4X4X",
"7X8X7X7X7X7X8X7X7X7X7X8X8X6X4X4X6X7X7X7X7X7X7X7X7X7X8X7X7X7X7X7X8X8X7X7X7X7X7X7X7X6X5X2X4X4X6X7X7X7X6X7X7X7X8X7X7X7X7X7X7X7X6X6X",
"7X7X7X7X7X7X7X7X7X7X7X7X8X8X8X8X7X7X7X7X7X7X8X7X8X7X7X7X7X7X7X7X7X7X7X7X8X7X7X7X7X8X9X7X8X7X8X7X7X7X7X7X7X7X7X7X7X7X7X7X7X7X7X7X",
"7X7X7X7X8X7X7X7X7X7X7X7X8X7X7X7X7X7X7X7X7X8X7X7X7X7X7X7X7X7X7X7X7X7X7X7X7X7X7X7X7X7X9X7X7X7X7X7X7X7X7X7X7X7X7X7X7X7X7X7X7X7X7X7X",
"7X7X7X8X7X7X7X7X7X8X7X7X7X7X7X8X7X7X7X7X7X7X7X7X7X7X7X7X7X8X7X7X7X8X7X7X7X7X8X7X7X7X7X7X7X7X7X7X7X7X7X7X8X7X7X7X7X7X8X7X7X7X7X7X",
"7X7X7X7X7X7X7X8X7X7X7X7X7X7X7X7X7X7X7X7X7X7X7X7X7X7X8X7X7X7X7X7X7X7X7X7X7X7X7X7X7X7X7X7X7X7X7X7X7X7X7X7X7X7X7X7X7X7X7X7X8X7X7X7X",
"8X7X7X7X7X7X7X7X7X7X7X7X8X7X7X7X7X7X7X7X7X7X8X7X7X7X7X7X7X7X7X8X7X7X7X8X7X7X7X7X7X7X7X7X7X7X7X7X7X7X7X7X7X7X7X8X7X7X7X7X7X7X7X7X"
};
