/* XPM */
static char *result[] = {
/* columns rows colors chars-per-pixel */
"64 64 211 2 ",
"   c #3D5C69",
".  c #1C757D",
"X  c #1E7C7F",
"o  c #3C6878",
"O  c #2A7A7C",
"+  c #3B7D7E",
"@  c #33757A",
"#  c #256B76",
"$  c #7E505B",
"%  c #6C525E",
"&  c #485C6D",
"*  c #575C6A",
"=  c #4D5C70",
"-  c #794B69",
";  c #675468",
":  c #79546C",
">  c #7C4E75",
",  c #675C7B",
"<  c #745578",
"1  c #674D69",
"2  c #53686F",
"3  c #486573",
"4  c #5C647D",
"5  c #576579",
"6  c #487678",
"7  c #42797D",
"8  c #53787B",
"9  c #67656D",
"0  c #676A75",
"q  c #756776",
"w  c #6B7377",
"e  c #7A7373",
"r  c #757774",
"t  c #BA3D71",
"y  c #A13B69",
"u  c #8C545D",
"i  c #96585C",
"p  c #A45E5E",
"a  c #B65A58",
"s  c #994965",
"d  c #875A65",
"f  c #985268",
"g  c #8B5E75",
"h  c #865576",
"j  c #9C5473",
"k  c #9A5A72",
"l  c #81446A",
"z  c #A8486A",
"x  c #BE426E",
"c  c #B64D69",
"v  c #AA5767",
"b  c #B75967",
"n  c #A84B72",
"m  c #A35572",
"M  c #846C6C",
"N  c #9A6568",
"B  c #9A6867",
"V  c #996672",
"C  c #887773",
"Z  c #8D6F70",
"A  c #A66566",
"S  c #B76969",
"D  c #A9766C",
"F  c #B4746A",
"G  c #BB7469",
"H  c #B07A6B",
"J  c #BB7266",
"K  c #C55D5C",
"L  c #CA665D",
"P  c #D4665E",
"I  c #D5695D",
"U  c #DC6C5E",
"Y  c #E3705F",
"T  c #C64A6D",
"R  c #C4486D",
"E  c #C95767",
"W  c #D65E67",
"Q  c #D95C67",
"!  c #D25569",
"~  c #D25969",
"^  c #C56C65",
"/  c #CD6D66",
"(  c #C86868",
")  c #D66764",
"_  c #DB6465",
"`  c #D26D64",
"'  c #DD6B63",
"]  c #C57467",
"[  c #CA7265",
"{  c #C07269",
"}  c #DB7364",
"|  c #D57364",
" . c #E36D63",
".. c #E66B63",
"X. c #E67162",
"o. c #E97461",
"O. c #EC7966",
"+. c #ED7C6A",
"@. c #56817C",
"#. c #4F837C",
"$. c #738277",
"%. c #6C817B",
"&. c #F0816F",
"*. c #F28472",
"=. c #F48977",
"-. c #F68C7C",
";. c #F88F7F",
":. c #1E7382",
">. c #277B84",
",. c #3B7485",
"<. c #337A84",
"1. c #377986",
"2. c #4E6982",
"3. c #4C6780",
"4. c #536782",
"5. c #467D81",
"6. c #447582",
"7. c #1C8483",
"8. c #1B8D86",
"9. c #1C8D8C",
"0. c #16898A",
"q. c #0A948E",
"w. c #0E9B8D",
"e. c #06978E",
"r. c #13938C",
"t. c #1A958B",
"y. c #119A8E",
"u. c #019D91",
"i. c #0C9D92",
"p. c #139991",
"a. c #189690",
"s. c #0E8D87",
"d. c #2B8C8B",
"f. c #278587",
"g. c #368381",
"h. c #3A8682",
"j. c #368983",
"k. c #3B8B83",
"l. c #26968A",
"z. c #39998C",
"x. c #13A38F",
"c. c #03A293",
"v. c #0BA492",
"b. c #03AC95",
"n. c #0BAB94",
"m. c #14A492",
"M. c #14AC96",
"N. c #1EA996",
"B. c #03B297",
"V. c #0EB297",
"C. c #05B498",
"Z. c #0CB598",
"A. c #05BA99",
"S. c #0DBD9A",
"D. c #1CB696",
"F. c #13B499",
"G. c #1BB499",
"H. c #14BB9B",
"J. c #1CBC9B",
"K. c #14B295",
"L. c #24A992",
"P. c #23B399",
"I. c #28BA9C",
"U. c #35BB9C",
"Y. c #448684",
"T. c #0DC39C",
"R. c #0EC99E",
"E. c #14C39D",
"W. c #1AC39D",
"Q. c #14CB9E",
"!. c #19CA9F",
"~. c #23C59E",
"^. c #22C99F",
"/. c #2AC39E",
"(. c #31C89F",
"). c #1CD0A0",
"_. c #23CDA0",
"`. c #2BCDA1",
"'. c #34C6A0",
"]. c #31CEA2",
"[. c #3BC4A0",
"{. c #23D4A2",
"}. c #2BD5A3",
"|. c #2ED9A4",
" X c #33D3A3",
".X c #3CD6A4",
"XX c #34DBA5",
"oX c #3BDCA6",
"OX c #3EE1A7",
"+X c #49D3A5",
"@X c #42DCA7",
"#X c #4ADDA7",
"$X c #47DBA7",
"%X c #53DAA7",
"&X c #44E3A8",
"*X c #4BE5AA",
"=X c #4DE9AB",
"-X c #42E0A7",
";X c #54E5AA",
":X c #5BE4AB",
">X c #54EBAC",
",X c #5BEDAD",
"<X c #5EF0AE",
"1X c #63EDAE",
"2X c #61E7AC",
"3X c #63F2AF",
"4X c #67F4B0",
"5X c #6DF7B1",
"6X c #6EF8B1",
"7X c #70F9B2",
"8X c #FA9484",
/* pixels */
"5X6X7X,XXX}.*X&X}.R.B.l.w S ` o.o.o.o.o.o.o.o.o.o.o.o.o.o.o.o.o.Y o.o.o.o.o.o.} W W  .o.o.X.P v ; o 7.v.H.|.=X4X4X<X>X,X4X5X5X5X",
"5X5X6X<X&XOX>X*X}.R.B.t.4.D ` o.o.o.o.o.o.o.o.o.o.o.o.o.o.o.X.o.o.o.o.o.o.o.o.X._ _  .o.o.X.P b : = @ 8.M._.oX>X>X>X>X,X4X6X5X5X",
"6X5X5X4X1X<X4X>X|.R.B.t.4.j ` O.o.o.o.o.o.o.o.o.o.o.o.o.o.o.X.o.o.o.o.o.o.o.o.o. . .o.o.o.X._ E y l * 3 r.n.J.`.XX&X*X,X4X7X6X5X",
"5X5X5X6X7X5X4X=X^.Z.v.f., m ) o.o.o.o.o.o.o.o.X.o.o.o.o.o.o.o.o.o.o.o.o.o.o.o.o.o.o.o.o.o.X.' ~ R y - & >.u.F._. X&X>X<X4X5X5X5X",
"5X5X5X7X7X3X>X XM.q.0.,.> x ) o.o.o.o.o.o.o.o.o.o.o.o.o.o.o.o.o.o.o.o.o.o.o.o.o.o.o.o.o.o.o. .Q T y - = s.b.W. X@X>X3X4X5X5X5X5X",
"5X5X5X5X7X3X>X XF.q.9.,.4.x (  .o.o.o.o.o.o.o.o.o.o.o.o.o.o.o.o.o.o.o.o.o.o.o.o.o.o.o.o.o.o.Y I b f 5 <.p.H. X#X>X3X4X7X5X7X5X5X",
"6X5X5X5X5X5X3X;X_.Z.b.9.4.h c Q  .o.o.o.o.o.o.o.o.o.o.X.o.X.o.o.o.o.o.X.o.o.o.o.o.o.o.o.o.o.O.| Z 8 f.m.H.}.=X3X4X4X5X5X5X7X5X5X",
"5X5X5X6X5X7X7X,XoX_.E.M.<.4.m ! ' o.o.o.o.o.o.o.o.o.o.o.o.o.o.o.o.X.o.o.o.o.o.o.o.o.o.o.o.o.Y ] r <.w.C.).oX<X5X7X7X5X5X5X5X5X5X",
"5X5X5X5X5X7X7X4X,X&X|.J.p.,.k ! ..o.o.o.X.o.o.o.o.o.X.o.o.o.o.o.o.o.o.o.o.o.o.o.o.Y Y O.o.o.o.[ r g.w.C.!.XX<X7X5X5X5X5X5X5X5X5X",
"5X5X5X5X5X5X5X4X3X=XXXW.i.1.V ~  .o.o.o.o.o.o.X. .X.X.o.o.o.o.o.o.o.o.o.o.o.o.o.o.} Y Y o.o.o.| e g.w.C.Q.XX,X6X5X4X5X5X7X5X5X5X",
"5X7X5X7X5X5X5X4X,XOX!.Z.l.Y.S ..o.o.o.o.o.o.o. ._ _  .o.o.o.o.o.o.o.o.X.o.o.o.o.o.o.O.O.o.o.Y ] r <.w.B.E.|.>X3X,X3X4X5X5X5X5X5X",
"5X5X5X5X5X5X5X4X*X XH.m.Y.r ] O.o.o.o.o.o.o.o.X._ _ ..o.o.o.o.o.o.o.o.Y o.o.o.o.o.o.o.Y o.o.O.[ e + r.b.T.{.&X>X>X>X4X5X5X5X7X5X",
"5X5X5X5X4X7X7X<X$XI.m.d.$.D } o.o.o.o.o.o.o.O.X. . .o.o.o.o.o.o.o.o.o.o.o.o.o.o.o.o.o.o.o.o.o.| M 6 8.c.A.Q.|.OX-X=X3X6X7X5X5X5X",
"5X5X5X5X7X4X4X;X'.L.9.6.Z (  .o.o.o.o.X.X.o. .X.X.X. .X.o.o.o.o.o.o.o.o.o.o.o.o.o.o.O.Y o.o.Y | B 9 + 8.b.A.W.`. X#X1X6X5X5X5X5X",
"5X5X7X5X7X4X>X.XM.a.>.4.j ! ..o.o.o.o.X..._  ._  ._ _ _ ..o.o.o.o.o.o.o.o.o.o.o.o.o.o.o.o.o.o.Y b f ; 3 r.b.b.K.U.+X2X7X5X5X5X5X",
"5X5X5X5X4X<X*X XG.p.>.2.h b _ o.o.o.o.X.....' _  ._ W _ o.o.o.o.o.o.o.o.o.o.o.o.o.o.o.o.o.o.o.Y K p - 3 t.b.n.P.(.%X1X6X6X5X7X5X",
"5X5X5X4X<X,X;X*XoX'.M.f.2.g / o.o.o.o.o...o.o...o.Y Y o.o.Y o.o.o.o.o.o.o.O.Y Y o.Y o.o.o.o.Y Y _ S 9 @ x.E. X-X:X3X5X5X5X5X5X5X",
"7X5X5X5X<X,X,X>X=XXXS.i.,.q / O.o.o.o.o.o.o.o.o.Y o.o.o.o.o.o.o.o.o.o.o.o.Y O.&.O.O.O.o.O.o.o.Y P p 2 g.D.{.=X3X6X6X6X5X5X5X5X5X",
"5X5X5X5X4X4X4X4X>XXXH.i.1.g ] o.o.o.o.o.o.o.o.o.o.o.o.o.o.o.o.o.o.o.o.o.O.&.*.=.*.*.&.&.O.o.Y Y a u * >.W.|.,X5X6X6X6X5X5X5X5X5X",
"5X5X5X5X5X7X5X4X,XoXW.m.1.4.{ ..o.o.o.o.o.o.o.o.o.o.o.o.o.o.o.o.Y o.o.Y &.&.-.;.-.-.=.&.O.o.Y U a $ & X D.XX>X4X3X3X5X5X5X5X5X5X",
"5X6X5X5X5X5X5X5X4X*X XP.z.4.m .. .o.o.o.o.o.o.o.o.o.Y o.o.o.o.o.o.o.o.&.=.-.;.8X;.8X;.-.&.O.o.U a $   X D.{.=X,X*X=X3X6X6X5X5X6X",
"5X5X5X5X5X7X5X5X4X,XoX/.9.5.m Q  .o.o.o.o.o.o.o.o.o.O.o.o.Y o.o.o.o.o.O.=.;.;.8X;.8X;.-.&.O.o.Y K i * @ x.E. X-X&X;X3X6X6X5X5X5X",
"5X5X5X5X5X5X5X5X4X>XoX_.m.1.j ! ..o.o.o.o.o.o.o.o.o.o.o.o.o.o.o.o.o.o.O.=.;.8X8X8X;.8X;.&.O.&.Y U L d 2 8.c.Z.^.;X3X5X5X5X5X5X5X",
"6X5X5X5X4X4X4X4X<X;XXXJ.p.,.m ! ..o.o.o.o.o.X.o.o.o.o.o.o.o.o.o.o.o.o.o.=.;.;.;.;.;.;.=.&.O.Y Y } J M 6 8.c.B.^.:X6X6X5X6X5X5X6X",
"5X5X6X5X<X,X,X,X>XoXW.m.<.4.n ! ..o.o.o.o.o.o.o.o.o.o.Y o.Y O.o.o.o.o.o.&.&.&.*.*.*.&.&.O.Y Y } H C #.l.n.A.!.XX,X6X6X5X5X5X5X5X",
"5X5X5X4X<X,X>X*X.X`.M.9.4.h n ! ..X.o.o.O.Y o.o.o.o.o.o.o.o.o.o.o.o.o.o.o.o.&.&.O.&.O.O.o.o.Y [ Z 8 d.n.S.Q.|.=X3X6X6X5X6X5X5X6X",
"5X5X5X5X4X<X=X XG.p.9.,.> n T ~  .o.o.o.o.o.o.o.o.o.o.o.o.o.o.o.o.o.o.o.o.o.Y o.O.o.o.o.o.o.Y L e + r.B.E.|.=X3X5X6X6X5X5X5X5X5X",
"5X5X5X5X5X4X>X XF.e.0.,.4.n E ..X.o.o.o.o.o.o.o.o.o.o.o.o.o.o.o.Y o.o.o.o.o.o.o.o.o.o.o.o.o.Y J 2 O w.C.!.XX<X6X6X6X5X5X5X5X6X5X",
"6X5X5X5X5X5X4X*X_.V.c.9.4.h ( ..o.o.o.o.o.o.o.o.o.o.o.o.o.o.o.o.o.o.o.o.o.o.o.o.o.o.o.o.Y Y I p 2 O e.B.!.oX<X6X6X5X6X5X6X5X5X6X",
"5X5X5X5X5X6X7X<XoX).T.M.j.4.] o.Y o.o.o.o.o.o.o.o.o.o.o.o.o.o.o.o.o.o.o.o.o.o.o.o.o.o.o.Y Y I p * # s.n.!.|.>X5X5X5X5X5X5X5X5X5X",
"5X5X5X7X5X5X6X4X,X&X|.J.p.5.F o.o.Y O.o.Y o.o.o.o.o.o.O.o.o.o.o.o.o.o.o.o.o.o.o.o.o.Y o.Y Y L p %   . y.S.{.*X3X5X5X5X5X5X5X5X5X",
"6X5X5X5X5X5X5X5X4X,XOX_.v.j.H O.o.o.o.o.o.o.o.o.o.o.o.Y o.Y o.o.o.o.o.o.Y o.o.o.o.o.O.O.O.Y I a u % 3 O x.E.].#X3X5X6X5X6X5X5X6X",
"5X5X5X5X5X5X5X5X3X>XOX_.v.h.G o.o.O.o.o.o.o.o.o.o.o.o.o.o.o.o.o.o.o.o.o.o.o.o.o.o.o.o.o.o.Y Y U b f l 5 7.u.v.I.:X7X6X5X5X6X5X5X",
"5X5X5X7X5X5X5X5X3X=XXXE.c.h.H o.o.Y o.o.o.o.o.Y o.o.o.o.o.o.o.o.o.o.o.o.o.o.o.o.o.o.o.o.o.O.Y U b f < 5 8.u.u.P.%X7X6X5X5X5X5X5X",
"5X7X5X5X5X5X5X4X,XOX).A.u.j.H o.o.o.o.o.o.o.o.o.o.o.Y o.o.o.o.o.Y o.o.o.o.o.o.Y o.o.o.o.o.o.o.U B 0 7 8.c.A.W. X,X6X6X5X5X5X5X6X",
"5X4X3X3X5X7X5X4X*X|.T.b.q.5.G o.o.o.o.o.o.o.o.o.o.o.o.o.o.o.o.o.o.o.o.o.o.o.o.&.o.o.o.o.o.o.o.| M 6 8.c.A.Q.|.=X4X5X5X5X6X5X5X5X",
"7X3X;X=X4X7X7X<XXX!.A.v.f.4.[ O.o.o.o.o.Y Y O.o.o.o.o.o.Y o.o.o.o.o.o.o.o.o.o.o.o.o.o.o.o.o.Y [ e + y.b.T.{.&X<X4X7X5X5X5X5X6X5X",
"7X3X;X*X>X:X:X#X^.T.n.t.2.g | O.o.o.o.o.O.O.+.+.+.+.+.O.O.O.o.o.o.o.o.o.o.o.o.o.o.o.o.Y o.O.O.[ e g.w.C.E.|.>X4X5X5X5X5X5X5X5X5X",
"5X5X4X>X.X'.U.P.Z.n.r.,.< b ) O.o.o.o.O.&.&.-.;.;.;.;.=.&.+.O.O.o.o.o.o.o.o.o.o.o.o.o.o.o.o.O.[ r + w.C.Q.XX<X6X7X5X5X5X5X5X5X5X",
"5X5X5X<X+X[.U.I.H.n.a.6.g b  .o.o.o.o.O.*.;.8X8X8X8X8X;.;.*.O.o.o.o.o.o.o.o.o.o.o.o.o.o.o.o.Y [ r g.y.b.H.].;X4X5X5X5X7X5X5X5X6X",
"5X5X7X4X<X:X:X%X XE.n.d.r G } o.o.o.o.O.=.;.8X8X8X8X8X8X8X-.+.Y o.o.o.o.o.o.o.o.Y o.o.o.o.o.o.[ r g.p.b.v.P.+X2X4X7X5X5X5X5X5X7X",
"5X5X5X5X7X7X6X4X&X_.C.l.$.F } o.o.o.o.O.=.;.8X8X8X8X8X8X8X=.+.o.o.o.o.o.o.o.o.o.o.o.o.o.o.o.o.| e + y.c.i.P.+X:X4X5X5X5X5X5X5X5X",
"5X5X5X5X6X6X6X<X&X_.A.l.$.F | o.o.o.o.o.&.&.-.;.;.-.;.-.*.+.O.o.o.o.o.Y o.o.o.o.o.o.o.o.o.o.Y [ M 6 8.v.H.].;X5X5X5X5X7X5X5X5X5X",
"5X5X7X5X5X6X5X>XXXW.C.l.r G | O.o.o.o.O.Y &.&.=.*.*.*.+.+.o.o.o.o.o.o.o.o.O.Y o.o.o.o.o.Y o.O.` N 9 @ t.J.XX,X6X7X5X5X5X7X5X5X5X",
"5X7X5X5X6X5X4X@XW.n.i.j.C J Y Y O.O.O.O.Y O.O.O.O.O.O.O.o.O.o.o.o.o.Y o.o.o.o.o.o.o.o.o.o.o.o.Y v l 2 O L.}.>X5X5X5X5X5X5X5X5X5X",
"5X5X5X5X5X4X<XoXF.u.q.h.C ] Y &.O.O.O.O.O.O.o.Y o.o.o.o.o.o.o.o.o.o.Y Y Y Y o.Y o.o.o.o.o.o.o.X.K p - 2 l.J..X;X,X3X5X7X5X5X5X5X",
"5X5X5X5X7X4X,XoXF.c.q.h.C [ Y Y O.&.O.o.o.o.o.o.o.o.o.Y o.o.o.o.o.o.o.Y .._ Y O.o.o.o.o.o.o.o.Y _ E c : >.q.G. X@X>X3X7X5X5X5X7X",
"5X5X5X5X5X5X<X*X^.G.N.z.%.D } o.o.O.O.O.o.o.o.o.o.O.o.o.o.o.o.o.o.o.o.Y _ _  .Y Y O.o.o.o.o.Y Y ) ( v 9 f.i.J.`.oX*X,X1X5X5X5X5X",
"5X5X7X5X5X5X4X4X:X*X@XU.l.8 G O.o.o.o.o.o.o.o.O.O.O.o.o.o.o.o.o.o.o.o.X. . .X.o.o.o.o.o.Y Y Y } ^ A w Y.L.^.oX&X=X=X*X=X3X5X7X5X",
"5X5X5X5X5X5X7X5X5X<X=X`.n.j.F O.o.o.o.o.o.o.o.o.O.O.O.o.o.o.o.Y o.o.o.o.O.o.o.o.o.o.Y o.Y Y U L A w h.L.(.OX>X<X,X>X*X>X3X5X5X5X",
"7X5X5X5X5X5X7X4X4X>XXXE.c.h.F Y o.o.o.o.o.o.o.o.O.O.o.o.o.o.o.o.o.o.o.o.o.o.o.o.o.o.o.o.O.Y I A 9 @ r.D.#X3X4X4X4X3X3X3X4X7X5X5X",
"5X5X5X5X5X5X7X4X>X&X).S.u.k.H O.o.o.o.o.o.o.o.O.O.O.o.o.o.o.o.o.o.o.o.o.o.X. .' Y Y o.o.O.Y L v & . e.H.*X5X6X6X7X7X6X5X6X5X5X5X",
"5X5X5X5X5X7X5X4X>XOXQ.C.u.j.H o.o.o.o.o.o.o.o.o.O.o.o.o.o.o.o.o.o.o.X.X. ._ ~ ~ _ _  .o.o. .I A 2 # e.S.oX>X3X7X6X6X6X5X5X6X5X5X",
"5X5X5X5X5X5X5X2X@X`.T.b.0.8 { o.o.o.o.o.o.o.o.Y o.o.o.o.o.o.o.o.o.o.o.X._ ! R R ! ! _ o.o. ._ b < o 7.x.~.oX;X3X4X4X5X5X5X5X5X5X",
"5X5X5X5X5X5X2X+X~.n.m.f.4.g / Y o.o.o.o.o.o.o.o.o.o.o.o.o.o.o.o.o.O.o.' ! R t t R T ! _ X.o.' E f - & O x.W. X-X;X3X5X5X5X7X6X5X",
"5X5X7X5X5X3X%X'.V.c.q.1.< n ' O.o.o.o.o.o.o.o.o.o.o.o.o.o.o.Y o.o.o.o. .! R x x x T ~ _  .o. .) c s 1 o r.b.W.].*X,X4X5X5X5X5X5X",
"6X5X6X6X6X2X.XI.n.c.q.<.4.n _ o.O.Y o.o.o.o.o.o.o.o.o.o.o.o.o.o.o.o.o.X._ ) ! ! ~ Q ..o.o.o.X._ E z > o s.b.A.!.@X,X4X6X6X5X5X5X",
"5X5X5X6X5X>X.X/.J.F.m.d.4.j ` o.o.o.o.o.o.o.o.o.o.o.o.o.o.o.o.X.o.o.o.X.X. .' _ ..X.Y Y o.o.o...! z < o y.B.T._.*X3X4X5X5X6X6X5X",
"5X5X6X4X<X>X*X*X@X X_.M.d.5.G o.o.o.o.o.o.Y O.o.o.o.o.o.o.o.o.o.o.o.o.o.o.X. .X.Y o.o.o.o.o.o...W v 9 <.x.R.{.-X,X4X6X5X5X5X5X5X",
"6X5X6X4X<X,X,X,X,X=X|.E.u.j.G o.o.o.o.o.o.o.o.o.o.o.o.o.X.o.o.o.o.o.o.o.o.o.o.o.o.o.o.O.o.o.o.o._ b 9 + n.R.XX>X3X6X6X5X5X5X5X5X",
"5X5X5X5X4X4X4X4X3X>XOXW.c.j.H O.o.o.o.o.o.o.o.o.o.X.o.o.o.o.o.o.o.o.o.o.o.o.o.o.o.o.o.Y O.Y Y o.X.^ M 7 x.T.{.*X3X6X5X3X3X4X5X5X",
"5X5X5X5X5X5X6X5X3X=XXXE.u.h.F o.o.o.X. .} o.o.o.o.o.o.o.X.o.o.o.o.o.o.o.o.o.o.o.o.o.o.o.O.Y O.o.O.` B 0 f.n.W.|.=X,X>X>X,X3X4X5X",
"5X5X5X6X6X5X6X4X>XOX).A.u.h.H O.o. ._ ) X.o.o.o.o.o.o.o.o.o.o.o.o.o.o.X.o.o.o.o.o.o.o.o.Y o.o.o.o.' b d 3 8.x.E.}.XXoX&X,X3X5X6X",
"6X5X5X5X6X6X6X3X>XXXR.B.u.h.G o.o. .W W X.o.o.o.o.o.o.o.o.o.o.o.o.o.o.o.o.o.o.o.o.o.o.o.o.o.o.o.o...E f * O w.A.!.{.|.oX>X3X5X5X"
};
