/* XPM */
static char *result[] = {
/* columns rows colors chars-per-pixel */
"32 32 116 2 ",
"   c #7B7554",
".  c #7E7857",
"X  c #747F5B",
"o  c #945A43",
"O  c #995F48",
"+  c #826B4E",
"@  c #90674D",
"#  c #9C624A",
"$  c #946A4F",
"%  c #866E51",
"&  c #877052",
"*  c #8E7557",
"=  c #857E5C",
"-  c #8C7859",
";  c #957857",
":  c #977B59",
">  c #A1654D",
",  c #A96748",
"<  c #A7684C",
"1  c #AC6A4C",
"2  c #B46E4B",
"3  c #B7704C",
"4  c #BA724D",
"5  c #AA7955",
"6  c #BC7752",
"7  c #C27A51",
"8  c #C87E53",
"9  c #75805C",
"0  c #79835F",
"q  c #708B5D",
"w  c #5E9C6E",
"e  c #6C8861",
"r  c #7D8561",
"t  c #738E67",
"y  c #7E8B68",
"u  c #659268",
"i  c #6A966C",
"p  c #6F996C",
"a  c #7C9468",
"s  c #619F71",
"d  c #759E76",
"f  c #7B9870",
"g  c #5BB76F",
"h  c #5FBA6B",
"j  c #4FAF7B",
"k  c #56A575",
"l  c #58A776",
"z  c #5DAA77",
"x  c #56B474",
"c  c #5CB67E",
"v  c #66A166",
"b  c #69A469",
"n  c #73AA6A",
"m  c #64BD67",
"M  c #6DA176",
"N  c #6AA57A",
"B  c #64AD7D",
"V  c #6DA97E",
"C  c #71A177",
"Z  c #75A97A",
"A  c #78A879",
"S  c #94875D",
"D  c #AA875C",
"F  c #828962",
"G  c #8A9D66",
"H  c #839B6D",
"J  c #8BA274",
"K  c #CA8054",
"L  c #0171FF",
"P  c #0A76FF",
"I  c #0E79FF",
"U  c #147CFF",
"Y  c #197FFF",
"T  c #5EB686",
"R  c #63AF81",
"E  c #6CAD81",
"W  c #66B486",
"Q  c #60B788",
"!  c #61B888",
"~  c #69BB90",
"^  c #7DC3A7",
"/  c #1D81FF",
"(  c #2385FF",
")  c #2887FF",
"_  c #2C8AFF",
"`  c #338EFF",
"'  c #3B92FF",
"]  c #4396FF",
"[  c #4698FF",
"{  c #4C9BFF",
"}  c #519EFF",
"|  c #55A1FF",
" . c #5CA4FF",
".. c #60A7FF",
"X. c #64A9FF",
"o. c #6CADFF",
"O. c #74B2FF",
"+. c #7BB6FF",
"@. c #81C5A7",
"#. c #84BAFF",
"$. c #8ABEFF",
"%. c #9ED1C4",
"&. c #8FC0FF",
"*. c #93C3FF",
"=. c #9AC7FF",
"-. c #9DC8FF",
";. c #A4CCFF",
":. c #A9CFFF",
">. c #ADD2FF",
",. c #B3D5FF",
"<. c #B8D7FF",
"1. c #BCDAFF",
"2. c #C3DEFF",
"3. c #C7E0FF",
"4. c #CBE2FF",
"5. c None",
/* pixels */
"5.5.5.5.5.5.5.5.5.5.5.5.5.5.5.5.5.5.5.5.5.5.5.5.5.5.5.5.5.5.5.5.",
"5.5.5.5.5.5.5.5.5.5.g 5.x 5.5.5.5.5.g 5.x 5.5.5.5.5.5.5.5.5.5.5.",
"5.5.5.5.5.5.5.5.5.k & l % s h w h l & l & w h 5.5.5.5.5.5.5.5.5.",
"5.5.5.5.5.5.5.m h & # - < 5 s $ = p < * > @ w 5.5.5.5.5.5.5.5.5.",
"5.5.5.5.5.5.5.5.i F < > 2 8 7 8 K 6 2 > > 2 ; j m 5.5.5.5.5.5.5.",
"5.5.5.5.5.5.g x S 2 < # 1 7 8 8 8 3 2 > > 2 ; q m 5.5.5.5.5.5.5.",
"5.5.5.5.5.x % : 7 2 < > 1 6 8 8 8 2 2 > > 2 8 D s w 5.5.5.5.5.5.",
"5.5.5.5.x e 6 8 8 2 > > 1 2 3 6 2 2 1 > > 1 7 8 5 $ x 5.5.5.5.5.",
"5.5.5.m . $ 7 8 7 2 # > < 1 2 2 2 < > > > , 4 8 7 1 = v 5.5.5.5.",
"5.5.5.g i # 2 2 1 # % % O > < 2 < > # @   > < 2 2 2 = x m 5.5.5.",
"5.5.5.m i > > < > # u l u O > # > o X w j o > < < > = x 5.5.5.5.",
"5.5.5.w O > # O % e j T j w     . j j j j w   O # # # 9 g 5.5.5.",
"5.5.5.v r o + u k T T L T j j j j j Q T T j j u 9 o % i 5.5.5.5.",
"5.5.h w # o j T L L L L L L L L L L L L L L L T j   # 9 x 5.5.5.",
"5.5.5.v # # . L L L L L L L L L L L L L L L L L N @ > 0 5.5.5.5.",
"5.5.5.m i 1 o L L L L L L L L L L L L L L L L L M < = x 5.5.5.5.",
"5.5.5.m & , o P P P P L P L L L L L L L L L L L d , $ v 5.5.5.5.",
"5.5.5.g i < o / U U U U I U I I P P P L L P L L d , = x m 5.5.5.",
"5.5.5.m i O u ) ) ) ( ( ( / / / Y U Y U U I I U R % = x 5.5.5.5.",
"5.5.5.w y % j ' ' ' ` ` ` _ _ _ _ ) ) ( ) ( Y Y T e y X g 5.5.5.",
"5.5.5.v 9 u ! | { { [ [ [ ] ] ' ' ' ' ` ` ` ` _ Q j N W 5.5.5.5.",
"5.5.5.m F p j X.X.X. . . . .| | } } { { [ [ ] ] T s a b 5.5.5.5.",
"5.5.5.5.z f z V +.+.+.O.o.o.o.X.X.X.X.....}  .E 0 = B 5.5.5.5.5.",
"5.5.5.5.5.m N Z V *.&.$.$.$.#.#.#.+.+.O.O.O.Z H Z g 5.5.5.5.5.5.",
"5.5.5.5.5.5.x Z W :.;.;.;.=.=.=.*.*.*.&.$.$.C G x 5.5.5.5.5.5.5.",
"5.5.5.5.5.5.5.g N W <.<.,.,.,.,.>.:.:.:.;.V - g 5.5.5.5.5.5.5.5.",
"5.5.5.5.5.5.5.m g A T 4.4.2.2.2.2.1.1.1.T H n m 5.5.5.5.5.5.5.5.",
"5.5.5.5.5.5.5.5.5.h t @.@.%.E J J C ~ ^ M x 5.5.5.5.5.5.5.5.5.5.",
"5.5.5.5.5.5.5.5.5.5.m j E t x t g s C j c 5.5.5.5.5.5.5.5.5.5.5.",
"5.5.5.5.5.5.5.5.5.5.5.h s 5.5.m 5.h s 5.5.5.5.5.5.5.5.5.5.5.5.5.",
"5.5.5.5.5.5.5.5.5.5.5.5.m 5.5.5.5.5.5.5.5.5.5.5.5.5.5.5.5.5.5.5.",
"5.5.5.5.5.5.5.5.5.5.5.5.5.5.5.5.5.5.5.5.5.5.5.5.5.5.5.5.5.5.5.5."
};
