/* XPM */
static char *result[] = {
/* columns rows colors chars-per-pixel */
"64 64 213 2 ",
"   c #7E3F5B",
".  c #375D6D",
"X  c #187B7F",
"o  c #1B6C7B",
"O  c #39656D",
"+  c #396B76",
"@  c #2D747C",
"#  c #247C7F",
"$  c #2B7C7D",
"%  c #287379",
"&  c #36757B",
"*  c #2D677F",
"=  c #564C5F",
"-  c #714B5B",
";  c #495C6D",
":  c #575769",
">  c #455F72",
",  c #5D5A7C",
"<  c #5A5A72",
"1  c #594C61",
"2  c #6B4E65",
"3  c #6D4D69",
"4  c #774A69",
"5  c #63516A",
"6  c #785766",
"7  c #665775",
"8  c #785676",
"9  c #7B4C71",
"0  c #55646D",
"q  c #446472",
"w  c #496375",
"e  c #496A78",
"r  c #5D637D",
"t  c #586777",
"y  c #4B7C7B",
"u  c #59717C",
"i  c #7C616C",
"p  c #686975",
"a  c #7B7C73",
"s  c #6C6B73",
"d  c #92395A",
"f  c #8A3F65",
"g  c #9C3A65",
"h  c #973F6E",
"j  c #AA386C",
"k  c #A73A68",
"l  c #B33C6B",
"z  c #AB3B71",
"x  c #B43672",
"c  c #BA3D71",
"v  c #B73872",
"b  c #A4425D",
"n  c #AD465F",
"m  c #B95659",
"M  c #B9615F",
"N  c #8A4767",
"B  c #94496A",
"V  c #885766",
"C  c #864B73",
"Z  c #825A79",
"A  c #9A5473",
"S  c #935471",
"D  c #994F6D",
"F  c #AA4867",
"G  c #BB456B",
"H  c #B24A6E",
"J  c #BA4967",
"K  c #A8556B",
"L  c #BC5269",
"P  c #B65968",
"I  c #A44E71",
"U  c #A45571",
"Y  c #99746D",
"T  c #876A71",
"R  c #916872",
"E  c #857A71",
"W  c #8D6768",
"Q  c #A3666C",
"!  c #BA6866",
"~  c #BC7166",
"^  c #B3756A",
"/  c #B17A6C",
"(  c #C5585F",
")  c #DB6A5E",
"_  c #E16F5E",
"`  c #C64B6C",
"'  c #CA5565",
"]  c #C75868",
"[  c #D55D66",
"{  c #D25569",
"}  c #D65B68",
"|  c #D85C67",
" . c #C66C62",
".. c #CD6B63",
"X. c #C76465",
"o. c #DC6565",
"O. c #D46C64",
"+. c #DD6B63",
"@. c #D36465",
"#. c #CA7166",
"$. c #DB7363",
"%. c #E36D63",
"&. c #E67162",
"*. c #E97461",
"=. c #EC7966",
"-. c #EE7C6A",
";. c #17807F",
":. c #36817D",
">. c #4B807C",
",. c #728278",
"<. c #F28472",
"1. c #F68C7B",
"2. c #F58A7A",
"3. c #F8907F",
"4. c #1B7D84",
"5. c #247B81",
"6. c #2B7C84",
"7. c #2C7B87",
"8. c #377884",
"9. c #3C6980",
"0. c #546881",
"q. c #487482",
"w. c #0A8E89",
"e. c #0C8888",
"r. c #138C86",
"t. c #1B8A85",
"y. c #108D88",
"u. c #1C8887",
"i. c #0C938C",
"p. c #039B8E",
"a. c #0B9C8E",
"s. c #04958D",
"d. c #13938B",
"f. c #1A938D",
"g. c #129C8D",
"h. c #129187",
"j. c #019C91",
"k. c #0D9E90",
"l. c #149F91",
"z. c #218B86",
"x. c #288687",
"c. c #388B83",
"v. c #388582",
"b. c #239A8A",
"n. c #0AA28F",
"m. c #03A392",
"M. c #0CA392",
"N. c #01AB94",
"B. c #0BAC95",
"V. c #12A492",
"C. c #11AB94",
"Z. c #1BAA95",
"A. c #01B296",
"S. c #0BB396",
"D. c #02B698",
"F. c #0BB598",
"G. c #02BB99",
"H. c #0BBA99",
"J. c #15BA9A",
"K. c #1BBD9B",
"L. c #17B498",
"P. c #27B89A",
"I. c #36BC9D",
"U. c #27A093",
"Y. c #448080",
"T. c #04C39B",
"R. c #0BC49C",
"E. c #0ECA9E",
"W. c #13C39C",
"Q. c #1BC59E",
"!. c #14CA9E",
"~. c #19CB9F",
"^. c #24C19D",
"/. c #27C79F",
"(. c #36C29E",
"). c #1ACFA0",
"_. c #1DD1A0",
"`. c #16D0A0",
"'. c #24CBA0",
"]. c #2ACDA1",
"[. c #35CDA2",
"{. c #3BCBA1",
"}. c #24D3A2",
"|. c #2CD5A3",
" X c #2CD8A4",
".X c #33D4A3",
"XX c #35DBA5",
"oX c #3ADDA6",
"OX c #3BD4A4",
"+X c #3DE0A7",
"@X c #3FE1A8",
"#X c #44CDA3",
"$X c #44DCA6",
"%X c #47D9A6",
"&X c #55DBA8",
"*X c #45E3A9",
"=X c #4BE5A9",
"-X c #4EE9AB",
";X c #41E1A7",
":X c #55E4AA",
">X c #5AE4AA",
",X c #53EAAC",
"<X c #5BEDAD",
"1X c #5EF0AE",
"2X c #63ECAD",
"3X c #68EFAF",
"4X c #63F2AF",
"5X c #68F0AE",
"6X c #67F4B0",
"7X c #6DF7B1",
"8X c #6EF8B1",
"9X c #71F9B2",
"0X c #FA9484",
/* pixels */
"7X7X7X7X7X7X7X7X7X7X7X8X7X7X7X7X7X7X7X7X7X7X7X7X8X7X7X7X7X7X7X7X7X7X7X7X7X7X7X7X7X8X7X7X7X7X7X7X7X7X7X7X7X7X7X7X7X7X7X7X9X7X7X7X",
"7X7X7X7X7X7X8X7X7X7X7X7X7X7X7X7X7X7X7X8X7X7X7X7X7X7X7X7X7X7X7X7X7X7X7X7X8X7X7X7X7X7X7X7X7X7X8X7X7X7X7X8X7X7X7X7X7X7X7X7X7X7X7X7X",
"7X7X8X7X7X7X7X7X7X7X7X7X7X7X8X7X7X7X7X7X7X8X7X7X7X7X7X8X7X7X7X7X7X7X8X7X7X7X7X7X7X7X8X7X8X7X7X7X8X7X7X7X7X7X7X7X7X8X7X7X7X7X7X7X",
"7X7X7X7X7X8X7X7X7X8X7X7X7X7X7X7X7X7X7X7X7X7X7X7X7X7X7X7X7X7X7X7X7X7X7X7X7X7X7X8X7X7X7X7X7X7X7X7X7X7X7X7X7X7X7X7X7X7X7X7X7X7X7X7X",
"7X8X7X7X7X7X7X7X7X7X7X7X7X7X7X7X7X7X7X7X7X7X7X7X7X7X7X8X7X7X7X7X7X7X7X7X7X7X7X7X7X7X7X7X9X7X7X7X7X7X7X7X7X7X7X7X7X7X7X7X7X7X7X7X",
"7X7X7X7X7X8X7X7X8X7X7X7X9X7X6X6X6X6X7X7X7X7X7X7X7X8X7X7X7X7X7X7X7X7X7X7X7X8X7X7X7X7X6X2X2X4X6X7X7X7X6X6X7X7X7X7X7X7X7X7X7X7X7X7X",
"7X7X7X7X7X7X7X8X7X7X7X8X7X2X-X=X<X1X7X7X7X8X7X7X7X7X7X7X7X7X7X7X9X7X7X7X7X7X7X7X7X6X,X*X*X,X4X7X3X2X3X3X7X7X7X7X7X7X8X7X4X4X6X2X",
"7X7X8X7X7X7X7X7X7X7X7X7X8X6X,X*X*X,X6X8X8X8X8X8X8X8X8X7X7X6X7X6X2X3X7X8X7X9X7X9X7X1X*XoX*X,X6X7X2X&X&X:X2X7X7X7X7X7X8X7X4X4X4X1X",
"7X7X7X7X7X7X7X7X7X7X7X7X8X7X4X,XoX@X4X7X9X8X9X8X8X8X7X7X1X1X<X:X%X&X2X8X8X8X7X7X9X1XoXoX,X7X7X3X&X#X(.(.=X4X6X7X7X7X8X7X4X4X4X4X",
"7X7X7X7X7X7X7X7X7X7X7X7X6X6X6X,X X}.$X,X:X,X>X<X2X2X<X<X*X*X=X%XI.I.&X3X6X6X6X6X1X*X].'.$X<X1X,X#X/.K.K.oX,X4X7X7X7X4X<X-X%X=X=X",
"7X7X7X7X7X7X7X7X8X7X6X1X<X,X,X;X~.H.J.K.).'.[.#X{.%XoXXX_._.XX].V.Z.[.*X-X,X,X=XXX'.B.B.W.}.XXOX/.H.G.W. X*X,X4X7X4X-XXX^.J.J.J.",
"7X7X7X7X4X7X7X7X7X6X<X=X+XoXXX|.H.N.p.p.m.S.K.P.P.P.}._.T.R.).K.k.k.W. X XoXoX|.).F.i.s.A.G.).).D.A.N.H.~.|.+X-X1X,XXXW.N.m.j.m.",
"7X7X7X7X1X4X6X7X4X,X;XXX~.!.!.R.M.i.X 4.i.M.B.F.H.H.R.T.T.T.G.B.y.y.S.R.!.!.`.R.G.B.w.y.m.A.D.B.n.a.a.m.F.!._..X-X*X).F.M.i.i.i.",
"8X7X8X4X<X,X<X,X=X+X X`.T.G.D.N.u.@ O > @ u.j.m.N.N.D.D.D.N.M.f.@ 5.a.N.A.D.D.A.M.f.@ @ u.d.f.z.x.$ # t.n.S.H.Q.]./.F.a.z.6.7.x.",
"7X7X7X6X<X=XoX X}.`.!.R.G.A.m.y.O 5 4 4 5 + e.j.j.j.j.j.j.i.7.e 7 < # w.p.p.j.i.7.0.< 5 ; w , 0.7 7 : q # w.k.j.M.M.d.5.w < < < ",
"7X7X7X7X4X,XoX}.W.G.A.m.a.y.r.+ 5 f k k f 5 + 5.4.5.5.5.5.8.r 8 B N 0 & $ # ;.y 0.9 B B V V S S D B N 4 w * % 5.5.6.+ t 6 N B N ",
"7X7X7X7X7X1X,XXXK.n.w.4.% O = 1 f d k x k h 4 2 2 2 3 4 9 C B K ] m W V 6 6 6 V U H L ] X...O.] L H H I V 4 2 3 9 C D K H L L L ",
"7X7X7X7X7X7X2X=X^.M.e.o . =   d g k x x x x b b b b F k l G ` ' o.) ( m m m ( ( ' { | o.*.*.*._ } { { ` J n b b n ` { { | o.[ o.",
"7X7X7X7X7X7X6X<X.XJ.i.X . =   d k x x x x c ` ( ' ' ' ' ' [ [ o._ &._ ) ) ) ) _ +.%.%.*.*.*.*.*.%.%.%.o.[ ' ' ' ' { %.%.%.*.%.%.",
"7X7X7X7X7X7X7X1X;X/.C.r.% : 4 g j v c c c ` [ o.o.o.%.o.%.o._ %.*.*.*.*.*.*.*.*.*.*.*.*.*.*.*.*.*.*.*.&.%.%.o.o.| %.%.*.*.*.*.*.",
"7X7X7X7X7X8X8X6X,XXXJ.n.r.& 9 B z v ` ` { } %.%.&.&.&.%.&.&.&.*.*.*.*.*.*.*.*.*.*.*.*.*.*.*.*.*.*.*.*.*.&.&.%.*.%.&.*.*.*.*.*.*.",
"7X7X8X7X7X7X8X6X4X*X!.D.p.z., N z G { } o.+.&.*.*.*.*.*.*.*.*.&.%.&.*.*.*.*.*.*.*.*.*.*.*.*.*.*.*.*.*.*.&.*.*.*.*.*.*.*.*.*.*.*.",
"7X7X7X7X7X7X7X8X7X-X~.G.N.r.q 4 H ` o.%.&.&.*.*.&.*.*.*.*.*.*.&.o.o.%.*.*.*.*.*.*.*.*.*.*.*.*._ *.*.*.&.%.%.%.*.*.*.*.*.*.*.*.*.",
"8X7X7X7X8X7X7X8X9X,X).G.A.d.O 2 H } %.*.*.*.*.*.=.=.=.=.=.=.*.&.o.o.&.*.*.*.*.*.*.*.*.*.*.*.*.*.*.*.*.&.%.%.%.*.*.*.*.*.*.*.*.*.",
"7X7X7X7X7X7X7X8X9X<X_.G.A.h.O - P o.*.*.*.*.=.=.<.<.<.<.<.<.-.=.%.%.*.*.*.*.*.*.*.*.*.*.*.*.*.*.*.*.*.%.+.o.*.*.*.*.*.*.*.*.*.*.",
"7X7X8X7X7X7X6X4X<X$XW.N.a.z.0 V X.%.*.*.*.=.<.<.2.2.1.3.3.2.<.-.=.*.*.*.*.*.*.*.*.*.*.*.*.*.*.*.*.*.*.&.%.%._ *.*.*.*.*.*.*.*.*.",
"8X8X7X7X7X6X<X=X.XP.C.h.% 0 V M ) *.*.*.*.=.2.3.0X0X0X0X0X0X3.2.=.*.*.*.*.*.*.*.*.*.*.*.*.*.*.*.*.*.*.*.*.%._ *.*.*.*.*.*.*.*.*.",
"8X8X8X8X8X4X=X.XQ.B.d.# ; 6 M o.&.*.*.*.*.=.2.0X0X0X0X0X0X0X0X2.-.*.*.*.*.&.*.*.*.*.*.*.*.*.*.*.*.*.*.*.*.*.*.*.*.*.*.*.*.*.*.*.",
"6X8X7X7X8X<XoX'.L.a.r.@ : N X.+.&.*.*.*.*.=.2.3.0X0X0X0X0X0X0X2.-.&.*.*.=.=.*.*.*.*.*.*.*.*.*.*.*.*.*.*.*.*.*.*.*.*.*.*.*.*.*.*.",
"8X8X8X7X8X2X*X|.^.Z.d.$ q T ! $.&.*.*.*.*.=.<.2.0X0X3.3.3.0X2.<.=.*.*.=.=.=.*.*.*.*.*.*.*.*.*.*.*.*.*.*.*.*.*.*.*.*.*.*.*.*.*.*.",
"8X7X6X8X7X6X4X,X=X[.L.n.z.>./ #.&.*.*.*.*.*.-.<.<.<.<.2.<.<.<.=.*.*.*.*.=.=.=.*.*.*.*.*.*.*.*.*.*.*.*.*.*.*.*.*.*.*.*.*.*.*.*.*.",
"8X7X8X8X7X7X8X7X4X*X!.A.n.:.E #.$.*.*.*.*.*.=.=.=.-.-.-.-.-.*.*.*.*.*.*.=.=.*.*.*.*.*.*.*.*.*.*.*.*.*.*.*.*.*.*.*.*.*.*.*.*.*.*.",
"9X6X6X9X7X7X7X9X7X-X).D.m.:.E ~ *.*.*.*.*.=.=.<.=.=.*.=.*.*.*.*.*.*.*.*.*.*.*.*.*.*.*.*.*.*.*.*.*.*.*.*.*.*.*.*.*.*.*.*.*.*.*.*.",
"7X9X9X6X7X7X9X7X6X&XK.V.t.y Y  ._ *.*.=.<.<.<.<.<.=.=.*.*.*.*.*.*.*.*.*.*.*.*.*.*.*.*.*.*.*.*.*.*.*.*.*.*.*.*.*.*.*.*.*.*.*.*.*.",
"7X7X7X9X7X7X9X6X,XOXU.7.u W ! $.*.*.-.<.<.1.3.3.2.<.=.*.*.*.*.*.*.*.*.*.*.*.*.*.*.*.*._ *.*.*.*.*.*.*.*.*.*.*.*.*.*.&.*.*.*.*.*.",
"7X7X7X7X9X6X2X-XoXP.x.+ 7 K  ._ *.=.<.<.3.3.0X0X3.<.=.*.*.*.*.*.*.*.*.*.*.*.*.*.*.*.*.*.*.*.*.*.*.*.*.*.=.*.*.*.*.*.*.*.*.*.*.*.",
"9X7X7X7X9X4X*X|.K.Z.4.9.< V ! _ _ *.<.<.2.3.0X3.2.<.*.*.*.*.*.*.*.*.*.*.*.*.*.*.*.*.*.*.*.*.*.*.*.=.<.=.=.=.*.*.*.*.*.*.*.*.*.*.",
"6X9X9X6X6X,X@X|.P.Z.d.4.& p Q ..&.*.*.=.<.2.3.2.<.<.*.*.*.*.*.=.*.*.*.*.*.*.*.*.*.*.*.*.*.*.*.*.*.*.=.<.=.=.*.*.*.*.*.*.*.*.*.*.",
"7X7X7X4X-X=X,X<X:X%X^.B.g.c.E ~ $.=.*.*.=.=.=.=.=.=.*.*.=.=.=.=.*.*.*.*.*.*.*.*.*.*.*.*.*.*.*.*.*.*.=.=.=.*.*.*.*.*.*.*.*.*.*.*.",
"7X9X7X4X-X,X6X9X9X1XoX).G.f.,.^ $.*.*.*.*.*.*.*.*.*.*.=.=.=.=.*.*.*.*.*.*.*.*.*.*.*.*.*.*.*.*.*.*.*.*.*.&.*.*.*.*.*.*.*.*.&.&.$.",
"7X7X7X7X2X6X7X7X8X4X-X XH.b.,.^ $.*.*.*.*.*.*.*.*.*.*.*.*.*.*.*.*.*.*.*.*.*.*.*.*.*.*.*.*.*.*.*.*.*.&.*.*.*.*.*.*.*.*.*.*.&.@.[ ",
"7X7X7X7X7X7X3X4X5X<X*X/.S.b.,.~ $.*.*.*.*.*.*.*.*.*.*.*.*.*.*.*.*.*.*.*.*.*.*.*.*.*.*.*.*.*.*.*.*.*.*.*.*.*.*.*.*.*.*.*.*.&.o.} ",
"7X7X7X7X7X3X&X&X:X$XQ.S.a.:.,.~ $.%.&.&.*.&.*.*.*.*.*.*.*.*.*.*.*.*.*.&.*.*.*.*.*.*.*.*.*.*.*.*.*.*.*.*.*.*.*.*.*.*.*._ *.&.&.%.",
"7X7X7X9X7X2X#X{.(./.B.p.w.:.E M O.+.%.%.&.*.*.*.*.*.*.*.*.*.*.*.*.*.*.*.*.*.*.*.*.*.*.*.*.*.*.*.*.*.*.*.*.*.*.*.*.*.*.*.*.*.*.*.",
"8X7X7X8X7X>XI.U.L.S.p.w.;.& i M [ o.o.%.&.*.*.*.*.*.*.*.*.*.*.*.*.*.*.*.*.*.&.*.*.*.*.*.*.*.*._ *.*.*.*.*.*.*.*.*.*.*.*.*.*.*.*.",
"7X7X7X8X7X>XI.P.J.S.m.s.;.:.0 Q X.%.%.%.&.*.*.*.*.*.*.*.*.*.*.*.*.*.*.*.*.*.*.*.*.*.*.*.*.*.*.*.*.*.*.*.*.*.*.*.*.*.*.*.*.*.*.*.",
"7X7X7X7X8X2X&X%XoX].R.A.G.n.;.s ~ *.&.*.&.*.*.*.*.*.*.*.*.*.*.*.*.*.*.&.*.*.*.*.*.*.*.*.*.*.*.*.*.*.*.*.*.*.*.*.*.*.*.*.*.*.*.*.",
"7X7X7X7X7X7X7X6X<X;X!.T.T.N.w.y ~ *.*.*.*.*.*.*.*.*.*.*.*.*.*.*.*.*.*.*.*.*.*.*.*.*.*.*.*.*.*.*.*.*.*.*.*.*.*.*.*.*.*.*.*.*.*.*.",
"7X7X7X7X7X7X7X7X6X,X}.E.T.D.j.8./ *.*.*.*.*.*.*.*.*.*.*.*.*.*.*.*.*.*.*.*.*.*.*.*.*.*.*.*.*.*.*.*.*.*.*.*.*.*.*.*.*.*.*.*.*.*.*.",
"7X8X7X7X7X7X7X8X8X1XoX`.T.G.j.c.~ =.=.*.*.*.*.*.*.*.*.*.*.*.*.*.*.*.*.*.*.*.*.*.*.*.*.*.*.*.*.*.*.*.*.*.*.*.*.*.*.*.*.%.%.%.%.%.",
"7X7X7X7X7X7X7X7X8X6X=X XE.D.j.c./ *.*.*.*.*.*.*.*.*.*.*.*.*.*.*.*.*.*.*.*.*.*.*.*.*.*.*.*.*.*.*.*.*.*.*.*.*.*.=.*.*.%.o.{ { { { ",
"7X7X7X8X7X7X7X7X6X<X-XoXE.A.p.q.~ *.*.*.*.*.*.*.*.*.*.*.*.*.*.*.*.*.*._ *.*.*.*.*.*.*.*.*.&.*.*.*.*.*.*.*.*.%.%.%.%.| ] H I I I ",
"7X7X7X7X7X9X8X6X,X=X=X.XW.m.;.0 ~ *.*.*.*.*.*.*.*.*.*.*.*.*.*.*.*.*.*.*.*.*.*.*.*.*.*.*.*.*.&.*.*.*.*.*.*.%.| { { ] P A 8 , , , ",
"7X8X7X7X7X7X7X2X=XoXOX(.Z.t.e i  .*.*.*.*.*.*.*.*.*.*.*.*.*.*.*.*.*.*.*.*.*.*.*.*.*.*.*.*.*.*.*.*.*.*.&.$...U A I I T 0.8.7.7.7.",
"7X7X7X7X7X6X6X<X=X(.P.b.:.0 V Q o.*.*.*.*.*.*.*.*.*.*.*.*.*.*.*.*.*.*.*.*.*.*.*.*.*.*.*.*.*.*.*.*.*.*.$.X.R q.8.0.0.8.f.V.C.Z.L.",
"7X7X7X8X7X7X6X,X%X(.g.u.O 2 m [ _ *.*.*.*.*.*.*.*.*.*.*.*.*.*.*.*.*.*.*.*.*.*.*.*.*.*.*.*.*.*.*.*.*.*...Q p f.s.7.8.k.D.E.`.}. X",
"8X7X7X7X7X6X4X,X(.L.g.;.w 6 ] o.&.*.*.*.*.*.*.*.*.*.*.*.*.*.*.*.*.*.*.*.*.*.*.*.*.*.*.*.*.*.*.*.*.*.=.#.E Y.V.D.Z.V.F.).|.@X=X-X",
"7X7X7X7X7X7X6X,X.XJ.n.t.+ s ! +.*.*.*.*.*.*.*.*.*.*.*.*.*.*.*.*.*.*.*.*._ *.*.*.*.*.*.*.&.*.*.*.*.=.%.X.0.8.C.G.G.R.}.oX*X<X1X6X",
"7X7X7X7X7X8X8X<X;X/.F.a.5.e W ] %.*.*.*.*.*.*.*.*.*.*.*.*.*.*.*.*.*.*.*.*.*.*.*.*.*.*.*.*.*.*.*.*.%.| L Z 0.l.D.R.'.*X1X4X6X7X7X",
"7X7X7X7X7X8X8X4X,XXXW.N.i.$ i P ) *.*.*.*.*.*.*.*.*.*.*.*.*.*.*.*.*.*.*.*.*.*.*.*.*.*.*.*.*.*.*.*.%.{ H C 0.f.D.).XX1X9X9X7X7X7X",
"7X7X7X7X7X7X7X7X6X=X!.D.N.z.t D O.*.*.*.*.*.*.*.*.*.*.*.*.*.*.*.*.*.*.*.*.*.*.*.*.*.*.*.*.*.*.*.*.%.{ G I 0.7.F.|.=X4X9X7X7X7X7X",
"7X8X7X7X7X7X7X8X9X,X).G.N.d.w V ..*.*.*.*.&.%.&._ *.*.*.*.*.*.*.*.*.*.*.*.*.*.*.*.*.*.*.*.*.*.*.*.+.P I Z 0.f.J.XX=X1X4X7X7X7X7X",
"7X7X7X7X7X8X8X8X9X,X_.G.N.h.O 6  .*.*.*.*.&.o.o.%.*.*.*.*.*.*.*.*.*.*.*.*.*.*.*.*.*.*.*.*.*.*.*.=.$.Q 0.q.f.L.).|.@X*X-X4X7X7X7X",
"7X7X7X8X7X8X8X8X9X,X~.G.A.h.O 6  .*.=.*.*.+.[ [ %.*.*.*.*.*._ *.*.*.*.*.*.*.*.*.*.*.*.*.*.*.*.*.=.$.Q 0.x.V.J._.}.XXoX=X1X7X9X7X"
};
