/* XPM */
static char *result[] = {
/* columns rows colors chars-per-pixel */
"64 64 211 2 ",
"   c #3D5C69",
".  c #1C757D",
"X  c #1E7C7F",
"o  c #3C6878",
"O  c #2A7A7C",
"+  c #3B7D7E",
"@  c #33757A",
"#  c #256B76",
"$  c #7E505B",
"%  c #6C525E",
"&  c #485C6D",
"*  c #575C6A",
"=  c #4D5C70",
"-  c #794B69",
";  c #675468",
":  c #79546C",
">  c #7C4E75",
",  c #675C7B",
"<  c #745578",
"1  c #674D69",
"2  c #53686F",
"3  c #486573",
"4  c #5C647D",
"5  c #576579",
"6  c #487678",
"7  c #42797D",
"8  c #53787B",
"9  c #67656D",
"0  c #676A75",
"q  c #756776",
"w  c #6B7377",
"e  c #7A7373",
"r  c #757774",
"t  c #BA3D71",
"y  c #A13B69",
"u  c #8C545D",
"i  c #96585C",
"p  c #A45E5E",
"a  c #B65A58",
"s  c #994965",
"d  c #875A65",
"f  c #985268",
"g  c #8B5E75",
"h  c #865576",
"j  c #9C5473",
"k  c #9A5A72",
"l  c #81446A",
"z  c #A8486A",
"x  c #BE426E",
"c  c #B64D69",
"v  c #AA5767",
"b  c #B75967",
"n  c #A84B72",
"m  c #A35572",
"M  c #846C6C",
"N  c #9A6568",
"B  c #9A6867",
"V  c #996672",
"C  c #887773",
"Z  c #8D6F70",
"A  c #A66566",
"S  c #B76969",
"D  c #A9766C",
"F  c #B4746A",
"G  c #BB7469",
"H  c #B07A6B",
"J  c #BB7266",
"K  c #C55D5C",
"L  c #CA665D",
"P  c #D4665E",
"I  c #D5695D",
"U  c #DC6C5E",
"Y  c #E3705F",
"T  c #C64A6D",
"R  c #C4486D",
"E  c #C95767",
"W  c #D65E67",
"Q  c #D95C67",
"!  c #D25569",
"~  c #D25969",
"^  c #C56C65",
"/  c #CD6D66",
"(  c #C86868",
")  c #D66764",
"_  c #DB6465",
"`  c #D26D64",
"'  c #DD6B63",
"]  c #C57467",
"[  c #CA7265",
"{  c #C07269",
"}  c #DB7364",
"|  c #D57364",
" . c #E36D63",
".. c #E66B63",
"X. c #E67162",
"o. c #E97461",
"O. c #EC7966",
"+. c #ED7C6A",
"@. c #56817C",
"#. c #4F837C",
"$. c #738277",
"%. c #6C817B",
"&. c #F0816F",
"*. c #F28472",
"=. c #F48977",
"-. c #F68C7C",
";. c #F88F7F",
":. c #1E7382",
">. c #277B84",
",. c #3B7485",
"<. c #337A84",
"1. c #377986",
"2. c #4E6982",
"3. c #4C6780",
"4. c #536782",
"5. c #467D81",
"6. c #447582",
"7. c #1C8483",
"8. c #1B8D86",
"9. c #1C8D8C",
"0. c #16898A",
"q. c #0A948E",
"w. c #0E9B8D",
"e. c #06978E",
"r. c #13938C",
"t. c #1A958B",
"y. c #119A8E",
"u. c #019D91",
"i. c #0C9D92",
"p. c #139991",
"a. c #189690",
"s. c #0E8D87",
"d. c #2B8C8B",
"f. c #278587",
"g. c #368381",
"h. c #3A8682",
"j. c #368983",
"k. c #3B8B83",
"l. c #26968A",
"z. c #39998C",
"x. c #13A38F",
"c. c #03A293",
"v. c #0BA492",
"b. c #03AC95",
"n. c #0BAB94",
"m. c #14A492",
"M. c #14AC96",
"N. c #1EA996",
"B. c #03B297",
"V. c #0EB297",
"C. c #05B498",
"Z. c #0CB598",
"A. c #05BA99",
"S. c #0DBD9A",
"D. c #1CB696",
"F. c #13B499",
"G. c #1BB499",
"H. c #14BB9B",
"J. c #1CBC9B",
"K. c #14B295",
"L. c #24A992",
"P. c #23B399",
"I. c #28BA9C",
"U. c #35BB9C",
"Y. c #448684",
"T. c #0DC39C",
"R. c #0EC99E",
"E. c #14C39D",
"W. c #1AC39D",
"Q. c #14CB9E",
"!. c #19CA9F",
"~. c #23C59E",
"^. c #22C99F",
"/. c #2AC39E",
"(. c #31C89F",
"). c #1CD0A0",
"_. c #23CDA0",
"`. c #2BCDA1",
"'. c #34C6A0",
"]. c #31CEA2",
"[. c #3BC4A0",
"{. c #23D4A2",
"}. c #2BD5A3",
"|. c #2ED9A4",
" X c #33D3A3",
".X c #3CD6A4",
"XX c #34DBA5",
"oX c #3BDCA6",
"OX c #3EE1A7",
"+X c #49D3A5",
"@X c #42DCA7",
"#X c #4ADDA7",
"$X c #47DBA7",
"%X c #53DAA7",
"&X c #44E3A8",
"*X c #4BE5AA",
"=X c #4DE9AB",
"-X c #42E0A7",
";X c #54E5AA",
":X c #5BE4AB",
">X c #54EBAC",
",X c #5BEDAD",
"<X c #5EF0AE",
"1X c #63EDAE",
"2X c #61E7AC",
"3X c #63F2AF",
"4X c #66F4B0",
"5X c #6DF7B1",
"6X c #6EF8B1",
"7X c #70F9B2",
"8X c #FA9484",
/* pixels */
"5X5X5X6X6X5X5X6X5X5X5X5X6X5X5X5X7X5X5X5X5X5X5X7X5X5X5X5X5X5X5X5X5X5X5X5X5X5X5X5X5X5X5X5X5X5X5X5X5X5X7X5X5X5X5X5X5X5X5X5X5X5X5X5X",
"5X5X5X5X5X5X5X5X5X5X5X5X5X5X5X6X5X5X5X5X6X5X5X5X5X5X5X7X6X5X5X6X6X5X6X5X5X7X5X5X5X5X5X7X5X5X5X5X5X5X5X5X5X5X5X5X5X7X7X5X5X5X5X6X",
"5X5X5X5X5X5X5X5X5X5X5X6X5X5X5X5X5X5X5X5X5X5X5X5X5X6X5X7X6X5X5X5X5X5X6X5X5X7X5X5X5X5X5X5X5X5X5X5X5X5X5X5X5X7X5X5X5X5X5X5X5X5X5X5X",
"5X5X5X6X5X6X5X5X6X5X5X5X5X6X5X5X5X6X5X5X5X5X6X5X7X4X1X4X4X5X7X5X5X5X5X5X5X5X5X5X5X5X7X5X5X5X7X5X7X5X5X5X5X5X5X5X5X5X5X5X5X5X5X7X",
"6X5X5X6X5X5X5X5X5X5X5X5X5X5X5X5X5X5X5X5X5X5X5X6X6X4X>X=X4X5X5X5X5X5X5X5X5X5X5X5X5X5X5X5X5X7X5X5X5X5X6X5X5X5X5X5X5X5X5X5X5X5X7X7X",
"5X5X5X5X5X4X5X6X7X5X6X5X6X5X6X5X5X6X5X6X6X5X5X4X1X>X*X>X4X5X7X5X6X5X5X5X5X5X5X4X5X5X5X5X5X5X4X4X5X5X5X5X5X5X5X5X5X5X5X5X7X4X<X,X",
"5X5X5X4X1X<X4X6X6X6X5X5X5X6X5X5X6X5X5X7X5X6X5X1X@X.X;X4X4X5X5X5X5X5X5X5X7X4X1X<X4X7X5X5X5X4X<X<X4X5X5X5X6X5X5X5X5X6X5X6X5X<X-XXX",
"5X7X5X4X,X>X,X1X1X4X5X5X5X5X5X5X5X4X4X4X5X6X7X:X'.'.:X7X5X5X5X5X5X7X6X5X4X<X>X,X4X5X7X5X7X4X<X>X4X4X4X6X5X5X6X7X6X5X4X4X5X4XoX|.",
"5X5X5X4X,X*X.X+X%X1X4X6X6X5X6X4X4X,X,X<X4X7X6X:XU.U.:X7X6X6X5X6X5X5X7X4X>X*X>X,X4X5X5X5X5X4X,X*X=X>X4X7X7X6X5X7X6X4X>X>X4X4X>X*X",
"4X4X4X4X<X$X_.J.'.+X,X4X4X5X7X1X*X.X.X*X>X4X4X#XP.I.#X<X4X4X4X5X5X4X<X*X X].*X,X4X5X5X5X4X4X,X*X X X;X,X3X3X5X3X<X=X X X=X>X*X*X",
">X:X4X4X,X@XJ.b.F.~.$X>X,X3X5X:X`.Z.F.~.XX&X&X|.D.K.^.XX=X,X<X4X4X>XoX_.M.G..X>X1X4X4X<X,X>X*X.XG.G.(.+X*X,X3X>XoX_.M.M._.|.}.{.",
"XXOX=X>X=X XF.c.c.n.`.OX-X=X4X*XG.u.u.n.W._._.W.n.n.T.Q.}.OX=X,X,X&X_.Z.q.p.`.-X*X>X,X*XoXXXXX'.p.r.L.I. X-X>X&X{.Z.q.q.Z.E.R.R.",
"Q.).|.oX|.W.m.q.q.v.H.Q.).XX=X@XN.q.q.i.n.S.S.F.r.t.n.A.T.).|.OXOX|.E.b.0.9.M.W.XXOX@X XW.S.T.M.>.>.9.m.S.!.XXXXE.n.0.9.v.B.B.B.",
"A.A.E.!.E.G.d.<.<.f.n.C.S.E.`.U.z.h.h.d.l.a.l.Y.7 ,.t.v.b.A.E.^._.J.M.9.,.,.9.M.J._./.I.m.i.p.9.2.4.6.d.m.H.W.W.M.a.,.,.f.a.t.t.",
"u.u.u.c.c.t.4.> 4.4.9.u.u.c.c.l.%.C C C $.$.Y.Z k 4.2.>.s.u.c.c.c.p.>.2.4.< 4.<.p.i.a.d.1.,.1.4.h j V %.Y.a.i.p.>.2.< > 4.4.w w ",
"h.j.h.j.k.4.g n n j 5.j.j.j.k.@.D ^ ( G G F F S E b V 4.#.j.j.j.j.5.w h t n > 4.,.1.2.4.q q q g c ! ( D r 5.1.6.4.h n x n k m D ",
"H H { G H ] [ ) Y ` G G H H ] ] | } Y o.} } } } Y U I ] G H &.D H G { ( E T n n k k m b S / { / ' .. .| [ F m j j c ) ) ) ` ` | ",
"O.o.o.o.o.o.o.o.o.o.Y o.o.o.o.o.O.Y o.o.Y O.Y Y o.o.Y Y O.O.o.o.o.O.o.X.' Q ~ ! ! ~ Q _ o.O.o.o.O.o.o.o.O..._ ! ! W  .o.o.o.o.o.",
"o.o.o.o.o.o.O.Y O.o.O.Y O.o.o.o.O.O.O.O.O.O.O.o.o.o.o.o.o.o.o.o.o.o.o.o.X. . . .......o.o.o.o.o.o.o.o.o.o.X. . . .....o.o.O.o.o.",
"....o.o.o.Y o.O.Y O.Y o.o.o.o.O.O.&.O.O.o.Y o.o.o.o.o.o.Y o.o.o.Y o.o.o.o.o.o.o.O.X.o.o.o.o.o.o.o.o.o.o.o.o.o.o.X.O.o.o.o.o.o.o.",
"Q _ o.o.o.o.o.o.o.o.o.o.o.o.X.O.O.O.O.O.o.o.o.o.o.o.o.o.o.o.o.o.O.o.o.o.o.o.o.o.o.o.o.o.o.o.o.o.o.o.o.o.o.o.o.o.o.o.o.o.o.o.o.o.",
"Q _ ..o.o.o.o.o.o.o.o.o.o.o.o.o.o.O.o.O.O.o.O.&.o.&.o.o.o.o.o.o.o.o.o.o.o.X.o.o.o.o.o.o.o.o.o.o.X.X.X.o.o.o.o.o.o.o.o.o.o.o.o.o.",
" . .o.o.o.o.o.o.o.o.} o.o.o.o.o.o.Y O.O.O.&.=.=.*.&.Y o.o.o.o.o.o.o.o.o.o.o.o.o.o.o.o.o.o.o.o.X. . .X.o.o.o.o.o.o.o.o.o.o.o.o.o.",
"o.o.o.o.o.o.o.o.o.o.Y o.o.o.o.o.o.O.Y o.O.=.;.;.=.&.&.o.o.o.o.o.o.Y o.o.o.o.o.o.o.o.o.o.o.X.o.X. ._ X.o.o.o.o.o.o.o.o.o.o.o.o.o.",
"o.o.o.o.o.o.o.Y o.o.o.o.o.o.o.o.o.o.o.O.&.=.;.8X8X;.&.Y o.o.o.o.o.o.o.o.Y o.o.o.o.o.o.o.o.o.o.X. ._ X.o.o.o.o.o.o.o.X.o.o.o.o.o.",
"o.o.o.o.o.o.o.X.o.o.o.o.O.o.o.o.o.o.o.O.=.-.;.8X8X;.&.Y o.o.o.o.o.o.o.o.o.o.o.o.o.o.o.o.o.o.o. . . .X.X.X.X.X.o.o.o.o.o.o.o.o.o.",
"o.o.Y o.o.o.o.o.o.o.o.o.O.O.O.O.o.o.o.O.=.;.8X8X;.-.&.Y o.o.o.o.o.o.o.o.o.o.o.o.o.o.o.o.o.o.o.X._  .X. .) _  .o.o.o.o.o.o.o.o.X.",
"o.o.o.o.o.o.o.o.o.o.o.o.O.O.O.O.o.o.o.O.-.;.8X8X;.-.&.Y o.o.o.o.o.o.o.o.o.o.o.o.o.o.o.X.o.o.o.X._ _  . ._ _ X.o.o.o.o.o.o.o.o.o.",
"o.o.o.o.o.o.o.o.o.o.o.o.O.o.o.O.o.o.o.O.*.-.;.8X8X;.Y o.o.o.o.o.o.o.o.o.o.o.o.Y o.o.o.o.o.o.o. ._ W  .X.X. .X.o.o.o.o.o.o.o.X.o.",
"o.o.o.o.o.o.o.o.o.o.o.o.o.o.o.o.o.o.o.O.*.=.;.;.;.;.&.o.o.o.o.o.o.o.o.o.o.o.o.O.o.o.o.o.o.o.o.X._ _  .O.o.o.o.o.o.o.o.o.o.o.o.o.",
"o.o.o.o.o.o.o.o.o.o.o.o.X.o.o.o.Y o.o.O.&.&.;.;.;.*.&.&.o.o.o.o.o.o.Y o.o.o.o.o.o.o.o.o.o.o.o.X.X. .X.o.o.o.o.o.o.o.o.o.o.o.o.o.",
"o.o.o.o.o.o.o.o.o.o.o.o.o.o.o.o.o.o.o.o.o.&.=.-.=.&.Y Y o.Y o.o.o.o.o.o.o.o.o.o.o.o.o.o.o.o.o.o.o.o.o.o.o.o.o.o.o.o.o.o.o.o.o.Y ",
"o.o.o.o.o.o.o.o.o.o.o.o.o.o.o.o.o.o.o.o.O.O.O.&.O.o.o.o.o.o.o.o.o.o.o.o.o.o.o.o.Y o.o.o.o.o.o.Y o.o.o.o.o.o.o.o.o.o.Y o.o.o.o.o.",
"o.o.o.o.o.o.o.o.o.o.o.o.o.o.o.o.o.o.Y o.Y Y Y Y o.o.o.o.o.o.o.o.o.o.o.o.o.o.o.o.o.o.o.o.o.o.o.o.o.o.o.o.o.o.o.o.O.Y o.o.o.o.o.o.",
"o.o.o.o.o.o.o.o.X.o.o.o.o.o.o.o.o.o.o.o.Y O.o.o.o.o.o.o.o.o.o.o.o.o.o.o.o.o.o.o.o.o.o.o.o.o.o.o.o.o.o.o.o.o.o.o.o.o.o.o.o.o.o.o.",
"o.o.o.o.o.o.o.o.o.O.X.o.o.o.o.o.o.o.o.o.O.Y o.o.o.o.o.o.o.o.o.o.o.Y o.o.o.O.Y o.o.o.o.o.o.o.o.o.o.o.o.o.o.o.o.o.o.o.o.o.o.o.o.o.",
"X.o.o.o.o.o.o.o.o.o.o.o.o.o.o.o.o.o.o.o.o.o.o.o.o.o.o.o.o.o.o.o.o.o.o.o.o.o.o.o.Y o.o.o.o.o.o.o.o.o.o.o.Y O.o.o.o.o.o.o.o.Y O.o.",
"o.o.o.o.o.o.X.X.' ' X.o.o.o.o.X.Y Y O.o.o.o.o.o.o.o.o.o.o.o.o.o.o.o.o.o.o.o.o.o.O.O.&.o.O.o.o.o.o.o.o.o.o.o.Y o.o.o.o.o.o.o.o.o.",
"o.o.o.o.o.o.X._ ~ ~ _  .X.o.o.X._ Q Y o.o.o.o.o.o.o.o.o.o.o.o.o.o.o.o.o.o.Y O.O.*.=.=.&.&.o.o.o.Y o.o.o.o.o.o.o.o.o.o.o.o.o.o.o.",
"o.o.o.o.X.X. .) R x ! _ X.o.o.X._ ..o.Y X.o.o.o.o.o.o.X.o.o.o.o.o.o.o.o.o.o.O.&.-.;.;.-.&.&.o.o.O.o.o.o.o.o.o.o.o.o.o.Y o.o.o.o.",
"o.o.o.X.o.X.' ~ R t R ~ ' o.o.X. . .X.o.o.o.o.o.o.o.o.o.o.o.o.o.Y o.o.o.o.o.+.&.;.8X8X;.=.*.O.o.X.o.o.o.o.o.o.o.o.o.o.o.o.o.o.o.",
"o.o.o.o.o.X._ ! t t R !  .o.o.o.o.o.o.o.o.o.o.o.o.o.o.o.o.o.o.o.o.o.o.o.o.O.&.*.;.8X8X8X;.*.O.o.Y o.o.o.o.o.o.o.o.o.o.o.Y o.Y Y ",
"X.o.o.o.o.X._ ~ R x T W  .o.o.o.o.o.o.o.o.o.o.o.o.o.o.o.o.o.o.Y o.o.o.o.o.o.+.*.8X8X8X8X-.*.O.o.o.o.o.o.o.o.o.o.Y o.o.o.o. ...Q ",
"o.o.o.o.o.X. .) T T ~ _ X.o.o.o.o.o.o.o.X.o.o.o.o.o.o.o.o.X.o.o.o.o.o.o.o.o.+.*.;.8X8X8X-.*.O.Y o.o.o.o.o.o.o.o.O.o.o.o.o.Y _ _ ",
"o.o.o.o.o.o.X._ ~ ~ _ X.X.o.o.o.o.o.o.o.o.o.o.o.o.o.o.o.o.o.o.o.o.o.o.o.o.O.O.&.;.8X;.;.=.&.O.o.o.o.o.o.o.o.o.o.o.o.o.o.o.X. . .",
"o.o.o.o.o.o.O.X._ _ X.o.o.o.o.o.o.o.o.o.o.o.o.o.o.o.o.o.o.o.o.o.o.o.o.o.o.o.O.+.=.;.-.=.&.&.O.o.o.o.o.o.o.o.o.o.o.o.X.o.o.o.o.o.",
"o.o.o.o.o.o.o.X. .X.X.o.o.o.o.o.o.o.o.o.o.o.o.o.o.o.o.o.o.o.o.o.o.o.o.o.o.o.o.O.&.&.&.&.O.O.Y o.o.o.o.o.o.o.o.o.o.o.o.o.o.o.o.o.",
"o.o.o.o.o.o.o.o.o.o.Y X.X.Y X.o.o.o.o.o.o.o.o.o.o.o.o.o.o.o.o.o.Y Y Y Y Y o.o.O.Y +.O.O.o.o.o.o.o.o.o.o.o.o.o.o.o.o.o.o.X.X.X.Y ",
"o.o.o.o.O.O.o.o... ._ P P P U Y o.o.o.o.o.Y Y o.o.o.o.O.Y O.Y Y I L I I Y Y Y Y Y O.o.Y o.o.o.o.o.Y o.o.Y o.o.Y o.o.o....._ ) P ",
"o.o.o.o.X. ..._ W E S v p A L U X.X.U ' | [ ] ] [ [ [ [ [ ` X.I a p p p J ] | } o.Y U P U U Y Y  .' | | ] [ [ [ [ | _ Q ! E b v ",
"O.o.o.X._ W ~ E c s : 5 2 9 B ] ' _ K p B Z e e e r r e M B b b u % * 2 2 e Z H } Y L a a a I I E b B M r r r r r M b T t z : ; ",
" .' ` ^ b b n z s 1 o :.. @ w B E K z d 2 6 + g.g.+ g.+ 6 9 f s % & # . O @ 8 C F L i $ $ u p b p f 9 6 + g.+ g.g.8 h z y - & o ",
"E b A e q , < 1 1 = 7.e.e.s.h.w v z - 2 @ 8.y.p.y.w.w.r.8.7 > > 3 . s.w.w.t.l.#.M i 2 &   & 2 9 - ; @ 8.r.w.y.w.w.f.4 - l ; # 7.",
"f d 2 7 + @ o 3 o O x.H.H.G.L.#.q : 2 @ t.v.c.c.B.C.B.b.c.8.5 5 X w.n.C.B.B.v.l.8 2 @ . O f.g.+ 3 3 8.c.B.B.C.C.A.y.<.3 & 3 8.x.",
"* 6 j.x.n.n.r.q.q.x.~.XX*X&X(.L.f.>.l.N.J.H.v.v.H.Q.E.T.A.v.8.8.x.S.E.!.!.Q.A.n.8.8.x.K.H.D.G.m.t.r.n.A.T.E.E.!.Q.H.x.0.X 8.K.E.",
"# 7.n.T.R.T.B.B.B.J.oX>X5X3XOX^.i.q.J.}.XX XP.L. XXX|.{.Q.A.u.u.E.{.XXXXXX|.Q.A.c.c.E.{.OX|.{.E.b.b.T.R.{.|.XXXXoX}.H.b.c.n.!.}.",
"w.n.W.}.XX{.S.C.W. X>X5X5X5X>X.XJ.J..X=X,X;X+X+X*X<X>X&X|.W.u.x.].=X>X<X<X=XXX!.b.Z.}.=X>X,X=X}.V.b.!.|.*X>X,X,X,X=X XJ.F.I.oX>X",
"C.E.|.&X>X-X_.!. X#X1X6X5X3X<X&X(. X>X5X6X5X2X2X5X5X5X,X*X XP.P.#X3X5X6X7X3X=X X~.`.@X,X4X5X4X#XG.G.^.OX>X3X5X5X7X1X&X X^.`.>X3X",
"!.}.=X3X3X<X*X-X&X>X3X6X6X5X<X*XoXoX2X5X6X5X4X5X5X5X5X5X3X,X;X:X3X4X6X6X6X4X3X,X>X=X&X=X4X6X4X:X[.U. X-X>X<X5X5X7X3X>X@X XXX>X3X",
"{.XX,X6X6X5X<X,X,X3X5X5X5X3X>X=X*X>X3X6X5X5X5X5X5X5X5X5X5X5X7X6X6X6X5X6X6X6X6X7X5X4X>X;X4X6X7X1X%X+X#X=X>X<X5X5X6X5X3X>XOX&X>X<X",
"|.oX>X4X5X5X3X5X5X3X5X5X6X3X*X&X,X3X5X5X6X5X5X6X5X5X5X6X5X6X6X6X6X6X5X5X6X5X5X6X7X5X3X3X5X5X5X5X1X1X1X3X3X5X5X5X5X5X5X3X>X=X>X>X",
"OX&X,X3X5X5X6X5X5X5X5X6X5X3X>X>X3X6X6X5X5X5X5X5X5X5X5X5X5X5X5X6X5X5X5X5X6X6X5X5X5X5X5X6X5X5X5X5X5X5X6X5X5X5X5X5X5X5X5X5X<X<X<X<X",
">X,X,X3X5X5X5X5X5X5X5X5X5X5X3X3X5X5X5X5X5X5X5X5X5X5X5X5X5X5X5X5X5X5X5X6X5X6X6X5X5X5X6X6X5X5X5X5X6X6X5X5X5X5X5X5X5X5X5X5X4X4X3X3X",
"3X3X3X3X5X6X5X5X5X6X5X5X5X5X6X6X5X6X5X5X6X5X5X6X5X5X5X6X6X5X5X6X5X5X5X5X5X5X5X5X5X5X5X5X5X5X5X5X6X5X5X5X5X5X5X5X5X5X5X5X7X6X6X6X"
};
