/* XPM */
static char *result[] = {
/* columns rows colors chars-per-pixel */
"64 64 183 2 ",
"   c #3D1A2E",
".  c #3C1B32",
"X  c #4E162B",
"o  c #53152A",
"O  c #591429",
"+  c #5B1C2E",
"@  c #461C32",
"#  c #4B1C33",
"$  c #521D32",
"%  c #5B1B33",
"&  c #631629",
"*  c #6B1728",
"=  c #6D1D2B",
"-  c #601D2E",
";  c #73172C",
":  c #741B2C",
">  c #641C34",
",  c #6A1D34",
"<  c #6F1734",
"1  c #721C34",
"2  c #7C1A34",
"3  c #761A39",
"4  c #7D1939",
"5  c #701635",
"6  c #5F202F",
"7  c #542534",
"8  c #5D2B38",
"9  c #6D232E",
"0  c #63222E",
"q  c #632233",
"w  c #6D2A33",
"e  c #772532",
"r  c #6E3137",
"t  c #773637",
"y  c #7D3837",
"u  c #7F333C",
"i  c #7A3B45",
"p  c #831B36",
"a  c #8B1E35",
"s  c #861B39",
"d  c #8D183B",
"f  c #9B1E36",
"g  c #931A3A",
"h  c #9C1C3A",
"j  c #941F37",
"k  c #A31E39",
"l  c #A91F39",
"z  c #882834",
"x  c #962137",
"c  c #9B2137",
"v  c #952A32",
"b  c #972038",
"n  c #9B243C",
"m  c #9C283E",
"M  c #813C3B",
"N  c #893436",
"B  c #913234",
"V  c #9A3D37",
"C  c #993A37",
"Z  c #AB2636",
"A  c #AE2138",
"S  c #A72536",
"D  c #B42537",
"F  c #B52936",
"G  c #BB2B34",
"H  c #B02238",
"J  c #BE3235",
"K  c #BB3738",
"L  c #B73939",
"P  c #C12F33",
"I  c #C23132",
"U  c #C43936",
"Y  c #CB3B34",
"T  c #C83634",
"R  c #D03F36",
"E  c #96413B",
"W  c #9C453C",
"Q  c #AB483D",
"!  c #B1433A",
"~  c #C74136",
"^  c #CD4236",
"/  c #C5423B",
"(  c #CA4439",
")  c #C6483F",
"_  c #CA4A3D",
"`  c #D44437",
"'  c #D44638",
"]  c #D44C3A",
"[  c #CE503D",
"{  c #D4523D",
"}  c #8E2641",
"|  c #942643",
" . c #952F4C",
".. c #8F3F4D",
"X. c #9D3143",
"o. c #94304F",
"O. c #9A334D",
"+. c #9E3B53",
"@. c #A02D40",
"#. c #AC3741",
"$. c #A23F53",
"%. c #9D584A",
"&. c #9E4057",
"*. c #BF4940",
"=. c #B84643",
"-. c #A04054",
";. c #A84E5E",
":. c #B95A54",
">. c #B55751",
",. c #BC6057",
"<. c #BA615B",
"1. c #AE5F69",
"2. c #AC5766",
"3. c #B46267",
"4. c #B97175",
"5. c #C54740",
"6. c #C74F45",
"7. c #CB5540",
"8. c #CD5A46",
"9. c #CE5648",
"0. c #CC5C4A",
"q. c #C55A46",
"w. c #D55741",
"e. c #D55D43",
"r. c #D85C45",
"t. c #CD604C",
"y. c #D56346",
"u. c #D4644A",
"i. c #D8664A",
"p. c #D7694B",
"a. c #DA6B4F",
"s. c #CF685D",
"d. c #C96C56",
"f. c #D96F51",
"g. c #D36B5E",
"h. c #D26E53",
"j. c #CA7458",
"k. c #D67555",
"l. c #D97452",
"z. c #DA7956",
"x. c #DB7C5A",
"c. c #D3795B",
"v. c #C97761",
"b. c #D87B62",
"n. c #C27C7A",
"m. c #DC835E",
"M. c #DB8462",
"N. c #DD8C64",
"B. c #D98C68",
"V. c #DE9167",
"C. c #DE946A",
"Z. c #C5827F",
"A. c #DD9673",
"S. c #E0996E",
"D. c #E19D74",
"F. c #E2A37A",
"G. c #E2A076",
"H. c #C58582",
"J. c #C98D85",
"K. c #D89B80",
"L. c #D39C8E",
"P. c #D39C90",
"I. c #DFAE91",
"U. c #D4A293",
"Y. c #E5AE85",
"T. c #E8AE86",
"R. c #E8AE8D",
"E. c #E9B58D",
"W. c #EABA94",
"Q. c #EABE9A",
"!. c #EAB690",
"~. c #E3BCA3",
"^. c #ECC29B",
"/. c #EDC3A1",
"(. c #EFCCA6",
"). c #ECCCAC",
"_. c #F0CBA4",
"`. c #F2D5AF",
"'. c #EECDB0",
"]. c #EFD2B0",
"[. c #F6DEB9",
"{. c #F4D5B0",
"}. c None",
/* pixels */
"}.}.}.}.}.}.}.}.}.}.}.}.}.}.}.}.}.}.}.}.}.}.}.}.}.}.}.}.}.}.}.}.}.}.}.}.}.}.}.}.}.}.}.}.}.}.}.}.}.}.}.}.}.}.}.}.}.}.}.}.}.}.}.}.",
"}.}.}.}.}.}.}.}.}.}.}.}.}.}.}.}.}.}.}.}.}.}.}.}.}.}.}.}.}.}.}.}.}.}.}.}.}.}.}.}.}.}.}.}.}.}.}.}.}.}.}.}.}.}.}.}.}.}.}.}.}.}.}.}.",
"}.}.}.}.}.}.}.}.}.}.}.}.}.}.}.}.}.}.}.}.}.}.}.}.}.}.}.}.}.}.}.}.}.}.}.}.}.}.}.}.}.}.}.}.}.}.}.}.}.}.}.}.}.}.}.}.}.}.}.}.}.}.}.}.",
"}.}.}.}.}.}.}.}.}.}.}.}.}.}.}.}.}.}.}.}.}.}.}.}.}.}.}.}.}.}.}.}.}.}.}.}.}.}.}.}.}.}.}.}.}.}.}.}.}.}.}.}.}.}.}.}.}.}.}.}.}.}.}.}.",
"}.}.}.}.}.}.}.}.}.}.}.}.}.}.}.}.}.}.}.}.}.}.}.}.}.}.}.}.}.}.}.}.}.}.}.}.}.}.}.}.}.}.}.}.}.}.}.}.}.}.}.}.}.}.}.}.}.}.}.}.}.}.}.}.",
"}.}.}.}.}.}.}.}.}.}.}.}.}.}.}.}.}.}.}.}.}.}.}.}.}.}.}.}.}.}.}.}.}.}.}.}.}.}.}.}.}.}.}.}.}.}.}.}.}.}.}.}.}.}.}.}.}.}.}.}.}.}.}.}.",
"}.}.}.}.}.}.}.}.}.}.}.}.}.}.}.}.}.}.}.}.}.}.}.}.}.}.}.}.}.}.}.}.}.}.}.}.}.}.}.}.}.}.}.}.}.}.}.}.}.}.}.}.}.}.}.}.}.}.}.}.}.}.}.}.",
"}.}.}.}.}.}.}.}.}.}.}.}.}.}.}.}.}.}.}.}.}.}.}.}.}.}.}.}.}.}.}.}.}.}.}.}.}.}.}.}.}.}.}.}.}.}.}.}.}.}.}.}.}.}.}.}.}.}.}.}.}.}.}.}.",
"}.}.}.}.}.}.}.}.}.}.}.}.}.}.}.}.}.}.}.}.}.}.}.}.}.}.}.}.}.}.}.}.}.}.}.}.}.}.}.}.}.}.}.}.}.}.}.}.}.}.}.}.}.}.}.}.}.}.}.}.}.}.}.}.",
"}.}.}.}.}.}.}.}.}.}.}.}.}.}.}.}.}.}.}.}.}.}.}.}.}.}.}.}.}.}.}.}.}.}.}.}.}.}.}.}.}.}.}.}.}.}.}.}.}.}.}.}.}.}.}.}.}.}.}.}.}.}.}.}.",
"}.}.}.}.}.}.}.}.}.}.}.}.}.}.}.}.}.}.}.}.}.}.}.}.}.}.}.}.}.}.}.}.o o }.}.}.}.}.}.}.}.}.}.}.}.}.}.}.}.}.}.}.}.}.}.}.}.}.}.}.}.}.}.",
"}.}.}.}.}.}.}.}.}.}.}.}.}.}.}.}.}.}.}.}.}.}.}.}.}.}.}.}.}.}.}.o O O O }.}.}.}.}.}.}.}.}.}.}.}.}.}.}.}.}.}.}.}.}.}.}.}.}.}.}.}.}.",
"}.}.}.}.}.}.}.}.}.}.}.}.}.}.}.}.}.}.}.}.}.}.}.}.}.}.}.}.}.}.}.o & * & o }.}.}.}.}.}.}.}.}.}.}.}.}.}.}.}.}.}.}.}.}.}.}.}.}.}.}.}.",
"}.}.}.}.}.}.}.}.}.}.}.}.}.}.}.}.}.}.}.}.}.}.}.}.}.}.d d d d 5 O * * O o o 1 }.}.}.}.}.}.}.}.}.}.}.}.}.}.}.}.}.}.}.}.}.}.}.}.}.}.",
"}.}.}.}.}.}.}.}.}.}.}.}.}.}.}.}.}.}.}.}.}.}.}.}.}.X.O.X.+.$...i = * = 9 9 z n }.}.}.}.}.}.}.}.}.}.}.}.}.}.}.}.}.}.}.}.}.}.}.}.}.",
"}.}.}.}.}.}.}.}.}.}.}.}.}.}.}.}.}.}.}.}.}.}.}.+.$.v.N.B.Q././.Q.e * -.j.e.e.0.X.n | }.}.}.}.}.}.}.}.}.}.}.}.}.}.}.}.}.}.}.}.}.}.",
"}.}.}.}.}.}.}.}.}.}.}.}.}.}.}.}.}.}.}.}.d } 2.P.P.A.M.l.g.g.g.s.: * v ! ( y.c.*.=.#.s s }.}.}.}.}.}.}.}.}.}.}.}.}.}.}.}.}.}.}.}.",
"}.}.}.}.}.}.}.}.}.}.}.}.}.}.}.}.}.}.}.+.4.H.U.].Q.b.9.' I P F Z : ; x S P 6.t.z.c.0.=.>.u }.}.}.}.}.}.}.}.}.}.}.}.}.}.}.}.}.}.}.",
"}.}.}.}.}.}.}.}.}.}.}.}.}.}.}.}.}.}.}.2.~.).].(.D.9.U T J G Z f : 2 d d G J ) x.V.z.u.c.E $ }.}.}.}.}.}.}.}.}.}.}.}.}.}.}.}.}.}.",
"}.}.}.}.}.}.}.}.}.}.}.}.}.}.}.}.}.d H.[.[.T.T._.D.6.P P g g d d ; 2 d d d g f J h.f.' ' m.<.d }.}.}.}.}.}.}.}.}.}.}.}.}.}.}.}.}.",
"}.}.}.}.}.}.}.}.}.}.}.}.}.}.}.}.}.H.Q.`.W.D.D.E.E.M.u.5.Z h d d p s d d Z F K _ u.y.` ' i.h.,.q }.}.}.}.}.}.}.}.}.}.}.}.}.}.}.}.",
"}.}.}.}.}.}.}.}.}.}.}.}.}.}.}.}.| '.].^.S.S.C.G.Q.T.A.x.5.L m m n n m n U Y { e.e.] ` ` { i.N.6 o }.}.}.}.}.}.}.}.}.}.}.}.}.}.}.",
"}.}.}.}.}.}.}.}.}.}.}.}.}.}.}.}.O.).E.S.V.N.V.V.D.Q._._.C.c.u.0.8.8.8.8.e.e.e.e.] ' ` ` ' { i.0 + }.}.}.}.}.}.}.}.}.}.}.}.}.}.}.",
"}.}.}.}.}.}.}.}.}.}.}.}.}.}.}.1.J.Y.G.N.l.l.l.z.V.F.T.T.Q.W.R.E.m.m.m.x.m.i.] ] ] ` ' ` ' ] y.Q N }.}.}.}.}.}.}.}.}.}.}.}.}.}.}.",
"}.}.}.}.}.}.}.}.}.}.}.}.}.}.d 3.I.C.B.z.y.y.{ p.m.m.m.V.^._./.^.C.C.M.x.z.r.` ` ` ` ` ` ` ` [ [ V o }.}.}.}.}.}.}.}.}.}.}.}.}.}.",
"}.}.}.}.}.}.}.}.}.}.}.}.}.}.+.<.B.V.k.e.e.e.y.{ { ] e.m.m.m.m.m.m.m.f.] ` ` ' ` ` ` ` ` ` Y J [ E X }.}.}.}.}.}.}.}.}.}.}.}.}.}.",
"}.}.}.}.}.}.}.}.}.}.}.}.}.o.4.K.C.V.l.y.e.e.{ ] ] ' { r.r.r.r.r.e.r.w.' ' ` ` ` ` R Y ` Y T I [ E @ }.}.}.}.}.}.}.}.}.}.}.}.}.}.",
"}.}.}.}.}.}.}.}.}.}.}.}.}.o.Z.W.A.z.p.e.{ { { ` ' ` ` ` ` ` ` ` ' ' ` ` ` ` ` ` Y T I Y I I F ~ ! M 7 }.}.}.}.}.}.}.}.}.}.}.}.}.",
"}.}.}.}.}.}.}.}.}.}.}.}.}. .n.E.S.i.y.{ ' ' ' ` ` ` ` ` ` ` ` ` ` ` ` ` ` ` ' ` Y P I I P G H P ~ W 7 }.}.}.}.}.}.}.}.}.}.}.}.}.",
"}.}.}.}.}.}.}.}.}.}.}.}.}.| :.V.m.y.{ ` ` ` ` ` ' ` ` ` ` ` ` ` ` ` ` ` ` ` ` R T I I P P G H H U W 7 }.}.}.}.}.}.}.}.}.}.}.}.}.",
"}.}.}.}.}.}.}.}.}.}.}.}.}.| :.m.l.y.{ ` ` ` ` ` ` ` ` ` ` ` ` ` ` R Y R ` ` ` Y I I I P I G H H G C 7 }.}.}.}.}.}.}.}.}.}.}.}.}.",
"}.}.}.}.}.}.}.}.}.}.}.}.}.| :.x.y.{ ' ` ` ' ` ` ` ` ` T ` ` ` ` ` Y I Y ` R Y P G G I I G D H H F v $ }.}.}.}.}.}.}.}.}.}.}.}.}.",
"}.}.}.}.}.}.}.}.}.}.}.}.}.} :.x.y.` ` ` ` ` ` ` ` ` Y I ` ` ` ` R Y I I R Y I I F F T P F H A H D v $ }.}.}.}.}.}.}.}.}.}.}.}.}.",
"}.}.}.}.}.}.}.}.}.}.}.}.}.6 %.x.y.` ` ` ` ` ` ` ` ` R P ` ` ` R I I I I I I I P D G P P D H A H G c $ }.}.}.}.}.}.}.}.}.}.}.}.}.",
"}.}.}.}.}.}.}.}.}.}.}.}.}.6 W y.{ ' ` ` ` ` R ` ` Y T I Y Y Y T I I I I I I I I F D G P D H H H H v $ }.}.}.}.}.}.}.}.}.}.}.}.}.",
"}.}.}.}.}.}.}.}.}.}.}.}.}.0 C e.] ' ` R R R R R R T I I P I P P I I I I G I G G D A H G D H H H l p # }.}.}.}.}.}.}.}.}.}.}.}.}.",
"}.}.}.}.}.}.}.}.}.}.}.}.}.6 V 0.r.' Y I I I I I I I I I P P P P I I P P D D D I D H H A H l H l k 3 # }.}.}.}.}.}.}.}.}.}.}.}.}.",
"}.}.}.}.}.}.}.}.}.}.}.}.}.}.w W { ' Y I P I I I I I I I P P G P I P P P D l D D A A A h l l h g 4 $ }.}.}.}.}.}.}.}.}.}.}.}.}.}.",
"}.}.}.}.}.}.}.}.}.}.}.}.}.}.. y [ ' Y I P I P P P I I I P D D P I I P G D l l H A A l g k h d s , . }.}.}.}.}.}.}.}.}.}.}.}.}.}.",
"}.}.}.}.}.}.}.}.}.}.}.}.}.}.}.t Q ` Y I I I P P D G P I P G D P P I G D A H H H A A h g d d d 4 > . }.}.}.}.}.}.}.}.}.}.}.}.}.}.",
"}.}.}.}.}.}.}.}.}.}.}.}.}.}.}.8 r ~ T I I I I G D D G I D D H D D G G D A A A A l g g g d d d % # }.}.}.}.}.}.}.}.}.}.}.}.}.}.}.",
"}.}.}.}.}.}.}.}.}.}.}.}.}.}.}.}.@ ~ ` Y I G G D H A H D H H A A D D D A A A A A h d d g d d d @ . }.}.}.}.}.}.}.}.}.}.}.}.}.}.}.",
"}.}.}.}.}.}.}.}.}.}.}.}.}.}.}.}.@ ! ' ^ I D A A A A H H H A A l A A A A A A A l g d d d g d s @ }.}.}.}.}.}.}.}.}.}.}.}.}.}.}.}.",
"}.}.}.}.}.}.}.}.}.}.}.}.}.}.}.}.}.  B ^ D H H A A H A H H A l g g f k g l A l g d d d d k a . }.}.}.}.}.}.}.}.}.}.}.}.}.}.}.}.}.",
"}.}.}.}.}.}.}.}.}.}.}.}.}.}.}.}.}.  B U D A A H l k k H H H k g g g g g l A l g d d g d k a . }.}.}.}.}.}.}.}.}.}.}.}.}.}.}.}.}.",
"}.}.}.}.}.}.}.}.}.}.}.}.}.}.}.}.}.  z L D A A A l g g l l l k g d d d d l l f d d d d g j 2 . }.}.}.}.}.}.}.}.}.}.}.}.}.}.}.}.}.",
"}.}.}.}.}.}.}.}.}.}.}.}.}.}.}.}.}.}.# q S l A k g g d g l H k g d d d d g g d d d d g f & # }.}.}.}.}.}.}.}.}.}.}.}.}.}.}.}.}.}.",
"}.}.}.}.}.}.}.}.}.}.}.}.}.}.}.}.}.}.}.}.> s f j d d d d f f g d d d d d d d d d d h g ; $ }.}.}.}.}.}.}.}.}.}.}.}.}.}.}.}.}.}.}.",
"}.}.}.}.}.}.}.}.}.}.}.}.}.}.}.}.}.}.}.}.}.% 5 d d d d d d d d d d d d d d d g h k z , }.}.}.}.}.}.}.}.}.}.}.}.}.}.}.}.}.}.}.}.}.",
"}.}.}.}.}.}.}.}.}.}.}.}.}.}.}.}.}.}.}.}.}.. % 4 4 d d d d d d d d d d d g g g f f 3 . }.}.}.}.}.}.}.}.}.}.}.}.}.}.}.}.}.}.}.}.}.",
"}.}.}.}.}.}.}.}.}.}.}.}.}.}.}.}.}.}.}.}.}.}.}.@ # 3 d d d d d g d d d d A A b $ # # }.}.}.}.}.}.}.}.}.}.}.}.}.}.}.}.}.}.}.}.}.}.",
"}.}.}.}.}.}.}.}.}.}.}.}.}.}.}.}.}.}.}.}.}.}.}.}.}.% % % d d g h k k k k , , , }.}.}.}.}.}.}.}.}.}.}.}.}.}.}.}.}.}.}.}.}.}.}.}.}.",
"}.}.}.}.}.}.}.}.}.}.}.}.}.}.}.}.}.}.}.}.}.}.}.}.}.. . . 3 4 s x f c c x @ . . }.}.}.}.}.}.}.}.}.}.}.}.}.}.}.}.}.}.}.}.}.}.}.}.}.",
"}.}.}.}.}.}.}.}.}.}.}.}.}.}.}.}.}.}.}.}.}.}.}.}.}.}.}.}.@               }.}.}.}.}.}.}.}.}.}.}.}.}.}.}.}.}.}.}.}.}.}.}.}.}.}.}.}.",
"}.}.}.}.}.}.}.}.}.}.}.}.}.}.}.}.}.}.}.}.}.}.}.}.}.}.}.}.}.}.}.}.}.}.}.}.}.}.}.}.}.}.}.}.}.}.}.}.}.}.}.}.}.}.}.}.}.}.}.}.}.}.}.}.",
"}.}.}.}.}.}.}.}.}.}.}.}.}.}.}.}.}.}.}.}.}.}.}.}.}.}.}.}.}.}.}.}.}.}.}.}.}.}.}.}.}.}.}.}.}.}.}.}.}.}.}.}.}.}.}.}.}.}.}.}.}.}.}.}.",
"}.}.}.}.}.}.}.}.}.}.}.}.}.}.}.}.}.}.}.}.}.}.}.}.}.}.}.}.}.}.}.}.}.}.}.}.}.}.}.}.}.}.}.}.}.}.}.}.}.}.}.}.}.}.}.}.}.}.}.}.}.}.}.}.",
"}.}.}.}.}.}.}.}.}.}.}.}.}.}.}.}.}.}.}.}.}.}.}.}.}.}.}.}.}.}.}.}.}.}.}.}.}.}.}.}.}.}.}.}.}.}.}.}.}.}.}.}.}.}.}.}.}.}.}.}.}.}.}.}.",
"}.}.}.}.}.}.}.}.}.}.}.}.}.}.}.}.}.}.}.}.}.}.}.}.}.}.}.}.}.}.}.}.}.}.}.}.}.}.}.}.}.}.}.}.}.}.}.}.}.}.}.}.}.}.}.}.}.}.}.}.}.}.}.}.",
"}.}.}.}.}.}.}.}.}.}.}.}.}.}.}.}.}.}.}.}.}.}.}.}.}.}.}.}.}.}.}.}.}.}.}.}.}.}.}.}.}.}.}.}.}.}.}.}.}.}.}.}.}.}.}.}.}.}.}.}.}.}.}.}.",
"}.}.}.}.}.}.}.}.}.}.}.}.}.}.}.}.}.}.}.}.}.}.}.}.}.}.}.}.}.}.}.}.}.}.}.}.}.}.}.}.}.}.}.}.}.}.}.}.}.}.}.}.}.}.}.}.}.}.}.}.}.}.}.}.",
"}.}.}.}.}.}.}.}.}.}.}.}.}.}.}.}.}.}.}.}.}.}.}.}.}.}.}.}.}.}.}.}.}.}.}.}.}.}.}.}.}.}.}.}.}.}.}.}.}.}.}.}.}.}.}.}.}.}.}.}.}.}.}.}.",
"}.}.}.}.}.}.}.}.}.}.}.}.}.}.}.}.}.}.}.}.}.}.}.}.}.}.}.}.}.}.}.}.}.}.}.}.}.}.}.}.}.}.}.}.}.}.}.}.}.}.}.}.}.}.}.}.}.}.}.}.}.}.}.}.",
"}.}.}.}.}.}.}.}.}.}.}.}.}.}.}.}.}.}.}.}.}.}.}.}.}.}.}.}.}.}.}.}.}.}.}.}.}.}.}.}.}.}.}.}.}.}.}.}.}.}.}.}.}.}.}.}.}.}.}.}.}.}.}.}."
};
