/* XPM */
static char *result[] = {
/* columns rows colors chars-per-pixel */
"64 64 229 2 ",
"   c #151415",
".  c #191A1B",
"X  c #17161A",
"o  c #0B0C0D",
"O  c #1F2326",
"+  c #212426",
"@  c #25292B",
"#  c #28292B",
"$  c #372C26",
"%  c #362D29",
"&  c #392E28",
"*  c #3A2E26",
"=  c #3C322A",
"-  c #38332C",
";  c #272D30",
":  c #2A2E31",
">  c #283436",
",  c #393B33",
"<  c #313A3C",
"1  c #30251F",
"2  c #5E1E00",
"3  c #5C311A",
"4  c #6D2808",
"5  c #7D320B",
"6  c #77320A",
"7  c #753112",
"8  c #7B3312",
"9  c #7C3E1D",
"0  c #6F3113",
"q  c #463528",
"w  c #563929",
"e  c #45342B",
"r  c #6B3D25",
"t  c #7B3F21",
"y  c #743C23",
"u  c #36453B",
"i  c #7C401F",
"p  c #6D452D",
"a  c #7C4122",
"s  c #7C4628",
"d  c #794E37",
"f  c #323F42",
"g  c #284648",
"h  c #37474B",
"j  c #3E4E54",
"k  c #3E5255",
"l  c #3C575A",
"z  c #3B5D62",
"x  c #276465",
"c  c #276567",
"v  c #3A6365",
"b  c #316969",
"n  c #376769",
"m  c #386F71",
"M  c #3C7C7A",
"N  c #46565B",
"B  c #55554C",
"V  c #725D4F",
"C  c #716454",
"Z  c #475D62",
"A  c #49646B",
"S  c #576869",
"D  c #5A6E74",
"F  c #4B7778",
"G  c #557176",
"H  c #587779",
"J  c #666564",
"K  c #756A61",
"L  c #6E7571",
"P  c #59655C",
"I  c #87380E",
"U  c #8C3B11",
"Y  c #863C17",
"T  c #913F14",
"R  c #9A451B",
"E  c #89431F",
"W  c #A44B1D",
"Q  c #A3471B",
"!  c #B1511F",
"~  c #884625",
"^  c #984C27",
"/  c #9B532B",
"(  c #995735",
")  c #8B5D3E",
"_  c #A54E23",
"`  c #A84E25",
"'  c #AD5224",
"]  c #AD542A",
"[  c #A8562B",
"{  c #B45525",
"}  c #B3562A",
"|  c #B55A2D",
" . c #BB5B2D",
".. c #BA5727",
"X. c #AA5A32",
"o. c #A45A38",
"O. c #B45D32",
"+. c #BD5D31",
"@. c #A8613B",
"#. c #BD6235",
"$. c #B76538",
"%. c #BE703E",
"&. c #C25E2C",
"*. c #C25F30",
"=. c #C4612D",
"-. c #CD642E",
";. c #C46435",
":. c #CA6635",
">. c #CD6936",
",. c #C46539",
"<. c #CB6738",
"1. c #C46A3B",
"2. c #CD6939",
"3. c #C66934",
"4. c #D66932",
"5. c #DC6C33",
"6. c #D36B39",
"7. c #D26732",
"8. c #D36E37",
"9. c #E6753A",
"0. c #E87438",
"q. c #885E45",
"w. c #89644A",
"e. c #946F53",
"r. c #AC6C4C",
"t. c #A76746",
"y. c #BC6C45",
"u. c #B36C4A",
"i. c #B36743",
"p. c #BC7455",
"a. c #BB7D5C",
"s. c #B47553",
"d. c #B1704E",
"f. c #82786E",
"g. c #C66D43",
"h. c #CB7245",
"j. c #CB744C",
"k. c #C57646",
"l. c #DA7945",
"z. c #C77855",
"x. c #E77D46",
"c. c #62827A",
"v. c #BE815F",
"b. c #B68A65",
"n. c #CD8957",
"m. c #D78A52",
"M. c #D8925A",
"N. c #D3864B",
"B. c #FF8847",
"V. c #FF8B4B",
"C. c #F98446",
"Z. c #E79859",
"A. c #FD9E5A",
"S. c #F69A58",
"D. c #F08E4F",
"F. c #FFA15C",
"G. c #DA9962",
"H. c #C29070",
"J. c #E49C62",
"K. c #EB9D61",
"L. c #F0A062",
"P. c #3A7D80",
"I. c #587F86",
"U. c #617F86",
"Y. c #3A8889",
"T. c #3C9394",
"R. c #488789",
"E. c #528285",
"W. c #5A8C8D",
"Q. c #54878A",
"!. c #4A9799",
"~. c #579797",
"^. c #548C91",
"/. c #6C8A8E",
"(. c #68868A",
"). c #6C8B93",
"_. c #688E96",
"`. c #6C939B",
"'. c #669899",
"]. c #74949D",
"[. c #78949A",
"{. c #729094",
"}. c #6D9CA4",
"|. c #659CA2",
" X c #749BA1",
".X c #49A8A9",
"XX c #57AAAC",
"oX c #45AEB1",
"OX c #5AAEB1",
"+X c #49B7B8",
"@X c #59B4B7",
"#X c #62A9AE",
"$X c #68A3A9",
"%X c #67ACB3",
"&X c #64B9BD",
"*X c #65B3B8",
"=X c #67B1AE",
"-X c #5EA09E",
";X c #5DBDC2",
":X c #66BAC1",
">X c #5AC5C9",
",X c #5AD5D7",
"<X c #4BDFDF",
"1X c #64C5C9",
"2X c #6FD9DE",
"3X c #69D3D9",
"4X c #70D8DD",
"5X c #61CCD0",
"6X c #52DDE1",
"7X c #6EDDE2",
"8X c #72DBE3",
"9X c #5AF4F5",
"0X c #59F6F9",
"qX c #55FDFD",
"wX c #5AFBFB",
"eX c #55F3F4",
"rX c #56E6E8",
"tX c #6AE6EA",
"yX c #69EDF2",
"uX c #64FCFE",
"iX c #68F3F7",
"pX c #898A8A",
"aX c #878888",
"sX c #8A9291",
"dX c #C59983",
"fX c #D4B9AC",
"gX c #D7BFB1",
"hX c #CEAA92",
"jX c None",
/* pixels */
"jXjXjXjXjXjXjXjXjXjXjXjXjXjXjXjXjXjXjXjXjXjXjXjXjXjXjXjXjXjXjXn v n x u d @.@.( ( jXjXjXjXjXjXjXjXjXjXjXjXjXjXjXjXjXjXjXjXjXjXjX",
"jXjXjXjXjXjXjXjXjXjXjXjXjXjXjXjXjXjXjXjXjXjXjXjXjXjXjXW.^.~.!.T.R.R.c.B / 3.%.[ [ @.t.jXjXjXjXjXjXjXjXjXjXjXjXjXjXjXjXjXjXjXjXjX",
"jXjXjXjXjXjXjXjXjXjXjXjXjXjXjXjXjXjXjXjXjXjXjXjXjX(.W.^..X.X>X>X@X-Xc.t.N.D.k.| ;.] / t.jXjXjXjXjXjXjXjXjXjXjXjXjXjXjXjXjXjXjXjX",
"jXjXjXjXjXjXjXjXjXjXjXjXjXjXjXjXjXjXjXjXjXjXjX(.W.XXoXXX#X@X;X1X$XL y.C.A.F.k.O.2. .` $.s.jXjXjXjXjXjXjXjXjXjXjXjXjXjXjXjXjXjXjX",
"jXjXjXjXjXjXjXjXjXjXjXjXjXjXjXjXjXjXjXjXjXjX^.!..X@X>X&X}._.Q.Y.P ( 5.D.S.D.%.' >. ...;.@.w.jXjXjXjXjXjXjXjXjXjXjXjXjXjXjXjXjXjX",
"jXjXjXjXjXjXjXjXjXjXjXjXjXjXjXjXjXjXjXjXjX-XoX@X#X*X&XOXE.N g > u ^ C.F.N.3.#.| >.+. .3./ V H jXjXjXjXjXjXjXjXjXjXjXjXjXjXjXjXjX",
"jXjXjXjXjXjXjXjXjXjXjXjXjXjXjXjXjXjXjXjX~.XX>X1X$X_.E.m g ; O + 3 ..V.F.N.3.3.| >. .| 3./ V c.c.jXjXjXjXjXjXjXjXjXjXjXjXjXjXjXjX",
"jXjXjXjXjXjXjXjXjXjXjXjXjXjXjXjXjXjXjXW.-X#X%X*X~.Z g @ ; O ; % E 5.V.Z.%.=.3. .>. . .3.W p c.~.W.jXjXjXjXjXjXjXjXjXjXjXjXjXjXjX",
"jXjXjXjXjXjXjXjXjXjXjXjXjXjXjXjXjXjXQ.OXOX].}.Q.z ; + @ @ : ; * ^ 0.F.Z.$.;.:. .6. . .2.W E K XX!.E.jXjXjXjXjXjXjXjXjXjXjXjXjXjX",
"jXjXjXjXjXjXjXjXjXjXjXjXjXjXjXjXjXH Y.,X&X'.H j O + ; : : @ $ r  .C.F.M.X. .3. .2.| ..2.{ Q w.=X.XR.jXjXjXjXjXjXjXjXjXjXjXjXjXjX",
"jXjXjXjXjXjXjXjXjXjXjXjXjXjXjXjXjXF oX:X&X^.j + @ ; : : : : & E 5.V.F.M.X.&.:. .,.} | >. .! / {.@XR.c.jXjXjXjXjXjXjXjXjXjXjXjXjX",
"jXjXjXjXjXjXjXjXjXjXjXjXjXjXjXjX(.P.>X X'.z + @ : : : : : ; & E 0.B.F.M.X. .:.&.<.} | :. .../ L *X!.E.jXjXjXjXjXjXjXjXjXjXjXjXjX",
"jXjXjXjXjXjXjXjXjXjXjXjXjXjXjXjXF oX%X].H < O : : : : : : ; q R 0.V.F.n.X. .:.+.<.| ..:.....o.K }.@XR.H jXjXjXjXjXjXjXjXjXjXjXjX",
"jXjXjXjXjXjXjXjXjXjXjXjXjXjXjXS T.,X:X|.N + @ : : : : : ; % r &.C.F.L.k.] &.,.+.<.|  .:.| =.| w.'.1X.XR.jXjXjXjXjXjXjXjXjXjXjXjX",
"jXjXjXjXjXjXjXjXjXjXjXjXjXjXjXl >X:X;XE.; O : : : : : : ; & i 5.B.F.J.k.] &.;.| >. ...>...;.&.) '.&X>XY.jXjXjXjXjXjXjXjXjXjXjXjX",
"jXjXjXjXjXjXjXjXjXjXjXjXjXjXjXu rX}.|.z . @ : : : : : : ; & i 5.V.F.J.k.]  .#.O.>. . .:...:.:.~ P (.3XY.jXjXjXjXjXjXjXjXjXjXjXjX",
"jXjXjXjXjXjXjXjXjXjXjXjXjXjXjXg ,X].(.h   ; : : : : : : ; $ i 5.V.S.M.y.` *.,.O.<.| ..3...:.6.8 q D 1XY.jXjXjXjXjXjXjXjXjXjXjXjX",
"jXjXjXjXjXjXjXjXjXjXjXjXjXjXjXT.1X|.G # O : : : : : : : ; $ 9 5.9.3.$.^ T { O.} ,.O. .,.} ;.<.6 - F &X+XF jXjXjXjXjXjXjXjXjXjXjX",
"jXjXjXjXjXjXjXjXjXjXjXjXjXjXjXeX,X1Xm X # : : : : : : : ; & 9 &.-.=.*.+._ Q Q W  .[ } 3.] ;.,.7 , !.5XiXm jXjXjXjXjXjXjXjXjXjXjX",
"jXjXjXjXjXjXjXjXjXjXjXjXjXjXjXqX:XOXv   : : : : : : : : ; % t { &.6.l.h.g.,...` ` R W } W ;.2.7 , ^.=XyXc jXjXjXjXjXjXjXjXjXjXjX",
"jXjXjXjXjXjXjXjXjXjXjXjXjXjXjXwX}.'.k   : : : : : : : : @ & 9 &.=. .$.s.z.z.j.g.;.{ ! W R ` } 4 - H `.7Xx jXjXjXjXjXjXjXjXjXjXjX",
"jXjXjXjXjXjXjXjXjXjXjXjXjXjXjX0X]./.k   : : : : : : : : : $ 9 7.4.W Y ^ o.t.s.z.j.j.1.;.{ { W 4 q D /.2Xx jXjXjXjXjXjXjXjXjXjXjX",
"jXjXjXjXjXjXjXjXjXjXjXjXjXjXjXqX&X%XA   : : : : : : : : @ % a 5.C.3.^ Y 8 Y ^ o.r.p.z.z.z.6.*.Q p '.=XyXc jXjXjXjXjXjXjXjXjXjXjX",
"jXjXjXjXjXjXjXjXjXjXjXjXjXjXjXqX>X;Xn   : : : : : : : : ; & a 5.B.S.m.( I I Y 5 Y ^ o.r.z.z.z.+.w.-X>XiXc jXjXjXjXjXjXjXjXjXjXjX",
"jXjXjXjXjXjXjXjXjXjXjXjXjXjXjXwX$X|.l X : : : : : : : : ; $ a 5.V.S.G.g.` ' ` U I I 6 Y ^ o.p.i.q.(.}.tXx jXjXjXjXjXjXjXjXjXjXjX",
"jXjXjXjXjXjXjXjXjXjXjXjXjXjXjXwX X).j   : : : : : : : : ; $ i 5.C.Z.n.y.]  .#.{ | R U T 5 6 E 9 r L /.4Xb jXjXjXjXjXjXjXjXjXjXjX",
"jXjXjXjXjXjXjXjXjXjXjXjXjXjXjXrX[.(.j . : : : : : : : : ; - s 8.V.D.n.y.[ $.#.O.,.| } ..Q R U 2 & G /.4Xb jXjXjXjXjXjXjXjXjXjXjX",
"jXjXjXjXjXjXjXjXjXjXjXjXjXjXjX<X>X.Xn . : : : : : : : : ; % 3 } l.m.n.i.^ O.1.| ,.} | ,.] #. .4 u oX6XuXb jXjXjXjXjXjXjXjXjXjXjX",
"jXjXjXjXjXjXjXjXjXjXjXjXjXjXjXeX^.~.A X : : : : : : : : ; & a ,.D.m.s.d r | ,.O.2. .| ,.] ,.,.7 - Q.#XyXb jXjXjXjXjXjXjXjXjXjXjX",
"jXjXjXjXjXjXjXjXjXjXjXjXjXjXjX0X(.S f X : : : : : : : : : & ~ 5.B.N.e.P C r.+.| >.&...,.] ;.,.7 & G /.2Xb jXjXjXjXjXjXjXjXjXjXjX",
"jXjXjXjXjXjXjXjXjXjXjXjXjXjXjX0X X XN X : : : : : : : ; : % ~ 6.V.m.e.D J r.1.| 2. .| ;.} 3.2.8 e G /.4Xb jXjXjXjXjXjXjXjXjXjXjX",
"jXjXjXjXjXjXjXjXjXjXjXjXjXjXjXeXD A f X : : : : : : : : @ $ 3 _ l.N.e.L J e.$.+.>. ...;.] ,.6.8 & G ).2Xb jXjXjXjXjXjXjXjXjXjXjX",
"jXjXjXjXjXjXjXjXjXjXjXjXjXjXjXqXeX,XM   ; : : : : : : : ; % s 6.V.F.G.q.p O.2.*.2. . .<...2.6.I f ;XeXqXb jXjXjXjXjXjXjXjXjXjXjX",
"jXjXjXjXjXjXjXjXjXjXjXjXjXjXjXwX X'.k   : : : : : : : : ; $ ~ 5.V.F.J.q.r O.<.+.<.|  .2.&.*.6.8 & D _.7Xb jXjXjXjXjXjXjXjXjXjXjX",
"jXjXjXjXjXjXjXjXjXjXjXjXjXjXjX0X].).j   : : : : : : : : ; $ t 5.V.F.J.w.y O.<.*.<.} | <...<.g.8 & G (.7Xb jXjXjXjXjXjXjXjXjXjXjX",
"jXjXjXjXjXjXjXjXjXjXjXjXjXjXjXwX}._.N   : : : : : : : : ; $ t 5.V.F.G.w.r  .<.&.,.}  .<.} *.*.8 & G _.7Xb jXjXjXjXjXjXjXjXjXjXjX",
"jXjXjXjXjXjXjXjXjXjXjXjXjXjXjXqX:X@Xn   : : : : : : : : ; % a 5.V.F.G.w.r O.<.*.<.| | ,.} *.<.7 , !.@XiXb jXjXjXjXjXjXjXjXjXjXjX",
"jXjXjXjXjXjXjXjXjXjXjXjXjXjXjXqX3X>Xm   : : : : : : : : ; $ i 5.V.F.G.w.p O.2.*.2. . .*.} *.6.I , !.5XuXb jXjXjXjXjXjXjXjXjXjXjX",
"jXjXjXjXjXjXjXjXjXjXjXjXjXjXjX0X]._.k   : : : : : : : : ; $ a 5.V.A.H.K V i.<. .:.*.| ,.} ,.6.8 = G ).2Xb jXjXjXjXjXjXjXjXjXjXjX",
"jXjXjXjXjXjXjXjXjXjXjXjXjXjXjX9X]._.k   : : : : : : : : ; $ a 5.V.S.b.L L r.,. .2. . .<.} <.6.8 = G ).2Xb jXjXjXjXjXjXjXjXjXjXjX",
"jXjXjXjXjXjXjXjXjXjXjXjXjXjXjXqX%X$Xz   : : : : : : : : ; % a 5.V.S.b.L K r.*.| :. . .2...:.<.8 - Q.|.tXc jXjXjXjXjXjXjXjXjXjXjX",
"jXjXjXjXjXjXjXjXjXjXjXjXjXjXjXqX5X;Xn   : : : : : : : : : % a 5.V.A.G.e.d O.,.O.:.| | :.} ,.2.7 , !.>XuXc jXjXjXjXjXjXjXjXjXjXjX",
"jXjXjXjXjXjXjXjXjXjXjXjXjXjXjXqX*X#Xv   : : : : : : : : @ & t 5.V.F.Z.u.^ &.,.+.<.X.} <.} ,.*.0 , Q.%XyXc jXjXjXjXjXjXjXjXjXjXjX",
"jXjXjXjXjXjXjXjXjXjXjXjXjXjXjX9X{.).j   : : : : : : : : ; $ 9 5.V.F.Z.k.] &.:.*.,.} | *.] | +.I w D /.4Xx jXjXjXjXjXjXjXjXjXjXjX",
"jXjXjXjXjXjXjXjXjXjXjXjXjXjXjXwX}.|.N   : : : : : : : : ; % i 5.V.F.K.j.` *.:. .*.} [ .._ ' &.Q 9 C /.tXc jXjXjXjXjXjXjXjXjXjXjX",
"jXjXjXjXjXjXjXjXjXjXjXjXjXjXjXqX1X@Xv   : : : : : : : : ; $ i 5.V.A.K.k.` +.;.}  .` W .... .g.g.Q V '.yXc jXjXjXjXjXjXjXjXjXjXjX",
"jXjXjXjXjXjXjXjXjXjXjXjXjXjXjXqX1X&Xv X : : : : : : : : ; $ i 5.V.F.K.y.^ ` ..` { | ..2.h.j.z.y.' C -XiXc jXjXjXjXjXjXjXjXjXjXjX",
"jXjXjXjXjXjXjXjXjXjXjXjXjXjXjXwX X`.l   : : : : : : : : @ & i 5.C.D.N.$.^ ! ..+.1.h.j.z.p.u.t.( ~ K /.7Xc jXjXjXjXjXjXjXjXjXjXjX",
"jXjXjXjXjXjXjXjXjXjXjXjXjXjXjX9X X).N   : : : : : : : : : $ i 7.9.,.O.O. .,.h.j.z.p.i.t.( ^ Y 4 w H {.8Xx jXjXjXjXjXjXjXjXjXjXjX",
"jXjXjXjXjXjXjXjXjXjXjXjXjXjXjXqX*X#Xz   : : : : : : : : @ & i &.&.*.<.g.j.j.p.i.o.( ~ Y I I U 2 - R.#XyXc jXjXjXjXjXjXjXjXjXjXjX",
"jXjXjXjXjXjXjXjXjXjXjXjXjXjXjXqX5X;Xb   : : : : : : : : ; - 9 { &.:.j.z.d.o.( ~ Y 5 I I I ` | 4 , !.;XuXc jXjXjXjXjXjXjXjXjXjXjX",
"jXjXjXjXjXjXjXjXjXjXjXjXjXjXjXqX%X$Xz   : : : : : : : : ; $ a &.=...X.( ~ Y 5 I U U Q | ` =.2.8 - Q.$XtXc jXjXjXjXjXjXjXjXjXjXjX",
"jXjXjXjXjXjXjXjXjXjXjXjXjXjXjXwX X).N   : : : : : : : : : % t 4.5.{ Y 6 5 U T Q  .{ | 2...:.2.8 e H `.8Xx jXjXjXjXjXjXjXjXjXjXjX",
"jXjXjXjXjXjXjXjXjXjXjXjXjXjXjX<X(.(.h o @ + + + + + + + O $ t 5.B.8.X.R Y { +.| 6.*. .7...:.,.7 $ A U.;Xb jXjXjXjXjXjXjXjXjXjXjX",
"jXjXjXjXjXjXjXjXjXjXjXjXjXjXjXY.Z N < . # @ @ @ @ @ @ @ + $ 9 5.V.A.M.1.` *.<.+.2.|  .7.| ;.*.~ e N S I.F jXjXjXjXjXjXjXjXjXjXjX",
"jXjXjXjXjXjXjXjXjXjXjXjXjXjXjXsXpXsXpXaXpXpXpXpXpXpXaXpXaXf.( 5.V.F.L.k.{ &.<.+.<.} | <.! } i.e.C S J S jXjXjXjXjXjXjXjXjXjXjXjX",
"jXjXjXjXjXjXjXjXjXjXjXjXjXjXjXjXjXjXjXjXjXjXjXjXjXjXjXjXjXjXp.4.B.F.J.k.[ &.<.+.,.O...+.X.@.u.jXjXjXjXjXjXjXjXjXjXjXjXjXjXjXjXjX",
"jXjXjXjXjXjXjXjXjXjXjXjXjXjXjXjXjXjXjXjXjXjXjXjXjXjXjXjXjXjXv.4.B.F.J.k.] &.:.+.,.] W $.H.fXjXjXjXjXjXjXjXjXjXjXjXjXjXjXjXjXjXjX",
"jXjXjXjXjXjXjXjXjXjXjXjXjXjXjXjXjXjXjXjXjXjXjXjXjXjXjXjXjXjXv.4.B.S.Z.y.] &.,.| ;.O.t.dXjXjXjXjXjXjXjXjXjXjXjXjXjXjXjXjXjXjXjXjX",
"jXjXjXjXjXjXjXjXjXjXjXjXjXjXjXjXjXjXjXjXjXjXjXjXjXjXjXjXjXjXv.4.B.F.Z.y.`  .;.` O.H.gXjXjXjXjXjXjXjXjXjXjXjXjXjXjXjXjXjXjXjXjXjX",
"jXjXjXjXjXjXjXjXjXjXjXjXjXjXjXjXjXjXjXjXjXjXjXjXjXjXjXjXjXjXv.4.B.A.J.y._ } +.r.dXjXjXjXjXjXjXjXjXjXjXjXjXjXjXjXjXjXjXjXjXjXjXjX",
"jXjXjXjXjXjXjXjXjXjXjXjXjXjXjXjXjXjXjXjXjXjXjXjXjXjXjXjXjXjXv.4.B.F.J.u.^ [ H.gXjXjXjXjXjXjXjXjXjXjXjXjXjXjXjXjXjXjXjXjXjXjXjXjX",
"jXjXjXjXjXjXjXjXjXjXjXjXjXjXjXjXjXjXjXjXjXjXjXjXjXjXjXjXjXjXv.-.0.S.N.i.r.dXjXjXjXjXjXjXjXjXjXjXjXjXjXjXjXjXjXjXjXjXjXjXjXjXjXjX",
"jXjXjXjXjXjXjXjXjXjXjXjXjXjXjXjXjXjXjXjXjXjXjXjXjXjXjXjXjXjXhXy.3.1.r.b.gXjXjXjXjXjXjXjXjXjXjXjXjXjXjXjXjXjXjXjXjXjXjXjXjXjXjXjX"
};
