/* XPM */
static char *result[] = {
/* columns rows colors chars-per-pixel */
"64 64 62 1 ",
"  c #557E3E",
". c #1A375F",
"X c #1D3B5E",
"o c #203F5C",
"O c #163362",
"+ c #193661",
"@ c #1A3860",
"# c #375B4F",
"$ c #3A5D4E",
"% c #274757",
"& c #2B4C56",
"* c #24435A",
"= c #274858",
"- c #284858",
"; c #2E5054",
": c #325452",
"> c #365950",
", c #3E624C",
"< c #466C47",
"1 c #486E46",
"2 c #41664A",
"3 c #446A48",
"4 c #4D7443",
"5 c #4F7843",
"6 c #507742",
"7 c #527A41",
"8 c #57803D",
"9 c #5B853B",
"0 c #5F8939",
"q c #6F9D2F",
"w c #719F2F",
"e c #638E37",
"r c #618C38",
"t c #669135",
"y c #6A9634",
"u c #6E9C31",
"i c #7FAF27",
"p c #74A32D",
"a c #78A62D",
"s c #7CAB29",
"d c #7FB027",
"f c #8CBF1F",
"g c #83B425",
"h c #86B823",
"j c #8ABC21",
"k c #80B128",
"l c #8EC11E",
"z c #9ACF17",
"x c #92C51C",
"c c #96CA1A",
"v c #99CE19",
"b c #9CD017",
"n c #A4D415",
"m c #AAD714",
"M c #AED913",
"N c #B6DD10",
"B c #B8DE11",
"V c #BDE00F",
"C c #8FC120",
"Z c #C4E30D",
"A c #CAE60B",
"S c None",
/* pixels */
"SSSSSSSSSSSSSSSSSSOOOOOOOOOOOOOOOOSSSSSSSSSSSSSSSSSSSSSSSSSSSSSS",
"SSSSSSSSSSSSSSSSOOOOX*%&%%*X*XX+OOOOOSSSSSSSSSSSSSSSSSSSSSSSSSSS",
"SSSSSSSSSSSSSSOOO&0gxzzzzzzzvccjs0,oOOOOSSSSSSSSSSSSSSSSSSSSSSSS",
"SSSSSSSSSSSSOOO,dzbzbzzzzzzzzzzzzzvca3@OOSSSSSSSSSSSSSSSSSSSSSSS",
"SSSSSSSSSSSOO:hzzzzzzzzzzzzzzzzzzzzzbzc9XOOOSSSSSSSSSSSSSSSSSSSS",
"SSSSSSSSSSOO8czbzzzzzzzzzzzzzzzzzzzzvbzbc XOOSSSSSSSSSSSSSSSSSSS",
"SSSSSSSSSO+5zzzzzzzzzzzzzzzzzzzzzzbzbbzzcbs-OOSSSSSSSSSSSSSSSSSS",
"SSSSSSSSOO,zzzzzzzzzzzzzzzzzzzzzzzbcsqgcbbbc:OOSSSSSSSSSSSSSSSSS",
"SSSSSSSOO;xzzzzzzzzzzzzzzzzzzzzzzzl1OO.,zzzzc,.OSSSSSSSSSSSSSSSS",
"SSSSSSSO+gzzzzzzzzzzzzzzzzzzzzzzzzq*OOO.lzzzzdo.SSSSSSSSSSSSSSSS",
"SSSSSSOO2zzzzzzzzzzzzzzzzzzzzzzzzz0XOOO.dzzzzzaOOSSSSSSSSSSSSSSS",
"SSSSSSOXhvzzzzzzzzzzzzzzzzzzzzzzzbd&OOOoxzzzzzz*OSSSSSSSSSSSSSSS",
"SSSSSOO3zzzzzzzzbzzzzzzzzzzzzzzzzzzp;%#pzzzzzzz,OSSSSSSSSSSSSSSS",
"SSSSSOOwzzzzzzxp9yjbzzzzzzzzzzzzzzzzlflzzzzzzzz3OOSSSSSSSSSSSSSS",
"SSSSSOXlzzzzzz8oO.<lzzzzzzzzzzzzzzzzzzzzzzzzzzzt+OOOOOOOOOOOOSSS",
"SSSSSO:zzzzzzhOOOOO7zzzzzzzzzzzzzzzzzzzzzzzzzzzce7999rettye3*OOS",
"SSSSOO vzzzzzpOOOOO<zzzzzzzzzzzzzzzzzzzzzzzzzzzzzzzzzzzzzzzzh:+S",
"SSSSOOkzzzzzzC@OOOX9zzzzzzzzzzzzzzzzzzzzzzzzzzzzzzzzzzzzzzzzzv$O",
"SSSSOOvvzzzzzzt%OX7xzzzzzzzzzzzzzzzzzzzzzzzzzzzzzzzzzzzzzzzzzbeO",
"SSSSO+zvzzzzzzzcgxvbzzzzzzzzzzzzzzzzzzzzzzzzzzzzzzzzzzzzzzzzzc>O",
"SSSSO@zzzzzzzzzzbbbzzzzzzzzzzzzzzzzzzzzzzzzzzzzzzzzzzzbzzzxs9&OO",
"SSSSOXzzzzzzzzbmNNMnzzzzzzzzzzzzzzzzzzzzzzzzzzzzzzvvvvjsr3&XOOOS",
"SSSSOXzzzzzzzbZAAAAAbzzzzzzzzzzzzzzzzzzzzzzzzvq,:296:X+OOOOOOSSS",
"SSSSOXzzzzzznVAAAAAAVnzzzzzzzzzzzzzzzzzzzzzzbh%OOOOOO+@XXOOOSSSS",
"SSSSOXzzzzzznAAAAAAAAMzzzzzzzzzzzzzzzzzzzzzzzze349tshjxvzk&OOSSS",
"SSSSO&zzzzzzMAAAAAAAANzzzzzzzzzzzzzzzzzzzzzzzzzzzzbzbzvzzvc,OSSS",
"SSSOO2zzzzzzmAAAAAAAAMzzzzzzzzzzzzzzzzzzzzzzzzzzzzzzzzzzzzzs+OSS",
"SSSOXhzzzzzznZAAAAAAZnzzzzzzzzzzzzzzzzzzzzzzzzzzzzzzzzzzzzzpOSSS",
"SSSO$zzzzzzzznZAAAAAmzzzzzzzzzzzzzzzzzzzzzzzzzzzzzzzvzzvch9oOSSS",
"SSO+uzzzzzzzzznBZZVmzzzzzzzzzzzzzzzzzzzzzzzzzzzlfllljgt2*OOOSSSS",
"SSO-xzzzzzzzzzzbbbbzzzzzzzzzzzzzzzzzzzzzzzzzzzfXO+.+OOOOOOSSSSSS",
"SOO9vzzzzzzzzzzzbzzzzzzzzzzzzzzzzzzzzzzzzzzzzzc#OOOOOOOSSSSSSSSS",
"SOOczzzzzzzbl,8lzzzzzbzzzzzzzzzzzzzzzzzzzzzzzzzqOOSSSSSSSSSSSSSS",
"SO*zzzzzzzzl,.8lzzzzgszzzzzzzzzzzzzzzzzzzzzzzzvuOOSSSSSSSSSSSSSS",
"SO,zzzzzzzzqO,czzzzz1$xzzzzzzzzzzzzzzzzzzzzzzzzyOOSSSSSSSSSSSSSS",
"O+8zzzzzzzz ohzzzzzz3&hzzzzzzzzzzzzzzzzzzzzzzzzyOOSSSSSSSSSSSSSS",
"O@azzzzzzzz$;lbzzzzv&#czzzzzzzzzzzzzzzzzzzzzzzzeOOSSSSSSSSSSSSSS",
"OXlzzzzzzzb=$zbbzzvpO0zzzzzzzzzzzzzzzzzzzzzzzzzeOOSSSSSSSSSSSSSS",
"O*zzzzzzzzz;3bzzzzl3Xsbzzzzzzzzzzzzzzzzzzzzzzzz9OOSSSSSSSSSSSSSS",
"O=zzzzzzzzz3;lzzzzt.4xvzzzzzzzzzzzzzzzzzzzzzzzb4OSSSSSSSSSSSSSSS",
"O%zzzzzzzzzpXtbzzg#.szzzzzzzzzzzzzzzzzzzzzzzzzz$OSSSSSSSSSSSSSSS",
"O*zzzzzzzzzc#Xdca&X4zzzzzzzzzzzzzzzzzzzzzzzzzzz*OSSSSSSSSSSSSSSS",
"O@czzzzzzzzzg:XXO=tzzzzzzzzzzzzzzzzzzzzzzzzzzzC+OSSSSSSSSSSSSSSS",
"O@wzzzzzzzzzzg  9icbzzzzzzzzzzzzzzzzzzzzzzzzzzyOOSSSSSSSSSSSSSSS",
"OO1zzzzzzzzzzzzzzzzzzzzzzzzzzzzzzzzzzzzzzzzzzx:OSSSSSSSSSSSSSSSS",
"SO*zzzzzzzzzzzzzzzzzzzzzzzzzzzzzzzzzzzzzzzzzzpOOSSSSSSSSSSSSSSSS",
"SOOCzzzzzzzzzzzzzzzzzzzzzzzzzzzzzzzzzzzzzzzzc#OSSSSSSSSSSSSSSSSS",
"SSO:czzzzzzzzzzzzzzzzzzzzzzzzzzzzzzzzzzzzzzz9OOSSSSSSSSSSSSSSSSS",
"SSO+tbzzzzzzzzzzzzzzzzzzzzzzzzzzzzzzzzzzzzzjXOSSSSSSSSSSSSSSSSSS",
"SSSO@pzzzzzzzzzzzzzzzzzzzzzzzzzzzzzzzzzzzzC&OSSSSSSSSSSSSSSSSSSS",
"SSSOO@uvzzzzzzzzzzzzzzzzzzzzzzzzzzzzzzzzzh:OOSSSSSSSSSSSSSSSSSSS",
"SSSSSOO1CzzzzzzzzzzzzzzzzzzzzzzzzzzzzzzbjoOOSSSSSSSSSSSSSSSSSSSS",
"SSSSSSOO+#txzzzzzzzzzzzzzzzzzzzzzzzzvzceXOOSSSSSSSSSSSSSSSSSSSSS",
"SSSSSSSO+OOo9hvzzbzzzzzzzzvvzzbbzzzzvk:OOOSSSSSSSSSSSSSSSSSSSSSS",
"SSSSSSSSSOOOO+*$679eyqpshjcvcccxjhy3*OO++OSSSSSSSSSSSSSSSSSSSSSS",
"SSSSSSSSSSSOOOOOOOOOO++@@-&::>:&*XOOO@$yeOOSSSSSSSSSSSSSSSSSSSSS",
"SSSSSSSSSSSSSSOO##:&*@@OOOOOOOOOO+-4axzzv@OSSSSSSSSSSSSSSSSSSSSS",
"SSSSSSSSSSSSSSO*czzzccxjhsXOSSOO xcvzzzzv*OSSSSSSSSSSSSSSSSSSSSS",
"SSSSSSSSSSSSSSO&vvzzzzzzvz-+SSOOrzzzzzzzzoOSSSSSSSSSSSSSSSSSSSSS",
"SSSSSSSSSSSSSSO+gzzzzzzzzv@OSSOOtzzzzzzzwOOSSSSSSSSSSSSSSSSSSSSS",
"SSSSSSSSSSSSSSSO%xvzzzvvc4OOSSSO#jzzzzziXOSSSSSSSSSSSSSSSSSSSSSS",
"SSSSSSSSSSSSSSSOO-pvzvbh:OOSSSSOOX40ee,+OOSSSSSSSSSSSSSSSSSSSSSS",
"SSSSSSSSSSSSSSSSSOOX::%+OOSSSSSSOOOOOOOOOSSSSSSSSSSSSSSSSSSSSSSS",
"SSSSSSSSSSSSSSSSSSOOOOOOOSSSSSSSSSSOOOSSSSSSSSSSSSSSSSSSSSSSSSSS"
};
