/* XPM */
static char *result[] = {
/* columns rows colors chars-per-pixel */
"64 64 112 2 ",
"   c #557D3F",
".  c #1E3C5F",
"X  c #203F5E",
"o  c #163362",
"O  c #193661",
"+  c #1B3960",
"@  c #375A4F",
"#  c #395D4F",
"$  c #2C4D57",
"%  c #24435C",
"&  c #2A4A5A",
"*  c #344F54",
"=  c #35455B",
"-  c #2F5055",
";  c #325455",
":  c #365952",
">  c #3A5D51",
",  c #3E624E",
"<  c #3D6050",
"1  c #47485E",
"2  c #4C485F",
"3  c #475456",
"4  c #50525A",
"5  c #466B47",
"6  c #41664C",
"7  c #456B4A",
"8  c #496F4A",
"9  c #546A4B",
"0  c #4D7445",
"q  c #4C7349",
"w  c #527A43",
"e  c #686E4C",
"r  c #617A45",
"t  c #78744B",
"y  c #666354",
"u  c #674565",
"i  c #8A6358",
"p  c #95685A",
"a  c #867A56",
"s  c #A45468",
"d  c #AD5669",
"f  c #AF5A6E",
"g  c #B45769",
"h  c #B25B6E",
"j  c #B45D71",
"k  c #9D7067",
"l  c #9F7269",
"z  c #A06164",
"x  c #A5756A",
"c  c #AE746F",
"v  c #B86C7A",
"b  c #C35B6A",
"n  c #CD5E6B",
"m  c #D86775",
"M  c #D96875",
"N  c #DC6A78",
"B  c #E16E7D",
"V  c #E4707F",
"C  c #5B843D",
"Z  c #5F893C",
"A  c #6E9C2F",
"S  c #709E2E",
"D  c #638E37",
"F  c #628D3B",
"G  c #659135",
"H  c #699634",
"J  c #6D9A32",
"K  c #669238",
"L  c #689438",
"P  c #719E33",
"I  c #7EAE26",
"U  c #75A32C",
"Y  c #79A72D",
"T  c #7BAB2A",
"R  c #75A332",
"E  c #598240",
"W  c #7E8E42",
"Q  c #8BBD1F",
"!  c #849B39",
"~  c #82B324",
"^  c #87B923",
"/  c #8ABC22",
"(  c #82B229",
")  c #8EC11E",
"_  c #9ACF17",
"`  c #92C51C",
"'  c #95CA1A",
"]  c #99CE18",
"[  c #9CD017",
"{  c #B9DE0F",
"}  c #A4D415",
"|  c #AAD713",
" . c #AED912",
".. c #B3DB11",
"X. c #B8DD10",
"o. c #BEE00E",
"O. c #8EC121",
"+. c #91C320",
"@. c #C5E30C",
"#. c #CAE60B",
"$. c #808F41",
"%. c #84854C",
"&. c #849340",
"*. c #C56B81",
"=. c #CA6E83",
"-. c #D26F83",
";. c #D47083",
":. c #DB7284",
">. c #E57687",
",. c #EB7686",
"<. c #EF7989",
"1. c None",
/* pixels */
"1.1.1.1.1.1.1.1.1.1.1.1.1.1.1.1.1.1.1.1.1.1.1.1.1.1.1.1.1.1.1.1.1.1.1.1.1.1.1.1.1.1.1.1.1.1.1.1.1.1.1.1.1.1.1.1.1.1.1.1.1.1.1.1.",
"1.1.1.1.1.1.1.1.1.1.1.1.1.1.1.1.1.1.1.1.1.1.1.O o o o o o o o o o o o o o o o o o o 1.1.1.1.1.1.1.1.1.1.1.1.1.1.1.1.1.1.1.1.1.1.",
"1.1.1.1.1.1.1.1.1.1.1.1.1.1.1.1.1.1.1.1.o o o + : q E F Z F C C K C Z F F Z w , & o o o 1.1.1.1.1.1.1.1.1.1.1.1.1.1.1.1.1.1.1.1.",
"1.1.1.1.1.1.1.1.1.1.1.1.1.1.1.1.1.1.o o + : L ' [ ] [ ] [ ] ] _ _ _ ] ] _ _ [ [ ] I q % o o 1.1.1.1.1.1.1.1.1.1.1.1.1.1.1.1.1.1.",
"1.1.1.1.1.1.1.1.1.1.1.1.1.1.1.1.1.o . 7 I ` _ _ _ _ _ _ _ _ _ _ _ _ _ _ _ _ _ _ _ _ ] ^ G - o o 1.1.1.1.1.1.1.1.1.1.1.1.1.1.1.1.",
"1.1.1.1.1.1.1.1.1.1.1.1.1.1.1.1.o % F ' _ _ _ _ _ _ _ _ _ _ _ _ _ _ _ _ _ _ _ _ _ _ _ _ [ I # . o 1.1.1.1.1.1.1.1.1.1.1.1.1.1.1.",
"1.1.1.1.1.1.1.1.1.1.1.1.1.1.o o - ) _ _ _ _ _ _ _ _ _ _ _ _ _ _ _ _ _ _ _ _ _ _ _ _ _ _ ] _ _ Z + o 1.1.1.1.1.1.1.1.1.1.1.1.1.1.",
"1.1.1.1.1.1.1.1.1.1.1.1.1.1.o % I _ _ _ _ _ _ _ [ ] _ _ _ _ _ _ _ _ _ _ _ _ _ _ _ _ _ _ _ _ _ ' w o o 1.1.1.1.1.1.1.1.1.1.1.1.1.",
"1.1.1.1.1.1.1.1.1.1.1.1.1.o X Y _ _ _ _ _ _ _ _ _ _ _ _ _ _ _ _ _ _ _ _ _ _ _ _ _ _ ] ] _ _ _ _ ' > o o 1.1.1.1.1.1.1.1.1.1.1.1.",
"1.1.1.1.1.1.1.1.1.1.1.1.o o F ] _ _ I G A ) _ _ _ _ _ _ _ _ _ _ _ _ _ _ _ _ _ _ _ ' D   H ` _ _ ] / & o 1.1.1.1.1.1.1.1.1.1.1.1.",
"1.1.1.1.1.1.1.1.1.1.1.1.o : ] ] _ D o o . % Q _ _ _ _ _ _ _ _ _ _ _ _ _ _ _ _ _ ' - o o o @ _ _ ] ] R o o 1.1.1.1.1.1.1.1.1.1.1.",
"1.1.1.1.1.1.1.1.1.1.1.o X H [ [ _ - o o o o G _ _ _ _ _ _ _ _ _ _ _ _ _ _ _ _ _ I o o o o o Q _ ] [ _ ; o 1.1.1.1.1.1.1.1.1.1.1.",
"1.1.1.1.1.1.1.1.1.1.1.o 6 ' [ ] _ $ . o o . C _ _ _ _ _ _ _ _ _ _ _ _ _ _ _ _ _ U . o o o o I _ ] ] [ L o o 1.1.1.1.1.1.1.1.1.1.",
"1.1.1.1.1.1.1.1.1.1.o o J ] [ ] _   o o o X ~ _ _ _ _ _ _ _ _ _ _ _ _ _ _ _ _ _ ' ; o . . # _ _ [ [ [ ` + o 1.1.1.1.1.1.1.1.1.1.",
"1.1.1.1.1.1.1.1.1.1.o % / [ ] ] _ '   * @ A _ _ _ _ _ _ _ _ _ _ _ _ _ _ _ _ _ _ _ ` C # Z ` _ _ _ _ _ _ q o 1.1.1.1.1.1.1.1.1.1.",
"1.1.1.1.1.1.1.1.1.1.o : ' ] ] [ _ _ _ ` ` _ _ _ _ _ _ _ _ _ _ _ _ _ _ _ _ _ _ _ _ _ _ _ _ _ _ _ _ _ _ _ R O o 1.1.1.1.1.1.1.1.1.",
"1.1.1.1.1.1.1.1.1.1.o E ] ] _ _ _ _ _ _ _ _ _ [ _ _ _ ] _ _ ' _ _ _ [ [ _ _ _ _ _ _ _ _ _ _ _ _ _ _ _ _ / % o 1.1.1.1.1.1.1.1.1.",
"1.1.1.1.1.1.1.1.1.o o R [ ] _ _ _ _ _ _ _ _ _ ] _ ' Q Q Q Q Q Q Q Q Q Q Q Q ) ` ' _ _ _ _ _ _ _ _ _ _ _ ` - o 1.1.1.1.1.1.1.1.1.",
"1.1.1.1.1.1.1.1.1.o o O.] [ ] _ _ _ _ _ _ ] ] I S A U Y U U I U S U U U U S S S A S ~ _ _ _ _ _ _ _ _ _ ] > o 1.1.1.1.1.1.1.1.1.",
"1.1.1.1.1.1.1.1.1.o + _ [ [ [ _ _ _ _ _ _ ] H ~ ` _ [ _ ' _ _ _ _ _ _ _ _ [ _ _ _ ` U ~ _ _ _ _ _ _ _ _ ] q o 1.1.1.1.1.1.1.1.1.",
"1.1.1.1.1.1.1.1.1.o & _ _ _ _ [ _ _ _ _ _ A ' _ _ _ _ _ _ _ _ _ _ _ _ _ _ _ _ _ _ _ _ S Q _ _ _ _ _ _ _ _ C o 1.1.1.1.1.1.1.1.1.",
"1.1.1.1.1.1.1.1.1.o $ _ _ ] } ..{  .[ _ ] H _ _ _ _ _ _ _ _ _ _ _ _ _ _ _ _ _ _ _ _ _ U Q _ _ ......} [ ] L o 1.1.1.1.1.1.1.1.1.",
"1.1.1.1.1.1.1.1.1.o ; _ _  .#.#.#.#.@.| _ ` A Q ~ I I ~ I I ~ I ~ I Q Q Q Q _ [ [ [ _ G _ } #.#.#.#.#...] J o 1.1.1.1.1.1.1.1.1.",
"1.1.1.1.1.1.1.1.1.o ; [  .#.#.#.#.#.#.@.} _ Q $ u s d d d h j j j d s z p i t e 9   G ` } @.#.#.#.#.#.#...P o 1.1.1.1.1.1.1.1.1.",
"1.1.1.1.1.1.1.1.1.o ; ] @.#.#.#.#.#.#.#.{ _ _ 3 b n M B >.,.<.<.<.<.<.,.:.M n n g = ' _ ..#.#.#.#.#.#.#.@.J o 1.1.1.1.1.1.1.1.1.",
"1.1.1.1.1.1.1.1.1.o > [ #.#.#.#.#.#.#.#.o._ _ 4 m V <.<.<.<.<.<.<.<.<.<.<.<.,.B n 2 _ _ @.#.#.#.#.#.#.#.#.R o 1.1.1.1.1.1.1.1.1.",
"1.1.1.1.1.1.1.1.1.o 0 _ @.#.#.#.#.#.#.#.{ _ S 9 k c m ;.>.<.<.,.<.<.<.<.<.<.,.,.M 2 _ _ { #.#.#.#.#.#.#.#.+.O o 1.1.1.1.1.1.1.1.",
"1.1.1.1.1.1.1.1.1.% H _ o.#.#.#.#.#.#.#...S Q ' ) ^ I ! %.a l x v *.*.=.-.:.:.,.:.y [ _ ..#.#.#.#.#.#.#.@.[ ; o 1.1.1.1.1.1.1.1.",
"1.1.1.1.1.1.1.1.o > ` [ } @.#.#.#.#.#.@.Q U _ _ ] [ _ _ _ _ ) Q ~ ~ ( ( &.$.$.$.L r P _ [ o.#.#.#.#.#.#.} _ Z o 1.1.1.1.1.1.1.1.",
"1.1.1.1.1.1.1.1.o F [ [ [ } o.#.#.#.{ _ ~ ~ _ _ ] [ _ _ _ _ _ _ _ _ ' _ _ _ _ [ _ _ ` S ] ] o.#.#.#.@.} _ _ / O o 1.1.1.1.1.1.1.",
"1.1.1.1.1.1.1.o % ~ ] ] _ _ _ _ _ _ _ _ Q A _ _ ] ] ] _ _ _ _ _ _ _ _ _ _ _ _ _ _ _ ] A ' ] [ ] [ [ ] ] _ _ ] q o 1.1.1.1.1.1.1.",
"1.1.1.1.1.1.o o 7 _ ] [ _ _ _ _ _ _ _ _ [ Q I Q [ ] [ ] _ _ _ _ _ _ _ _ _ _ _ _ _ [ ) A _ ] ] [ ] ] ] ] _ _ _ T % o o 1.1.1.1.1.",
"1.1.1.1.o O . o Y _ _ _ _ _ _ _ _ _ _ _ _ _ Q U A A U T I I Q Q Q ' ' _ _ _ _ _ Q Q A _ _ _ _ _ _ _ _ _ _ _ _ Q @ o O o 1.1.1.1.",
"1.1.1.o O C & - ] _ _ _ _ _ _ _ _ _ _ _ _ _ _ _ ' ) Q Q I T U U A A J H A A A H S ~ ' _ _ _ _ _ _ _ _ _ _ _ _ _ D o 7 X o 1.1.1.",
"1.1.o O H ~ X 5 ] [ _ _ _ _ _ _ _ _ _ _ _ _ _ _ _ _ _ _ [ [ _ _ _ _ _ ] _ Q ' _ _ _ _ _ _ _ _ _ _ _ _ _ _ _ _ _ / o 5 Y & o 1.1.",
"1.1.O < ' I X Z _ _ _ _ _ _ _ _ _ _ _ _ _ _ _ _ _ _ _ _ _ [ _ _ _ _ _ _ _ _ _ _ _ _ _ _ _ _ _ _ _ _ _ _ _ _ _ _ _ & @ ' C O 1.1.",
"1.o % J _ A % Y _ _ _ _ _ _ _ _ _ _ _ _ _ _ _ _ _ _ _ _ _ [ ] _ _ _ _ _ _ _ _ _ _ _ _ _ _ _ _ _ _ _ _ _ _ _ _ _ _ , ; / ^ X o 1.",
"1.o - / _ C - ^ _ _ _ _ _ _ _ _ _ _ _ _ _ _ _ _ _ _ _ _ _ _ _ _ _ _ _ _ _ _ _ _ _ _ _ _ _ _ _ _ _ _ _ _ _ _ _ _ _ 0 & ~ ` - o 1.",
"1.o ; +.] , @ ' _ _ _ _ _ _ _ _ _ _ _ _ _ _ _ _ _ _ _ _ _ _ _ _ _ _ _ _ _ _ _ _ _ _ _ _ _ _ _ _ _ _ _ _ _ _ _ _ _ C % U ' ; o 1.",
"1.o & ^ ] - , ] _ _ _ _ _ _ _ _ _ _ _ _ _ _ _ _ _ _ _ _ _ _ _ _ _ _ _ _ _ _ _ _ _ _ _ _ _ _ _ _ _ _ _ _ _ _ _ _ _ G X H +.- o 1.",
"1.o + L ] % 7 [ _ _ _ _ _ _ _ _ _ _ _ _ _ _ _ _ _ _ _ _ _ _ _ _ _ _ _ _ _ _ _ _ _ _ _ _ _ _ _ _ _ _ _ _ _ _ _ _ _ P X G ~ . o 1.",
"1.1.o < +.+ 7 ] _ _ _ _ _ _ _ _ _ _ _ _ _ _ _ _ _ _ _ _ _ _ _ _ _ _ _ _ _ _ _ _ _ _ _ _ _ _ _ _ _ _ _ _ _ _ _ _ _ P X D E o 1.1.",
"1.1.o o > % , ] _ _ _ _ [ _ _ _ _ _ _ _ _ _ _ _ _ _ _ _ _ _ _ _ _ _ _ _ _ _ _ _ _ _ _ _ _ _ _ _ _ _ _ _ _ _ _ _ _ L X ; . o 1.1.",
"1.1.1.o o o : ` _ _ _ _ _ _ _ _ _ _ _ _ _ _ _ _ _ _ _ _ _ _ _ _ _ _ _ _ _ _ _ _ _ _ _ _ _ _ _ _ ] _ _ _ _ _ _ _ _ w . o o 1.1.1.",
"1.1.1.1.1.o & T _ _ _ _ _ _ _ _ _ _ _ _ _ _ _ _ _ _ _ _ _ _ _ _ _ _ _ _ _ _ _ _ _ _ _ _ _ _ _ _ ] ] [ [ _ _ _ _ _ 7 o 1.1.1.1.1.",
"1.1.1.1.1.1.+ Z _ _ _ _ _ _ _ _ _ _ _ _ _ _ _ _ _ _ _ _ _ _ _ _ _ _ _ _ _ _ _ _ _ _ _ _ _ _ _ _ ] [ _ [ _ _ _ _ _ % o 1.1.1.1.1.",
"1.1.1.1.1.1.o : _ _ _ _ _ _ _ _ _ _ _ _ _ _ _ _ _ _ _ _ _ _ _ _ _ _ _ _ _ _ _ _ _ _ _ _ _ _ _ _ _ _ _ _ _ _ _ _ R o o 1.1.1.1.1.",
"1.1.1.1.1.1.o o I _ _ _ _ _ _ _ _ _ _ _ _ _ _ _ _ _ _ _ _ _ _ _ _ _ _ _ _ _ _ _ _ _ _ _ _ _ _ _ _ _ _ _ _ _ _ ' : o 1.1.1.1.1.1.",
"1.1.1.1.1.1.1.o < +.[ [ ] ] ] [ _ _ _ _ _ _ _ _ _ _ _ _ _ _ _ _ _ _ _ _ [ ] ] ] _ _ _ _ ] ] _ _ _ _ _ _ ] ] [ H + o 1.1.1.1.1.1.",
"1.1.1.1.1.1.1.o + J ] ] [ [ ] ] _ _ _ _ _ _ _ _ _ _ _ _ ] [ _ _ _ _ _ _ ] ] [ [ _ _ _ _ [ _ _ _ _ _ _ _ [ ] +.& o 1.1.1.1.1.1.1.",
"1.1.1.1.1.1.1.1.o % L ] _ _ [ ] _ _ _ _ _ _ _ _ _ _ _ _ ] ] [ ] _ _ _ _ _ _ ] ] _ _ _ _ [ _ _ _ _ _ _ _ ] +.; o 1.1.1.1.1.1.1.1.",
"1.1.1.1.1.1.1.1.1.o % L ' ] [ ] _ _ _ _ _ _ _ _ _ _ _ _ [ ] ] [ _ _ _ _ _ _ [ [ _ _ _ _ _ _ _ _ _ _ _ ] I 6 O o 1.1.1.1.1.1.1.1.",
"1.1.1.1.1.1.1.1.1.1.o O , T ] ] _ _ _ _ _ _ _ _ _ _ [ ] [ ] [ ] _ _ _ _ ] ] [ [ _ _ _ _ [ ] [ _ _ _ _ E % o o 1.1.1.1.1.1.1.1.1.",
"1.1.1.1.1.1.1.1.1.1.1.o . . # Z / _ _ _ _ _ _ _ _ _ ] ] [ [ [ [ _ _ _ _ ] ] [ ] _ _ _ _ ] ] [ _ R q % o o 1.1.1.1.1.1.1.1.1.1.1.",
"1.1.1.1.1.1.1.1.1.1.1.1.1.o o o O q Y O._ _ _ _ _ _ _ [ [ ] [ ] [ ] _ _ ] ] [ ] ] ] _ _ ] ~ F % o o o o 1.1.1.1.1.1.1.1.1.1.1.1.",
"1.1.1.1.1.1.1.1.1.1.1.1.1.1.1.o o o + & 7 E F L P R T ( O.+.] [ ) [ [ ) ^ ( Y R L K E w : % o o o o 1.1.1.1.1.1.1.1.1.1.1.1.1.1.",
"1.1.1.1.1.1.1.1.1.1.1.1.1.1.1.1.1.o o o o o o o o . o o o + % ; - & . o o o o o o o o o O & + o 1.1.1.1.1.1.1.1.1.1.1.1.1.1.1.1.",
"1.1.1.1.1.1.1.1.1.1.1.1.1.1.1.1.1.1.1.o E ~ T U H Z C C w $ o o o o o >   C Z G A T I Q ] ^ % o 1.1.1.1.1.1.1.1.1.1.1.1.1.1.1.1.",
"1.1.1.1.1.1.1.1.1.1.1.1.1.1.1.1.1.1.1.o E _ _ _ _ _ ] [ ] w o 1.1.1.o F ] _ [ [ _ _ [ [ _ P . 1.1.1.1.1.1.1.1.1.1.1.1.1.1.1.1.1.",
"1.1.1.1.1.1.1.1.1.1.1.1.1.1.1.1.1.1.1.o ; _ _ _ _ _ [ [ ] Z o 1.1.1.o : ^ [ ] ] [ [ ] ] / : o 1.1.1.1.1.1.1.1.1.1.1.1.1.1.1.1.1.",
"1.1.1.1.1.1.1.1.1.1.1.1.1.1.1.1.1.1.1.o O Z _ _ _ ] ] _ ] < o 1.1.1.o o , ) [ [ _ _ _ +.: + 1.1.1.1.1.1.1.1.1.1.1.1.1.1.1.1.1.1.",
"1.1.1.1.1.1.1.1.1.1.1.1.1.1.1.1.1.1.1.1.o + 7 Y ~ I Y Z ; o o 1.1.1.1.o . . 0 K R K q + o 1.1.1.1.1.1.1.1.1.1.1.1.1.1.1.1.1.1.1.",
"1.1.1.1.1.1.1.1.1.1.1.1.1.1.1.1.1.1.1.1.1.o o o o o . o o 1.1.1.1.1.1.1.o o o o o o o o 1.1.1.1.1.1.1.1.1.1.1.1.1.1.1.1.1.1.1.1.",
"1.1.1.1.1.1.1.1.1.1.1.1.1.1.1.1.1.1.1.1.1.1.1.1.1.1.1.1.1.1.1.1.1.1.1.1.1.1.1.1.1.1.1.1.1.1.1.1.1.1.1.1.1.1.1.1.1.1.1.1.1.1.1.1."
};
