/* XPM */
static char *result[] = {
/* columns rows colors chars-per-pixel */
"64 64 211 2 ",
"   c #3D5C69",
".  c #1C757D",
"X  c #1E7C7F",
"o  c #3C6878",
"O  c #2A7A7C",
"+  c #3B7D7E",
"@  c #33757A",
"#  c #256B76",
"$  c #7E505B",
"%  c #6C525E",
"&  c #485C6D",
"*  c #575C6A",
"=  c #4D5C70",
"-  c #794B69",
";  c #675468",
":  c #79546C",
">  c #7C4E75",
",  c #675C7B",
"<  c #745578",
"1  c #674D69",
"2  c #53686F",
"3  c #486573",
"4  c #5C647D",
"5  c #576579",
"6  c #487678",
"7  c #42797D",
"8  c #53787B",
"9  c #67656D",
"0  c #676A75",
"q  c #756776",
"w  c #6B7377",
"e  c #7A7373",
"r  c #757774",
"t  c #BA3D71",
"y  c #A13B69",
"u  c #8C545D",
"i  c #96585C",
"p  c #A45E5E",
"a  c #B65A58",
"s  c #994965",
"d  c #875A65",
"f  c #985268",
"g  c #8B5E75",
"h  c #865576",
"j  c #9C5473",
"k  c #9A5A72",
"l  c #81446A",
"z  c #A8486A",
"x  c #BE426E",
"c  c #B64D69",
"v  c #AA5767",
"b  c #B75967",
"n  c #A84B72",
"m  c #A35572",
"M  c #846C6C",
"N  c #9A6568",
"B  c #9A6867",
"V  c #996672",
"C  c #887773",
"Z  c #8D6F70",
"A  c #A66566",
"S  c #B76969",
"D  c #A9766C",
"F  c #B4746A",
"G  c #BB7469",
"H  c #B07A6B",
"J  c #BB7266",
"K  c #C55D5C",
"L  c #CA665D",
"P  c #D4665E",
"I  c #D5695D",
"U  c #DC6C5E",
"Y  c #E3705F",
"T  c #C64A6D",
"R  c #C4486D",
"E  c #C95767",
"W  c #D65E67",
"Q  c #D95C67",
"!  c #D25569",
"~  c #D25969",
"^  c #C56C65",
"/  c #CD6D66",
"(  c #C86868",
")  c #D66764",
"_  c #DB6465",
"`  c #D26D64",
"'  c #DD6B63",
"]  c #C57467",
"[  c #CA7265",
"{  c #C07269",
"}  c #DB7364",
"|  c #D57364",
" . c #E36D63",
".. c #E66B63",
"X. c #E67162",
"o. c #E97461",
"O. c #EC7966",
"+. c #ED7C6A",
"@. c #56817C",
"#. c #4F837C",
"$. c #738277",
"%. c #6C817B",
"&. c #F0816F",
"*. c #F28472",
"=. c #F48977",
"-. c #F68C7C",
";. c #F88F7F",
":. c #1E7382",
">. c #277B84",
",. c #3B7485",
"<. c #337A84",
"1. c #377986",
"2. c #4E6982",
"3. c #4C6780",
"4. c #536782",
"5. c #467D81",
"6. c #447582",
"7. c #1C8483",
"8. c #1B8D86",
"9. c #1C8D8C",
"0. c #16898A",
"q. c #0A948E",
"w. c #0E9B8D",
"e. c #06978E",
"r. c #13938C",
"t. c #1A958B",
"y. c #119A8E",
"u. c #019D91",
"i. c #0C9D92",
"p. c #139991",
"a. c #189690",
"s. c #0E8D87",
"d. c #2B8C8B",
"f. c #278587",
"g. c #368381",
"h. c #3A8682",
"j. c #368983",
"k. c #3B8B83",
"l. c #26968A",
"z. c #39998C",
"x. c #13A38F",
"c. c #03A293",
"v. c #0BA492",
"b. c #03AC95",
"n. c #0BAB94",
"m. c #14A492",
"M. c #14AC96",
"N. c #1EA996",
"B. c #03B297",
"V. c #0EB297",
"C. c #05B498",
"Z. c #0CB598",
"A. c #05BA99",
"S. c #0DBD9A",
"D. c #1CB696",
"F. c #13B499",
"G. c #1BB499",
"H. c #14BB9B",
"J. c #1CBC9B",
"K. c #14B295",
"L. c #24A992",
"P. c #23B399",
"I. c #28BA9C",
"U. c #35BB9C",
"Y. c #448684",
"T. c #0DC39C",
"R. c #0EC99E",
"E. c #14C39D",
"W. c #1AC39D",
"Q. c #14CB9E",
"!. c #19CA9F",
"~. c #23C59E",
"^. c #22C99F",
"/. c #2AC39E",
"(. c #31C89F",
"). c #1CD0A0",
"_. c #23CDA0",
"`. c #2BCDA1",
"'. c #34C6A0",
"]. c #31CEA2",
"[. c #3BC4A0",
"{. c #23D4A2",
"}. c #2BD5A3",
"|. c #2ED9A4",
" X c #33D3A3",
".X c #3CD6A4",
"XX c #34DBA5",
"oX c #3BDCA6",
"OX c #3EE1A7",
"+X c #49D3A5",
"@X c #42DCA7",
"#X c #4ADDA7",
"$X c #47DBA7",
"%X c #53DAA7",
"&X c #44E3A8",
"*X c #4BE5AA",
"=X c #4DE9AB",
"-X c #42E0A7",
";X c #54E5AA",
":X c #5BE4AB",
">X c #54EBAC",
",X c #5BEDAD",
"<X c #5EF0AE",
"1X c #63EDAE",
"2X c #61E7AC",
"3X c #63F2AF",
"4X c #67F4B0",
"5X c #6DF7B1",
"6X c #6EF8B1",
"7X c #70F9B2",
"8X c #FA9484",
/* pixels */
"5X5X5X4X,X,X<X3X3X>X|.E.v.7.o ; p Q Y o.o.X.Q Q  .o.o.o.o.o.o.o.o.o.o.o.o.o.o.o.o.o.o.o.X.o.o.o.o.| A w l.B.T.}.&X&X|.XX,X7X7X5X",
"5X5X7X4X,X>X>X>X>X@X!.M.8.@ & - a P Y Y o.X._ _  .o.o.o.X.o.o.o.o.o.o.X.o.o.o.o.o.o.o.o.o.o.o.o.o.` V w a.B.E.}.=X>XoX&X<X7X5X5X",
"5X6X5X4X,X=X-XXX`.I.n.0.o 1 l z K _ Y o.o.o.X...X.o.o.o.o.o.o.o.o.o.o.o.o.o.o.o.o.o.o.o.o.o.o.o.o.` m 4.a.C.E.|.>X4X<X<X4X5X5X5X",
"5X5X6X4X<X>X&X X^.F.c.7.& - y x P Y Y o.o.o.o.o.o.o.o.o.o.o.o.o.o.o.o.o.o.o.o.o.o.o.o.o.o.o.o.o.o.' n 4.f.c.Z._.=X4X7X7X7X5X5X5X",
"5X5X5X5X4X3X>X-X XJ.b.0.& - y T I U Y o.o.o.o.o.o.o.o.o.o.o.X.o.o.o.o.o.o.o.o.o.o.o.o.o.o.o.o.o.o. .x > ,.0.q.F. X>X4X5X7X7X5X5X",
"5X6X5X6X5X5X1X>X*X}.H.m.+ 5 j b I &.o.o.o.o.o.o.o.o.o.o.o.X.o.o.o.o.o.o.o.o.o.o.o.o.o.o.o.o.o... .~ x 4.,.0.q.M. X>X4X5X4X7X5X5X",
"5X6X5X5X5X5X4X4X1X*X}.H.m.f.2.Z a Y o.o.o.o.o.o.o.o.o.o.o.o.o.o.o.o.o.o.O.Y } Y o.o.o.o.o.o.o...Q c h 4.9.b.Z._.*X5X5X5X5X7X5X5X",
"5X5X5X5X5X5X6X6X7X<XOXQ.B.i.g.r &.o.o.o.o.o.Y o.o.o.o.o.o.o.o.o.o.o.o.Y O.Y O.Y o.o.o.o.o.o.o...! m 4.f.M.E.{.oX<X5X5X5X5X5X5X5X",
"5X5X5X5X6X6X6X7X6X<XXX!.C.w.g.r &.I Y Y &.Y o.o.o.o.o.o.o.o.o.o.o.O.o.o.o.o.o.o.o.o.o.o.o.o.o...! k ,.p.W.|.&X>X4X7X5X5X5X7X5X5X",
"5X6X5X5X6X6X4X4X4X,XXXQ.C.w.<.e J Y &.U Y Y o.o.o.o.o.o.o.o.o.o.o.Y o.o.o.X. .X.X.o.o.o.o.o.o...Q k 1.v.W.XX>X4X5X5X5X5X5X5X5X5X",
"5X5X6X5X6X3X3X,X4X>X|.E.B.w.g.r &.U o.o.o.o.o.o.o.o.o.o.o.Y o.o.o.o.o.o.o.X._ _ X.o.o.o.o.o.o.o...F Y.l.V.!.oX,X3X5X5X5X5X7X5X5X",
"5X6X6X6X6X3X>X>X>X*X{.T.b.r.+ e [ o.o.Y o.o.o.o.o.o.o.o.o.o.o.o.Y o.o.o.o. ._ _  .o.o.o.o.o.o.o.o.[ r k.m.H. X*X3X5X7X5X5X5X5X5X",
"5X6X5X5X6X3X*X&XOX|.Q.A.c.8.6 M &.U Y Y o.o.o.o.o.o.o.o.o.o.o.o.o.o.o.o.o.o.X. .o.o.o.o.o.X.o.o.o.} D r d.M.I.+X1X7X5X5X5X5X5X5X",
"5X5X5X5X7X1X#X X^.W.A.b.8.+ 9 B I o.&.Y o.o.Y o.o.o.o.o.Y o.o.o.o.o.o.O.o.Y ..X.X.X.X. .o.o.o.o.o. .( Z 6.9.L.'.;X4X5X5X5X5X5X5X",
"5X5X5X6X6X2X+XU.D.b.b.r.3 ; f b U o.o.o.o.o.o.o.o.o.o.o.o.o.o.o.o.o.o.Y .._ _ ' ' '  . .X.o.o.o.O. .! j 4.>.q.G. X>X3X7X5X5X7X5X",
"5X6X5X6X6X1X%X(.D.V.b.t.3 - v K U o.o.o.o.o.o.o.o.o.o.o.o.o.o.o.o.o.o.Y Q Q _  . ._ _  .X.O.o.o.X. .c h 2.>.a.G. X*X<X5X5X5X5X5X",
"5X6X5X5X5X5X2X:X&X XQ.x.+ 9 a I Y Y o.Y o.o.o.o.Y Y o.o.o.o.o.o.o.o.o.X.X.X. .X.X...o.o.o.o.o.o.O./ g 4.d.M./..X*X>X>X<X4X6X6X6X",
"5X5X6X5X5X6X6X6X3X=X{.K.g.9 p L Y &.o.o.&.o.o.&.&.&.o.o.o.o.o.o.o.o.o.o.o.o.Y o.o.o.o.o.o.o.o.o.o./ q 1.i.S.XX=X>X,X<X<X4X7X5X5X",
"5X6X5X5X5X5X6X6X5X>XXXD.X 2 u a U Y o.o.&.&.&.*.=.&.&.&.o.o.o.o.o.o.o.o.o.o.o.o.o.o.o.o.o.o.o.Y O./ q ,.i.H.XX>X3X4X4X4X4X5X5X5X",
"5X5X5X5X5X5X1X4X5X>XXXD.X & $ a I Y &.o.&.=.-.-.=.=.&.&.&.Y o.o.o.o.o.o.o.o.o.o.o.o.o.o.o.o.o.o...( 4.1.m.!.oX,X4X6X6X6X6X5X6X5X",
"5X5X5X6X6X3X;X*X,X=X{.K.X   $ a U &.&.&.=.;.;.;.8X;.;.=.o.Y o.o.o.o.o.o.o.o.o.o.o.o.o.o.o.o.X.....b 4.d.I..X*X3X6X6X6X5X6X5X6X5X",
"5X6X5X6X6X3X>X&X-X|.E.x.@ * i K U o.Y &.=.;.8X8X;.;.;.;.&.o.o.o.o.o.o.o.o.o.o.o.o.o.o.o.o.o.o..._ m 6.a.I.@X>X3X5X5X6X5X5X5X5X5X",
"5X6X5X5X5X5X4X*X^.V.c.8.2 d L U o.Y Y &.;.8X8X8X;.;.-.&.Y o.o.o.o.o.X.o.o.o.o.o.o.o.o.o.o.o.o...! k 1.v.~.OX,X4X5X5X7X5X5X5X5X5X",
"5X5X5X5X5X6X7X>X^.B.c.8.8 M J } Y Y &.&.-.;.;.;.;.;.=.&.&.o.o.o.o.o.o.o.o.o.o.o.o.o.o.X.o.o.o...! j ,.p.J. X=X4X3X3X4X4X5X5X5X6X",
"5X5X5X5X5X6X6X,X X!.A.v.l.#.C F Y &.Y &.&.&.&.&.&.&.&.&.&.o.o.o.o.o.o.X.o.o.o.o.o.o.o.o.o.o.o...! n 4.1.m.!.oX>X,X,X,X3X4X5X5X5X",
"5X6X6X5X5X6X6X4X=XXXQ.A.v.l.8 Z | Y o.o.o.&.&.&.&.o.o.o.Y o.o.o.X.o.o.o.o.o.o.o.o.o.Y o.o.o.o...! x h 4.9.M.`..X*X>X>X3X4X5X5X5X",
"5X5X5X5X5X5X5X5X3X=X|.Q.n.y.+ e L Y o.o.o.o.Y Y Y o.o.o.o.o.o.o.o.o.o.o.o.o.o.o.o.o.o.o.o.o.o...~ T n 4.,.9.p.G.].*X3X4X6X5X5X6X",
"5X6X5X5X5X5X5X6X6X<XoX!.B.q.O 2 J Y Y o.o.&.Y o.o.o.o.o.o.o.o.o.o.o.o.o.o.o.o.X.o.o.o.o.o.o.o.o._ E n < ,.0.e.M. X>X4X5X5X5X5X5X",
"5X6X5X5X6X5X5X5X7X<XoX!.C.e.. 2 p L Y o.o.o.o.o.o.o.o.o.o.o.o.o.o.o.o.o.o.o.o.o.o.o.o.o.o.o.o.o.X.( h 4.9.c.Z._.*X5X5X6X5X5X6X5X",
"5X5X5X5X5X5X5X5X6X>XXXE.n.s.# * p L Y &.o.o.o.o.o.o.o.o.o.o.o.o.o.o.o.o.o.o.o.o.o.o.o.o.o.o.o.o.O.G 0 f.M.E.{.oX,X6X6X5X5X5X5X5X",
"5X5X5X6X5X5X5X5X4X=X{.S.w.O   % p I Y Y o.o.o.o.o.o.o.o.o.o.o.o.o.o.o.o.o.o.o.o.o.o.o.o.o.o.o.o.O.F Y.p.J.|.&X>X5X5X6X5X5X5X5X5X",
"5X6X5X5X6X6X6X1X#X`.E.m.>.3 1 u a U Y Y o.o.o.o.o.o.o.o.o.o.o.o.o.o.o.o.o.Y o.o.o.o.o.o.o.o.o.o.o.H h.u.^.OX,X5X4X5X5X5X6X5X5X6X",
"5X5X5X5X5X6X6X:XI.v.u.9.5 : s b ` Y o.o.o.o.o.o.o.X.o.o.o.o.o.o.o.o.o.o.o.} Y o.o.o.o.o.o.o.o.o.o.J k.v.^.oX>X4X4X5X5X5X5X5X5X5X",
"5X5X6X5X5X5X6X;XP.e.u.0.5 > f b U o.o.o.o.o.o.o.o.o.o.o.o.o.o.o.o.o.o.o.o.o.o.o.o.o.o.o.o.o.o.o.o.J j.c.E.XX>X4X5X5X5X5X5X7X5X5X",
"6X5X6X5X5X6X7X,X XJ.A.v.9.7 9 N [ o.o.o.o.o.o.o.o.o.o.o.o.o.o.o.o.o.o.o.O.Y o.o.o.o.o.o.o.o.o.o.Y H j.u.A.).OX>X4X5X5X5X5X5X5X5X",
"5X5X5X5X5X6X5X3X=X|.Q.C.c.8.6 M [ o.o.o.o.o.o.o.o.o.o.o.o.o.X.o.o.o.o.o.O.O.Y Y o.o.o.o.o.o.o.o.Y H #.s.B.R.|.*X4X5X7X5X<X4X5X5X",
"5X5X5X5X5X5X6X4X<X&X{.T.b.y.+ e [ O.o.o.o.Y o.o.o.o.o.o.o.o.o.o.o.o.Y Y Y Y o.o.o.o.o.o.o.o.o.o.o.[ w >.n.A.Q.oX<X7X7X4X=X=X3X5X",
"6X5X5X6X5X5X5X5X3X>X|.Q.C.w.g.e ] Y o.o.o.o.o.o.o.o.o.o.o.o.o.o.o.o.o.&.&.&.O.O.&.&.Y &.o.o.o.o.Y [ g 2.9.n.S._.$X:X2X;X=X>X3X5X",
"5X5X5X5X5X5X5X5X6X,XXXQ.B.w.+ r | o.o.o.o.o.o.} o.o.o.o.X.o.o.o.o.&.&.*.-.;.-.-.;.-.&.&.o.o.o.o.o.U b < ,.a.n.F.I.U.'..X;X4X5X5X",
"5X5X6X5X5X5X5X5X5X;X].H.b.w.g.r [ o.o.o.o.o.o.o.o.o.o.o.o.O.X.o.o.o.=.;.;.8X8X;.;.;.=.&.o.o.o.o.o.Y S g 6.a.n.H.P.U.'.$X<X7X5X5X",
"6X5X5X6X5X5X6X4X2X+XP.v.c.p.g.e ] O.o.o.o.o.o.o.o.o.o.o.o.o.o.o.Y O.=.;.;.8X8X8X8X8X8X;.&.o.o.o.O.} S r d.n.W. X%X:X:X1X4X5X5X5X",
"5X5X5X5X5X5X5X4X:X+XP.i.c.y.+ e [ o.o.o.o.o.o.o.o.o.o.o.o.o.o.o.o.&.=.;.;.;.8X8X8X8X;.;.&.o.o.o.o.} F $.l.C._.&X<X7X7X5X5X5X5X5X",
"5X5X5X5X5X5X5X5X5X;X XF.v.8.6 e [ o.o.o.o.o.o.o.o.o.o.o.o.o.X.o.o.O.&.=.=.-.-.-.-.*.=.&.o.o.o.o.o.} F $.L.C._.&X3X7X7X5X5X5X5X5X",
"6X5X5X6X5X5X5X7X6X,XXXJ.t.@ 9 B | Y o.o.o.o.o.o.o.o.o.o.o.o.o.o.o.o.Y &.&.*.=.*.*.&.&.&.o.o.o.o.o.} G r l.b.W.XX,X5X5X5X5X5X5X5X",
"5X5X5X5X5X5X5X5X5X>X}.L.O * d b Y o.o.Y o.o.o.o.o.o.o.o.o.o.o.o.o.o.o.O.O.&.o.O.&.Y o.o.Y &.&.o.O.} G C d.i.V.W.@X4X5X5X7X5X5X5X",
"6X5X5X5X7X5X4X2X;X.XJ.l.2 $ s K Y o.o.o.o.o.o.o.o.o. . .X.o.o.o.o.o.o.Y o.o.o.o.Y Y o.&.o.o.o.&.o.X.^ C h.q.u.F.oX,X4X5X5X5X5X5X",
"5X5X5X5X6X4X>X@X].J.w.>.< z E U Y Y o.o.o.o.o.Y o. ._ _ X.o.o.o.o.o.o.o.o.o.o.o.&.o.o.Y &.&.o.o.+.} ^ C h.q.u.V.oX<X5X5X5X5X5X5X",
"5X5X5X5X3X>X*XoX`.J.i.>.q v (  .Y o.o.o.o.o.o.O.X.' _ _ X.o.o.o.o.o.o.o.o.o.Y o.o.o.o.Y o.o.o.&.o.| D w z.N.G.'.*X<X5X5X5X5X7X5X",
"6X6X6X3X>X*X*X*X*X X^.L.Y.w A ^ | Y Y o.o.o.o.o.o.o.X. .X.o.o.o.o.o.o.o.o.o.O.O.O.o.o.o.o.o.o.o.O.G @.z.U.@X#X>X1X4X5X5X5X5X5X5X",
"5X6X6X3X*X*X>X<X<X>X&X].L.h.r B L U Y o.o.o.o.o.o.o.o.o.o.o.o.o.o.o.o.Y o.o.O.+.o.o.o.o.o.o.o.o.o.H j.c.}.=X4X4X5X7X5X5X5X6X6X5X",
"5X5X5X5X3X4X3X5X4X4X4X@XD.r.@ 9 p U Y o.o.o.o.o.o.o.o.o.o.o.o.o.o.o.o.o.o.O.O.O.o.o.o.o.o.o.o.o.o.H j.c.E.XX=X4X5X5X5X5X5X5X5X5X",
"5X5X5X5X6X5X5X6X7X6X4X*XH.e.. = N I Y o.o.o.o... .' X.o.X.o.o.o.o.o.o.o.o.o.O.O.O.o.o.o.o.o.o.o.o.H j.u.S.).&X<X4X7X5X5X5X6X5X5X",
"5X5X6X5X6X5X5X5X7X4X>XXXS.e.. = v ) Y o.o.X._ W ! ~ _  .X.o.o.o.o.o.o.o.o.o.o.o.o.o.o.o.o.o.o.O.o.F k.c.A.Q.oX>X5X5X5X5X5X5X5X5X",
"5X5X5X5X5X5X4X5X3X>X.X~.x.f.o < S _  .Y X._ ~ T R T ! )  .o.o.o.o.o.o.o.o.Y o.o.o.o.o.o.o.o.o.Y o.G 2.0.v.T.{.@X:X5X5X5X6X5X5X6X",
"6X5X5X5X5X5X,X>X#X XJ.x.O & : s E ' X.X._ ~ R x t x x !  .o.o.o.o.o.o.o.o.o.o.o.o.o.o.o.o.o.o.o.o.` g 4.d.v.V.I.+X2X5X5X5X5X5X5X",
"5X5X6X5X5X5X,X#X XE.B.r.o 1 s c Q  .O.X._ ~ T R x x T ~ ' o.O.o.o.o.o.o.o.o.o.o.o.o.o.o.o.o.o.o.o.' n < <.q.c.V.'.%X1X7X5X5X7X5X",
"5X6X4X6X6X4X<XOXW.A.b.s.o : z E ' X.o.o.X.' Q ~ ! ! W ' X.X.o.o.o.o.o.o.o.o.o.o.o.o.o.o.o.o.o.o.O.) x 4.<.q.c.b.~..X2X6X6X6X4X6X",
"5X6X6X6X6X4X3X*X^.S.A.y.o < n !  .o.o.o.o.X. .' _ '  .X.o.o.o.o.o.o.o.o.o.o.o.o.o.o.o.X.o.o.o.o.o.) g 4.d.M.F.J./..X,X4X6X6X6X6X",
"5X5X6X6X6X6X5X,X&X}.T.v.<., v Q  .o.o.o.o.o.X.X.X.X.X.X.o.o.o.o.o.o.o.o.o.o.o.o.o.o.o.o.o.o.o.o.o.G 5.f.M._. X@X@X*X>X,X4X5X5X5X",
"6X5X6X4X4X5X6X4X=XXXR.n.<.0 b ..X.o.o.o.o.o.o.o.o.o.o.o.o.o.o.o.o.o.o.o.o.o.o.o.o.o.X.o.o.o.X.o.o.F j.c.H.}.=X,X<X,X,X4X4X5X6X5X",
"5X5X3X3X4X4X6X3X&X}.T.x.7 e ^ ..o.o.o.o.o.o.o.o.o.o.o.o.o.o.o.o.o.o.o.o.o.o.o.o.o.o.o.o.o.o.o.o.o.F k.c.!.oX>X3X4X4X4X4X5X5X6X5X",
"5X4X3X<X>X>X,X=X|.W.v.l.0 B U o.o.o.o.o.o.X.o.o.o.o.o.o.o.o.o.o.o.o.o.o.o.o.o.o.o.o.o.o.o...o.o.o.G j.c.E.|.>X3X5X6X7X5X6X5X5X5X",
"5X5X3X,X&XoXOX}.E.x.7.2 d b ' Y o.o.o.o.o.o.o.o.o.o.o.o.o.o.o.o.o.o.o.o.o.o.Y o.o.o.o. ._ _ ..o.o.H j.u.A.).oX>X5X5X5X5X5X5X5X5X",
"5X6X3X>XoX}.{.Q.A.w.O * f E  .o.o.o.X.o.o.o.o.o.o.o.o.o.o.o.o.o.o.o.o.o.o.o.o.o.o.o.o...Q Q o.o.o.H h.u.B.Q.oX>X4X5X5X5X6X5X5X6X"
};
