/* XPM */
static char *result[] = {
/* columns rows colors chars-per-pixel */
"64 64 211 2 ",
"   c #3D5C69",
".  c #1C757D",
"X  c #1E7C7F",
"o  c #3C6878",
"O  c #2A7A7C",
"+  c #3B7D7E",
"@  c #33757A",
"#  c #256B76",
"$  c #7E505B",
"%  c #6C525E",
"&  c #485C6D",
"*  c #575C6A",
"=  c #4D5C70",
"-  c #794B69",
";  c #675468",
":  c #79546C",
">  c #7C4E75",
",  c #675C7B",
"<  c #745578",
"1  c #674D69",
"2  c #53686F",
"3  c #486573",
"4  c #5C647D",
"5  c #576579",
"6  c #487678",
"7  c #42797D",
"8  c #53787B",
"9  c #67656D",
"0  c #676A75",
"q  c #756776",
"w  c #6B7377",
"e  c #7A7373",
"r  c #757774",
"t  c #BA3D71",
"y  c #A13B69",
"u  c #8C545D",
"i  c #96585C",
"p  c #A45E5E",
"a  c #B65A58",
"s  c #994965",
"d  c #875A65",
"f  c #985268",
"g  c #8B5E75",
"h  c #865576",
"j  c #9C5473",
"k  c #9A5A72",
"l  c #81446A",
"z  c #A8486A",
"x  c #BE426E",
"c  c #B64D69",
"v  c #AA5767",
"b  c #B75967",
"n  c #A84B72",
"m  c #A35572",
"M  c #846C6C",
"N  c #9A6568",
"B  c #9A6867",
"V  c #996672",
"C  c #887773",
"Z  c #8D6F70",
"A  c #A66566",
"S  c #B76969",
"D  c #A9766C",
"F  c #B4746A",
"G  c #BB7469",
"H  c #B07A6B",
"J  c #BB7266",
"K  c #C55D5C",
"L  c #CA665D",
"P  c #D4665E",
"I  c #D5695D",
"U  c #DC6C5E",
"Y  c #E3705F",
"T  c #C64A6D",
"R  c #C4486D",
"E  c #C95767",
"W  c #D65E67",
"Q  c #D95C67",
"!  c #D25569",
"~  c #D25969",
"^  c #C56C65",
"/  c #CD6D66",
"(  c #C86868",
")  c #D66764",
"_  c #DB6465",
"`  c #D26D64",
"'  c #DD6B63",
"]  c #C57467",
"[  c #CA7265",
"{  c #C07269",
"}  c #DB7364",
"|  c #D57364",
" . c #E36D63",
".. c #E66B63",
"X. c #E67162",
"o. c #E97461",
"O. c #EC7966",
"+. c #ED7C6A",
"@. c #56817C",
"#. c #4F837C",
"$. c #738277",
"%. c #6C817B",
"&. c #F0816F",
"*. c #F28472",
"=. c #F48977",
"-. c #F68C7C",
";. c #F88F7F",
":. c #1E7382",
">. c #277B84",
",. c #3B7485",
"<. c #337A84",
"1. c #377986",
"2. c #4E6982",
"3. c #4C6780",
"4. c #536782",
"5. c #467D81",
"6. c #447582",
"7. c #1C8483",
"8. c #1B8D86",
"9. c #1C8D8C",
"0. c #16898A",
"q. c #0A948E",
"w. c #0E9B8D",
"e. c #06978E",
"r. c #13938C",
"t. c #1A958B",
"y. c #119A8E",
"u. c #019D91",
"i. c #0C9D92",
"p. c #139991",
"a. c #189690",
"s. c #0E8D87",
"d. c #2B8C8B",
"f. c #278587",
"g. c #368381",
"h. c #3A8682",
"j. c #368983",
"k. c #3B8B83",
"l. c #26968A",
"z. c #39998C",
"x. c #13A38F",
"c. c #03A293",
"v. c #0BA492",
"b. c #03AC95",
"n. c #0BAB94",
"m. c #14A492",
"M. c #14AC96",
"N. c #1EA996",
"B. c #03B297",
"V. c #0EB297",
"C. c #05B498",
"Z. c #0CB598",
"A. c #05BA99",
"S. c #0DBD9A",
"D. c #1CB696",
"F. c #13B499",
"G. c #1BB499",
"H. c #14BB9B",
"J. c #1CBC9B",
"K. c #14B295",
"L. c #24A992",
"P. c #23B399",
"I. c #28BA9C",
"U. c #35BB9C",
"Y. c #448684",
"T. c #0DC39C",
"R. c #0EC99E",
"E. c #14C39D",
"W. c #1AC39D",
"Q. c #14CB9E",
"!. c #19CA9F",
"~. c #23C59E",
"^. c #22C99F",
"/. c #2AC39E",
"(. c #31C89F",
"). c #1CD0A0",
"_. c #23CDA0",
"`. c #2BCDA1",
"'. c #34C6A0",
"]. c #31CEA2",
"[. c #3BC4A0",
"{. c #23D4A2",
"}. c #2BD5A3",
"|. c #2ED9A4",
" X c #33D3A3",
".X c #3CD6A4",
"XX c #34DBA5",
"oX c #3BDCA6",
"OX c #3EE1A7",
"+X c #49D3A5",
"@X c #42DCA7",
"#X c #4ADDA7",
"$X c #47DBA7",
"%X c #53DAA7",
"&X c #44E3A8",
"*X c #4BE5AA",
"=X c #4DE9AB",
"-X c #42E0A7",
";X c #54E5AA",
":X c #5BE4AB",
">X c #54EBAC",
",X c #5BEDAD",
"<X c #5EF0AE",
"1X c #63EDAE",
"2X c #61E7AC",
"3X c #63F2AF",
"4X c #66F4B0",
"5X c #6DF7B1",
"6X c #6EF8B1",
"7X c #70F9B2",
"8X c #FA9484",
/* pixels */
"3X3X<X3X3X6X6X5X5X6X5X5X5X5X6X6X5X5X5X5X5X5X6X5X5X5X7X5X6X5X5X6X5X5X5X5X6X6X5X5X5X5X6X5X5X5X5X5X5X5X5X5X5X5X6X5X5X6X5X5X5X6X6X5X",
">X,X,X3X5X6X6X5X5X5X5X5X5X5X3X3X5X5X5X5X5X5X5X5X5X5X5X5X5X5X5X5X5X5X5X6X5X5X5X6X5X5X5X5X5X6X5X5X5X7X7X5X5X5X5X5X5X5X5X5X4X4X5X4X",
"OX&X,X3X6X6X6X6X5X5X6X5X5X3X>X>X3X7X5X5X7X5X5X5X6X5X5X5X5X5X5X5X5X5X5X5X6X5X5X6X5X5X5X5X5X5X5X5X6X6X5X5X6X5X5X5X5X5X6X4X3X,X,X,X",
"}.oX,X4X4X6X5X4X3X5X5X5X6X3X*X&X,X3X5X5X5X5X5X5X5X5X5X5X5X6X6X5X6X6X5X5X5X6X5X5X5X5X3X3X5X5X6X5X1X2X1X4X4X4X5X5X5X5X5X3X>X*X>X,X",
"{.oX<X5X5X4X<X,X,X3X5X6X6X5X>X*X*X>X3X5X5X5X5X5X5X5X6X5X6X5X5X6X5X5X6X6X5X5X5X6X6X3X>X>X3X6X6X3X%X+X#X=X>X3X4X5X6X4X1X>X&X&X>X1X",
"Q.}.=X3X3X<X*X-X&X>X3X6X6X3X<X*XoX@X,X5X5X5X5X4X5X6X6X3X3X,X;X:X3X5X6X6X6X5X3X1X>X>X&X*X3X6X6X:X(.U. X&X=X<X5X6X7X3X>X&X}.XX>X3X",
"A.E. X&X>X-X_.!.].&X3X6X7X4X<X&X(.}.>X4X5X5X2X2X5X5X4X<X*X XP.I.#X3X5X6X7X3X*XXXW.^.OX<X5X5X3X$XP.K.^.OX>X3X6X7X7X3X#X}.^.(.;X3X",
"w.n.W.}.XX}.T.B.W. X>X4X5X3X>X.XJ.J..X;X,X:X+X+X;X,X>X*X|.W.u.i.`.=X>X<X<X=XXXW.B.Z. X=X>X>X=X XM.n.!.|.&X>X,X<X,X*X XW.F.~.oX>X",
"# 7.n.T.R.T.B.b.n.W..X>X5X3X&X^.i.i.J.`.XX`.P.P.].XX|.{.Q.A.u.u.E.{.XXoXOX}.Q.A.c.c.E.{.|.XX{.Q.b.b.T.Q.{.|.XXoXoX}.E.b.u.n._.}.",
"* 6 f.x.n.v.p.s.s.x.~.oX&X#X(.L.f.O l.N.J.J.v.v.H.Q.E.T.A.v.0.0.m.S.E.!.!.E.T.v.8.8.x.K.D.D.H.x.t.s.b.A.T.E.!.!.!.J.p.0.7.0.M.E.",
"i d 0 7 <.<.,.o o O m.S.E.D.L.#.q : 2 @ t.v.c.c.B.B.B.B.c.f.5 5 O w.n.C.B.B.x.l.6 2 @ X X O j.+ 3 o 8.c.b.B.B.B.B.m.<.3 = o 8.v.",
"W b B q q , < - 1 & f.u.e.s.g.w v z - 2 @ 8.y.w.y.y.w.r.8.+ > h 3 . s.e.w.r.l.#.M i *   & 2 2 9 d ; @ 8.r.w.w.w.w.f.5 - - 1 @ 7.",
"U Y ` ^ b m c z s - o . . @ w A ( E z : 9 6 + g.g.+ g.+ 6 0 f s ;   # . O + @.C J L i u $ u p a z f 9 6 + g.g.g.g.5 h z y l &   ",
"Y o.Y X...Q ~ E c s < 5 = 9 B ] ' ' K a B M e e r r r e M B b a u % * 2 2 e Z H } U a a a a I U K a N M e e e r r Z b T R z - ; ",
"o.o.o.o.X.....' W K b A p A L | o.o.Y U [ [ [ [ [ [ ] ] | I U U a p p A S L [ } Y Y Y U I Y Y Y  .' | [ [ [ ] ] { / ) Q ! E b p ",
"o.o.o.o.o.o.Y X...' U I I I U Y Y o.Y O.Y Y O.O.Y o.o.Y o.O.Y o.I P L I U Y Y O.&.Y Y &.Y Y Y o.o.o.o.o.O.o.o.o.o.o.X. .' ' ) P ",
"o.o.o.o.Y o.O.o.X.X.X.X.X.X.X.o.o.o.o.o.o.o.o.o.o.o.o.o.o.o.o.o.Y Y Y Y Y o.o.o.o.O.O.&.o.o.o.o.o.o.o.o.o.o.o.o.o.o.o.o.X.X.X. .",
"o.o.o.o.o.o.o.o.X. .o.o.o.X.o.o.o.o.X.o.o.o.o.o.o.o.o.o.o.o.o.o.o.o.o.o.o.o.o.o.&.&.&.&.&.O.O.o.o.o.o.o.o.o.o.o.o.o.o.o.o.o.O.Y ",
"o.o.o.o.o.Y o.o._ _ X.o.o.o.o.o.o.o.o.o.o.o.o.o.o.o.o.o.o.o.o.o.o.o.o.o.o.o.o.&.*.-.-.=.&.o.o.o.o.o.o.o.o.o.o.o.o.Y o.o.o.o.Y Y ",
"o.o.o.o.o.Y X...~ ~ _ X.o.o.o.o.o.o.o.o.o.o.o.o.Y o.o.o.o.o.o.o.o.o.o.o.o.o.&.&.;.;.;.;.=.&.o.o.o.o.o.o.o.o.o.o.o.o.o.o.o.o.o.o.",
"o.o.o.o.o.o...Q T T ~ _ X.o.o.o.o.o.o.o.o.o.o.o.o.o.o.o.o.o.o.o.o.o.o.o.o.o.&.&.;.;.8X8X-.&.&.o.o.o.o.o.o.o.o.o.o.o.X.o.o. ._ W ",
"o.o.o.o.o.o. .~ x x T _ } o.o.o.o.o.o.o.o.o.o.o.o.o.o.o.o.o.o.O.o.o.o.o.o.Y &.&.;.;.8X8X;.*.O.Y o.o.o.o.o.o.o.o.o.o.o.o.o. ._ W ",
"o.o.o.o.o.X._ ! x t x !  .o.o.o.o.o.o.o.o.o.o.o.o.o.o.o.o.o.o.Y o.o.o.o.Y &.&.=.8X8X8X8X-.*.O.o.o.o.o.o.X.o.o.o.o.o.o.o.o.o. . .",
"o.o.o.o.o...' ~ x x T ~  .o.o.X. .} X.o.o.o.o.o.o.o.o.Y o.o.o.o.o.o.o.o.Y Y &.=.;.8X8X;.=.&.O.o.o.o.o.o.o.o.o.o.o.o.o.o.o.o.o.O.",
"o.o.X.o.o.X.X._ R x ~ _ X.o.o.X._ _  .o.o.o.o.o.o.o.o.o.o.o.o.o.o.o.o.o.o.o.&.&.=.;.;.-.*.&.O.o.o.o.o.o.O.O.O.Y o.X.o.o.o.o.o.o.",
"o.o.o.o.o.X.X.) ! ! _  .X.o.o.X._ _  .o.o.o.o.o.o.o.o.o.o.o.o.o.o.o.o.o.o.o.o.o.&.*.=.*.&.O.o.o.o.o.o.o.Y Y Y Y o.o.o.o.o.o.o.o.",
"o.o.o.o.o.o.X.X. .'  .X.X.o.o.X. . .X.o.o.o.o.o.o.o.o.o.o.o.o.o.o.o.Y o.o.o.o.&.o.&.&.O.Y o.o.o.Y O.o.o.o.o.Y O.o.o.o.o.o.o.o.o.",
"o.o.o.o.o.o.o.o.o.o.o.o.o.o.o.o.o.o.o.o.o.o.o.o.X.o.o.o.o.o.o.o.o.o.o.o.o.o.o.o.Y o.o.o.o.o.o.o.o.o.o.o.o.o.X.o.o.o.o.o.o.o.o.o.",
"o.o.o.o.o.o.o.o.o.O.o.o.o.o.o.o.o.o.o.o.o.o.o.o.o.o.o.o.o.o.o.Y o.o.o.o.o.o.o.o.Y o.o.o.o.o.o.o.o.o.o.o.o.o.o.o.o.o.o.o.X.o.o.o.",
"o.o.o.o.o.o.o.o.o.o.o.o.o.o.o.o.o.o.o.o.o.o.o.o.o.o.O.Y O.Y o.o.o.o.o.o.o.o.o.o.o.o.o.o.o.o.o.o.o.o.o.o.o.o.o.o.o.o.o.o.o.o.o.o.",
"o.o.o.o.o.o.X.o.o.o.o.o.o.o.o.X.o.o.o.o.o.o.X.Y Y Y O.O.o.o.o.o.o.o.o.o.o.o.o.o.o.o.o.o.o.o.o.o.o.o.o.Y o.o.o.o.o.o.o.o.o.o.o.o.",
"o.o.o.o.o.o.o.o.o.o.o.o.o.o.o.o.o.o.o.o.o.O.+.+.O.O.Y Y o.o.o.o.Y o.o.o.o.o.o.o.o.o.o.o.O.Y o.o.o.o.o.o.X.o.o.o.o.o.o.o.o.o.Y o.",
"o.o.o.o.o.o.o.o.o.o.o.o.o.o.o.o.o.o.Y O.O.&.=.-.=.+.O.o.o.o.o.o.Y Y o.o.o.o.o.o.o.o.o.o.o.o.o.o.o.o.o.o.o.o.o.o.o.o.o.o.o.o.o.o.",
"o.o.o.Y o.o.o.o.o.o.Y o.o.o.o.o.o.o.o.O.O.=.;.8X-.*.+.o.o.o.o.o.o.o.o.o.o.o.o.o.o.o.o.o.o.o.o.o. .X.X.o.o.o.o.o.o.o.o.o.o.X.o.o.",
"o.o.o.o.o.o.o.o.o.o.o.o.Y o.o.o.o.o.Y O.&.-.8X8X;.-.+.Y o.o.o.o.o.o.o.o.o.o.o.o.o.o.o.o.o.o.o.X._ _ X.o.o.o.o.o.o.o.o.o.o.o.o.o.",
"o.o.o.o.o.o.o.o.o.o.o.o.O.O.O.Y o.o.Y O.=.-.8X8X8X-.+.o.Y o.o.o.o.o.o.Y Y o.o.o.X.o.o.o.o.o.o.' _ _  .X.X. .X.o.o.o.o.o.o.o.o.o.",
"o.o.o.o.o.o.o.Y o.o.o.o.O.O.O.O.o.o.o.O.=.-.8X8X8X;.&.Y Y o.o.o.o.o.o.&.o.o.o.o.o.o.o.o.o.o.o. ._ _ X.X._ _ X.o.X.o.o.o.o.X.o.o.",
"o.o.o.o.o.o.o.o.o.o.o.O.O.O.O.O.O.Y o.O.&.;.8X8X8X;.&.Y o.o.o.o.o.o.o.Y o.o.o.o.o.o.o.o.o.o.o.X. .' X..._ _ X.o.O.o.o.o.o.o.o.o.",
"o.o.o.Y o.o.o.o.o.o.o.o.O.o.o.O.o.o.o.O.=.-.8X8X8X-.+.o.Y o.o.o.o.o.o.o.o.o.o.o.o.o.o.o.o.o.o. ._ _ X.o... .X.o.o.X.o.o.X.o.o.o.",
"o.o.o.o.o.o.o.o.o.o.Y o.o.o.o.o.o.o.o.O.&.-.8X8X8X=.O.o.o.o.o.o.o.o.o.o.o.o.o.o.o.o.o.o.o.o.o.o.'  .X.X.O.X.o.o.o.o.o.o.o.o.o.o.",
"O.o.o.o.o.o.o.o.o.o.o.o.o.o.o.o.o.o.o.O.O.*.;.;.;.*.O.Y o.o.o.o.o.o.o.o.o.o.o.o.o.o.o.o.o.o.o. . .' X.o.o.o.o.o.o.o.o.o.o.o.o.o.",
"Y Y o.o.o.o.o.o.o.o.o.o.Y o.o.o.o.o.o.o.O.&.=.-.*.+.O.o.o.o.o.o.o.o.o.o.o.o.o.o.o.X.o.o.o.o.o.o. . .X.o.o.o.o.o.o.o.o.o.o.o.o.o.",
"_ _  .o.o.o.o.o.o.o.o.o.o.o.o.o.O.o.O.o.O.O.+.O.O.O.o.o.o.o.o.o.o.o.o.o.o.X.o.o.o.o.o.o.o.o.o.o. . .X.o.o.o.o.o.o.o.o.X.o.o.o.o.",
"Q '  .o.o.o.o.o.o.o.o.o.o.o.o.o.O.O.O.O.Y o.o.o.o.o.o.o.o.o.o.o.o.o.o.o.o.o.o.o.o.o.o.o.o.o.o.o.o.o.o.o.o.o.o.o.o.o.o.o.o.o.o.o.",
"..o.o.o.o.o.o.o.o.o.o.o.o.o.o.o.O.O.O.O.O.o.o.o.o.o.o.o.o.o.o.o.o.o.Y Y o.o.o.o.o.o.o.o.o.o.o.o.o.o.o.o.o.o.o.o.o.o.Y Y o.o.o.o.",
"o.o.o.o.Y Y o.o.o.o.o.o.o.o.o.O.O.&.O.&.o.o.o.o.o.o.O.o.o.o.o.o.o.o.&.Y Y Y ..' .. . . .o.o.o.o.o.o.o.o.o.o.......o.o.O.o.o.o.o.",
"o.o.o.o.O.Y O.O.Y O.o.o.o.o.o.o.o.O.O.Y Y Y o.o.o.o.o.o.o.o.O.o.o.o.o.Y Y W ! ! ! ! W _ X.o.o.o.o.o.o.o.O...Q ! ! Q  .Y O.Y o.o.",
"G ] H H H J ) ' ) | ] H H ] H G | Y } } o.} Y Y  .) ` { G G H H J J ] L ~ E c m j k m S ( { / / )  . .} ] S V j m c W ' ) / | | ",
"h.h.h.j.j.8 g n n g 5.h.h.j.j.8 H [ ] { G F F S b E g 4.5.j.j.j.h.5.4.h n n h 4 ,.1.6.4.4.q q g b ! ( D r Y.5.,.4 h n t n n A S ",
"u.u.c.c.c.9.4.< < 4.0.u.u.c.n.l.4.C C C r $.$.e g 4.4.1.q.u.u.i.c.p.g.2.4.< 3.f.p.i.l.d.6.,.,.2.h m V r h.a.i.p.f.2.h 4.4.4.w 4.",
"B.A.W.W.E.M.d.<.1.f.c.A.A.E.].[.z.h.k.j.l.a.L.d.6.6.l.m.B.A.E._._.J.M.9.3.,.9.M.J.~.'.P.N.i.i.d.3.4.5.d.m.Z.W.J.M.9.,.,.f.a.l.l.",
"R.).XXoX|.!.m.q.q.v.E.Q.{.XX*X@XN.q.q.i.Z.Z.Z.n.a.a.b.A.T.).|.&X&X|.E.i.0.0.M.!.XXOXoX XW.S.S.m.>.>.9.M.S.).XX|.E.v.0.0.c.C.C.A.",
"XXOX=X>X=XXXF.c.u.n.`.oX&X*X<X*XG.u.u.b.W._._.W.b.n.S.Q.}.OX=X>X>X&X{.Z.e.p./.-X=X>X>X;XoXXXoX`.p.q.N.I.].OX=X&X).Z.q.q.Z.R.T.T.",
">X,X3X3X<X$XH.n.V._.@X,X,X4X5X:X`.F.F.W.XX&X&X|.H.F._.oX*X,X<X4X4X,XoX_.M.G..X>X3X4X3X3X>X>X>X.XG.G.'.+X*X,X4X,XoX`.F.M.`.|.}.}.",
"3X3X5X3X,X&X/.I.[.+X,X4X4X5X6X4X*X.XoX&X>X4X4X#XI.P.%X<X4X4X5X5X5X4X<X*X X X*X,X3X5X5X5X4X4X>X*X X.X;X1X4X4X5X4X<X=X X X=X>X=X&X",
"5X5X5X5X,X*X.X.X%X1X4X5X5X5X5X4X1X<X<X1X5X5X7X:XU.U.:X7X5X5X5X5X5X5X5X4X>X*X>X,X4X5X5X5X5X4X,X>X*X>X3X7X5X5X5X5X5X4X>X>X4X4X>X*X",
"6X6X7X4X,X>X,X1X3X4X5X5X5X7X5X5X5X5X4X5X5X5X5X:X'.'.:X5X7X5X5X5X5X5X5X5X4X1X,X,X4X5X5X7X5X4X,X>X<X4X5X7X7X5X5X7X5X5X4X4X5X<XoX|.",
"5X5X5X4X<X<X4X7X7X5X5X5X5X5X5X5X5X5X5X5X5X5X5X<X+X@X>X4X5X5X5X5X5X5X5X7X5X4X<X<X5X5X5X5X5X5X<X<X4X5X5X5X5X5X5X5X5X5X5X7X7X<X&XXX",
"5X5X5X5X4X5X5X5X5X5X7X5X5X5X5X5X5X7X5X5X5X6X5X5X<X>X*X>X4X5X5X5X5X7X5X5X5X5X5X4X5X5X5X5X5X5X4X5X5X5X5X5X5X5X5X5X5X5X7X5X7X4X<X,X",
"5X5X5X5X5X5X5X5X5X5X5X5X5X5X5X5X5X5X5X5X5X5X5X6X5X1X=X=X4X5X5X5X5X5X5X5X5X5X5X5X5X5X5X5X5X5X5X5X5X5X5X5X5X5X5X5X5X5X5X5X5X5X5X7X",
"5X5X5X5X5X5X5X5X5X5X5X5X5X5X5X5X5X5X5X5X5X5X5X5X7X5X4X4X5X5X5X5X5X5X5X5X5X5X5X5X5X5X7X5X5X5X7X5X7X5X5X5X5X5X5X5X5X5X5X5X5X5X7X5X",
"6X5X5X6X5X5X7X5X5X5X7X5X7X5X5X5X5X5X5X7X5X5X5X5X5X5X5X5X5X5X5X5X5X5X5X7X5X5X5X5X5X5X5X5X5X5X5X5X5X5X5X5X5X5X7X5X5X5X7X5X5X5X5X5X",
"5X5X5X5X5X5X7X5X5X5X5X5X5X5X5X5X5X5X5X5X5X5X5X5X5X5X5X5X5X7X5X5X5X5X5X5X5X5X5X5X5X5X5X7X5X5X5X5X5X5X5X5X5X5X7X5X5X5X5X5X5X5X5X5X",
"5X5X7X5X5X5X5X5X5X5X5X5X5X7X5X5X5X7X5X5X5X5X5X5X5X5X5X5X5X5X5X5X5X7X5X5X5X5X5X7X5X5X5X5X5X5X5X5X5X5X7X5X5X5X5X5X5X5X5X5X5X7X5X5X"
};
